<svg xmlns="http://www.w3.org/2000/svg" width="16" height="16" viewBox="0 0 16 16"><g transform="translate(-3.516 -3.516)"><circle cx="8" cy="8" r="8" fill="#de5959" transform="translate(3.516 3.516)"/><path fill="#f3f5f9" d="M13.768 11.515l1.878-1.878a.531.531 0 000-.751l-1.5-1.5a.531.531 0 00-.751 0l-1.877 1.878L9.64 7.386a.531.531 0 00-.751 0l-1.5 1.5a.531.531 0 000 .751l1.878 1.878-1.878 1.877a.531.531 0 000 .751l1.5 1.5a.531.531 0 00.751 0l1.878-1.878 1.877 1.878a.531.531 0 00.751 0l1.5-1.5a.531.531 0 000-.751z"/></g></svg>