<svg xmlns="http://www.w3.org/2000/svg" width="49.134" height="50" viewBox="0 0 49.134 50"><path fill="#383d51" d="M24.567 50A24.57 24.57 0 01.073 27.337l2.464 2.507a.967.967 0 00.162.223.912.912 0 001.3 0l6.75-6.867 6.528 6.644a.946.946 0 00.163.223.911.911 0 001.3 0l6.749-6.867 6.526 6.641a.96.96 0 00.164.225.912.912 0 001.3 0l7.324-7.453v6.755a.989.989 0 101.978 0v-8.741a1.01 1.01 0 00-.289-.712.975.975 0 00-.7-.294h-8.589a1.007 1.007 0 000 2.013h5.955l-6.3 6.414-6.747-6.866a.911.911 0 00-1.3 0 .942.942 0 00-.162.222l-6.529 6.645-6.747-6.867a.91.91 0 00-1.3 0 .947.947 0 00-.163.223l-6.532 6.644-3.375-3.438v-.044A24.573 24.573 0 0147.203 15a24.414 24.414 0 011.931 9.563v.866A24.547 24.547 0 0124.567 50z"/></svg>