<svg xmlns="http://www.w3.org/2000/svg" width="16.195" height="12.081" viewBox="0 0 16.195 12.081"><path fill="#b6509e" d="M7.224 6.333L3.109 2.222 1.79 3.541.471 4.86l4.114 4.114z" opacity=".3"/><path fill="#b6509e" d="M16.057 2.776L13.42.139a.472.472 0 00-.668 0L7.224 5.662 3.443 1.886a.472.472 0 00-.668 0L.138 4.523a.463.463 0 00-.032.035l-.021.029-.006.008-.022.036c-.007.012-.012.025-.018.038 0 .012-.009.025-.013.037v.007c0 .012-.006.023-.009.035v.099c0 .014 0 0 0 0v.099c0 .012.005.023.009.035v.006c0 .013.008.025.013.037a.264.264 0 00.018.038l.022.037v.006l.023.031.021.023.011.012 6.752 6.752a.472.472 0 00.668-.668l-2.3-2.3 2.3-2.3 5.527-5.527 1.97 1.97-5.523 5.539a.472.472 0 00.668.668l5.861-5.862a.472.472 0 000-.667zM3.11 2.887l3.447 3.447-1.97 1.97L1.14 4.857z"/></svg>