<svg width="10" height="8" viewBox="0 0 10 8" fill="none" xmlns="http://www.w3.org/2000/svg">
<path d="M6.03886 7.45878C5.9301 7.62408 5.77738 7.76068 5.59536 7.85545C5.41333 7.95022 5.20811 8 4.99939 8C4.79067 8 4.58545 7.95022 4.40343 7.85545C4.2214 7.76068 4.06868 7.62408 3.95992 7.45878L0.178353 1.71891C0.0656872 1.54763 0.00419903 1.3516 0.000207901 1.15097C-0.00378323 0.950345 0.0498667 0.752346 0.155644 0.577326C0.261422 0.402307 0.415511 0.256577 0.60208 0.155114C0.788649 0.0536499 1.00097 0.00011158 1.21722 0L8.78278 0C8.99903 0.00011158 9.21135 0.0536499 9.39792 0.155114C9.58449 0.256577 9.73858 0.402307 9.84436 0.577326C9.95013 0.752346 10.0038 0.950345 9.99979 1.15097C9.9958 1.3516 9.93431 1.54763 9.82165 1.71891L6.03886 7.45878Z" fill="#383d51"/>
</svg>
