<svg xmlns="http://www.w3.org/2000/svg" viewBox="0 0 187.638 97.347"><defs><linearGradient id="linear-gradient" x1="-.033" x2="1.033" y1=".955" y2=".224" gradientUnits="objectBoundingBox"><stop offset="0" stop-color="#2ebac6"/><stop offset="1" stop-color="#b6509e"/></linearGradient><style>.cls-2{fill:none}.cls-5{opacity:.21}.cls-6{opacity:.1}.cls-7{stroke:#fff;stroke-linejoin:round;stroke-miterlimit:10;opacity:.37;stroke-linecap:round}</style></defs><g id="Group_16205" data-name="Group 16205" transform="translate(-339.025 -238.256)"><g id="Group_16204" data-name="Group 16204" transform="translate(474 259)"><g id="Group_13465" data-name="Group 13465"><path id="Path_7142" fill="url(#linear-gradient)" d="M198.391 124.163a26.239 26.239 0 00-52.464 0 2.632 2.632 0 00-.008.2V172.2a2.916 2.916 0 005.832 0v-8.477a2.916 2.916 0 115.832 0v4.019a2.916 2.916 0 105.832 0v-4.019a2.917 2.917 0 012.916-2.916 2.917 2.917 0 012.916 2.916v1.1a2.916 2.916 0 105.832 0v-1.1a2.916 2.916 0 115.832 0v4.019a2.916 2.916 0 105.832 0v-4.019a2.917 2.917 0 012.916-2.916 2.917 2.917 0 012.916 2.916v8.477a2.916 2.916 0 005.832 0v-47.837c-.007-.063-.007-.133-.016-.2zm-35.905 4.2c-2.578 0-4.669-2.4-4.669-5.353s2.091-5.353 4.669-5.353 4.669 2.4 4.669 5.353-2.089 5.352-4.669 5.352zm9.884 7.555c-2.339 0-4.237-1.394-4.237-3.114s1.9-.682 4.237-.682 4.237-1.038 4.237.682-1.895 3.113-4.237 3.113zm9.468-7.555c-2.578 0-4.669-2.4-4.669-5.353s2.091-5.353 4.669-5.353 4.669 2.4 4.669 5.353-2.092 5.352-4.669 5.352z" data-name="Path 7142" transform="translate(-145.92 -98.511)"/><g id="Group_13464" data-name="Group 13464" transform="translate(11.897 19.145)"><ellipse id="Ellipse_598" cx="4.669" cy="5.353" class="cls-2" data-name="Ellipse 598" rx="4.669" ry="5.353"/><path id="Path_7143" d="M238.747 231.572c-2.339 0-4.237-1.038-4.237.682s1.9 3.114 4.237 3.114 4.237-1.394 4.237-3.114-1.895-.682-4.237-.682z" class="cls-2" data-name="Path 7143" transform="translate(-224.195 -217.107)"/><ellipse id="Ellipse_599" cx="4.669" cy="5.353" class="cls-2" data-name="Ellipse 599" rx="4.669" ry="5.353" transform="translate(19.352)"/></g><path id="Path_7146" fill="#fff" d="M147.49 120.177s5.075-16.12 26.134-15.962c26.134.316 25.951 29.592 25.951 29.592s2.357-20.52-9.9-29.624-22.626-5.065-27.383-3.28-13.779 9.357-14.802 19.274z" data-name="Path 7146" opacity=".06" transform="translate(-147.096 -98.454)"/><path id="Path_7147" fill="#fff" d="M160.8 111.238s8.52-9.272 20.337-9.4 20.091 3.748 23.983 11.719a51.686 51.686 0 014.43 17.243s2.357-17.509-9.9-26.61-22.626-5.065-27.383-3.28-8.12 5.733-11.467 10.328z" data-name="Path 7147" opacity=".15" transform="translate(-157.069 -98.465)"/><path id="Path_7148" d="M193.355 179.032s.328-5.724 4.669-5.732 4.669 5.732 4.669 5.732-.905-5.353-4.669-5.353c-2.688 0-4.789 4.144-4.669 5.353z" class="cls-5" data-name="Path 7148" transform="translate(-181.458 -154.534)"/><path id="Path_7149" d="M270.545 179.032s.328-5.724 4.669-5.732 4.669 5.732 4.669 5.732-.905-5.353-4.669-5.353c-2.691 0-4.792 4.144-4.669 5.353z" class="cls-5" data-name="Path 7149" transform="translate(-239.293 -154.534)"/><path id="Path_7150" d="M196.218 170.53c-2.069 0-5.278 2.324-5.278 6.426a5.666 5.666 0 005.278 5.925c2 0 5.027-1.823 5.027-5.925s-2.959-6.426-5.027-6.426zm.07 11.692c-2.929.085-4.666-3.187-4.666-5.571a4.7 4.7 0 014.666-4.819c2.906 0 4.165 2.435 4.165 4.819s-1.236 5.485-4.165 5.571z" class="cls-6" data-name="Path 7150" transform="translate(-179.652 -152.458)"/><path id="Path_7151" d="M274.078 170.53c-2.069 0-5.278 2.324-5.278 6.426a5.666 5.666 0 005.278 5.925c2 0 5.027-1.823 5.027-5.925s-2.959-6.426-5.027-6.426zm.07 11.692c-2.929.085-4.666-3.187-4.666-5.571a4.7 4.7 0 014.666-4.819c2.906 0 4.165 2.435 4.165 4.819s-1.236 5.485-4.165 5.571z" class="cls-6" data-name="Path 7151" transform="translate(-237.99 -152.458)"/><path id="Path_7152" d="M234.86 237.73s.7 2.487 4.207 2.487c3.046-.068 3.942-2.011 4.054-2.277a3.86 3.86 0 01-4.032 3.42 4.086 4.086 0 01-4.229-3.63z" class="cls-6" data-name="Path 7152" transform="translate(-212.56 -202.809)"/><path id="Line_105" d="M0 0v12.577" class="cls-7" data-name="Line 105" transform="translate(50.107 42.576)"/><path id="Line_106" d="M0 0v2.545" class="cls-7" data-name="Line 106" transform="translate(50.107 36.067)"/><path id="Line_107" d="M0 0v7.562" class="cls-7" data-name="Line 107" transform="translate(2.432 32.873)"/></g></g><path id="Path_7540" fill="#b6509e" d="M6.885-11.25q.22 0 .659.029t.967.117q.527.088 1.084.234a5.118 5.118 0 011.018.381 2.46 2.46 0 01.754.571 1.167 1.167 0 01.293.791 2.941 2.941 0 01-.52 1.736 4.873 4.873 0 01-1.355 1.283 8.319 8.319 0 01-1.875.894 16.287 16.287 0 01-2.087.557 18.629 18.629 0 01-1.992.286q-.945.081-1.589.081l-.089 4.1q0 .132-.19.176a2 2 0 01-.447.044q-.256 0-.491-.022A1.484 1.484 0 00.7 0v-4.263Q.806-5.64.85-6.7a12.18 12.18 0 01.2-1.838 3.781 3.781 0 01.483-1.3 2.316 2.316 0 01.981-.835 5.556 5.556 0 011.707-.447 22.165 22.165 0 012.664-.13zM2.534-8.276q-.029.22-.1.527t-.139.637a5.094 5.094 0 00-.088.645 1.346 1.346 0 00.066.557.7.7 0 00.315.374 1.027 1.027 0 00.652.073q.425 0 1.113-.051t1.458-.176a12.78 12.78 0 001.545-.352 6.865 6.865 0 001.4-.571 3.513 3.513 0 001.018-.82 1.7 1.7 0 00.4-1.121 1.459 1.459 0 00-.476-.8 2.725 2.725 0 00-.923-.52 5.29 5.29 0 00-1.208-.256 8.166 8.166 0 00-1.34-.022 8.418 8.418 0 00-1.326.19 5.643 5.643 0 00-1.157.388A2.857 2.857 0 002.9-9a1.219 1.219 0 00-.366.724zm9.829-3.589q.161-.22.315-.417a.532.532 0 01.447-.2q.19 0 .352.454a6.9 6.9 0 01.278 1.208q.117.754.205 1.721t.146 2.007q.059 1.04.1 2.073t.059 1.89q.022.857.029 1.472t.006.837a.741.741 0 01-.11.425.823.823 0 01-.278.256 1.061 1.061 0 01-.381.125 2.953 2.953 0 01-.4.029.606.606 0 01-.081-.007.627.627 0 00-.071-.008q0-.381-.022-1.165t-.051-1.772l-.059-2.08q-.03-1.091-.066-2.083-.037-.989-.073-1.772t-.051-1.165a3.157 3.157 0 00-.037-.366q-.037-.264-.081-.557t-.1-.549q-.046-.254-.076-.356zm2.93 9.465a5.535 5.535 0 01.227-2.314 5.8 5.8 0 011.08-1.995 5.34 5.34 0 011.75-1.37 4.735 4.735 0 012.25-.476 3.453 3.453 0 01.549.059 5.346 5.346 0 01.732.183 5.115 5.115 0 01.758.313 2.92 2.92 0 01.659.454 1.8 1.8 0 01.432.593 1.246 1.246 0 01.073.74 3.633 3.633 0 01-1.384.586 13.229 13.229 0 01-1.6.227q-.813.066-1.589.117a4.69 4.69 0 00-1.355.271 1.805 1.805 0 00-.894.7 2 2 0 00-.2 1.37 2.125 2.125 0 00.725 1.187 2.385 2.385 0 001.172.461A4.433 4.433 0 0020.1-1.37a11.819 11.819 0 001.479-.4q.725-.249 1.355-.527t1.04-.454a.427.427 0 01.322.139.463.463 0 01.132.33 3.488 3.488 0 01-1.108 1.125 6.893 6.893 0 01-1.685.806 8.116 8.116 0 01-1.955.38 6.127 6.127 0 01-1.912-.146A3.879 3.879 0 0116.2-.894a2.741 2.741 0 01-.907-1.506zm5.171-5.054a4.354 4.354 0 00-.645.059 3.137 3.137 0 00-.732.205 2.072 2.072 0 00-.608.381.777.777 0 00-.256.6l3.633-.6a1.282 1.282 0 00-.608-.5 2.127 2.127 0 00-.784-.147zm12.261 4.422a6.624 6.624 0 01-.981 1.194 5.98 5.98 0 01-1.224.908 5.337 5.337 0 01-1.45.549 5.406 5.406 0 01-1.648.1 3.241 3.241 0 01-.659-.073 2.41 2.41 0 01-.652-.234 1.428 1.428 0 01-.491-.425 1.1 1.1 0 01-.19-.659 3.625 3.625 0 01.07-1.661 6.124 6.124 0 01.71-1.626 7.216 7.216 0 011.187-1.45 8 8 0 011.5-1.128 6.2 6.2 0 011.638-.663 3.864 3.864 0 011.633-.059 1.165 1.165 0 01.938.4 2.593 2.593 0 01.505 1.055 7.766 7.766 0 01.212 1.504q.044.857.073 1.765t.081 1.794A9.236 9.236 0 0034.2-.117h-1.08q-.073-.5-.11-.879t-.066-.71q-.029-.33-.081-.637t-.138-.689zm-1.114-3.911a3.037 3.037 0 00-1.179.154 5.139 5.139 0 00-1.172.557 6.189 6.189 0 00-1.055.85 7.462 7.462 0 00-.857 1.018 4.9 4.9 0 00-.564 1.047 2.192 2.192 0 00-.161.959 1.194 1.194 0 00.33.747 1.578 1.578 0 00.908.41 3.693 3.693 0 001.692-.447A6.059 6.059 0 0031-2.717a6.578 6.578 0 001.062-1.377 4.584 4.584 0 00.549-1.37 1.525 1.525 0 00-.11-1.055.928.928 0 00-.89-.424zM37.1-.293a13.654 13.654 0 001.941-.791 11.2 11.2 0 001.509-.894 2.852 2.852 0 00.82-.813q.212-.374-.117-.564a2.58 2.58 0 00-1.3-.125 17.152 17.152 0 00-2.739.505 2.417 2.417 0 01-.945-.205 2.567 2.567 0 01-.71-.469 2.013 2.013 0 01-.447-.608 1.5 1.5 0 01-.154-.637 1.674 1.674 0 01.33-.959 4.052 4.052 0 01.886-.9 7.085 7.085 0 011.289-.769 9 9 0 011.538-.557 9.3 9.3 0 011.648-.278 6.122 6.122 0 011.619.081.455.455 0 01.513.388 7.538 7.538 0 01.073 1.252 5.071 5.071 0 00-1.3-.4 6.717 6.717 0 00-1.4-.088 6.6 6.6 0 00-1.362.2 4.4 4.4 0 00-1.165.469 2.756 2.756 0 00-.828.74 1.722 1.722 0 00-.337 1 .387.387 0 00.242.4 1.465 1.465 0 00.571.088 4.349 4.349 0 00.688-.073 3.362 3.362 0 01.579-.066 11.912 11.912 0 013.076-.352 2.286 2.286 0 011.479.469.868.868 0 01.117 1.018 3.968 3.968 0 01-1.018 1.311A10.42 10.42 0 0140.3-.579 13.933 13.933 0 0137.734.527q-.073 0-.161-.11T37.39.161q-.1-.146-.168-.278a.878.878 0 00-.122-.176zM44.385-2.4a5.535 5.535 0 01.227-2.314A5.8 5.8 0 0145.7-6.709a5.34 5.34 0 011.75-1.37 4.735 4.735 0 012.241-.476 3.453 3.453 0 01.549.059 5.346 5.346 0 01.732.183 5.115 5.115 0 01.759.313 2.92 2.92 0 01.659.454 1.8 1.8 0 01.432.593 1.246 1.246 0 01.073.74 3.633 3.633 0 01-1.384.586 13.229 13.229 0 01-1.6.227q-.813.066-1.589.117a4.69 4.69 0 00-1.355.271 1.805 1.805 0 00-.894.7 2 2 0 00-.2 1.37 2.125 2.125 0 00.727 1.184 2.385 2.385 0 001.172.461A4.433 4.433 0 0049.2-1.37a11.819 11.819 0 001.479-.4q.725-.249 1.355-.527t1.04-.454a.427.427 0 01.322.139.463.463 0 01.132.33 3.488 3.488 0 01-1.113 1.128 6.893 6.893 0 01-1.685.806 8.116 8.116 0 01-1.956.381 6.127 6.127 0 01-1.914-.15 3.879 3.879 0 01-1.567-.776 2.741 2.741 0 01-.908-1.507zm5.171-5.054a4.354 4.354 0 00-.645.059 3.137 3.137 0 00-.732.205 2.072 2.072 0 00-.608.381.777.777 0 00-.256.6l3.633-.6a1.282 1.282 0 00-.608-.5 2.127 2.127 0 00-.784-.147zm12.466 4.57a2.615 2.615 0 01.249-1.34 5.081 5.081 0 01.856-1.276 7.678 7.678 0 011.289-1.128 9.3 9.3 0 011.56-.886 8.5 8.5 0 011.663-.549 5.118 5.118 0 011.589-.11 5.314 5.314 0 01.557.029 1.283 1.283 0 01.491.144.911.911 0 01.344.337 1.166 1.166 0 01.132.6.6.6 0 01-.1.337 1.542 1.542 0 01-.234.278 1.986 1.986 0 01-.3.234q-.161.1-.293.205-.044-.205-.088-.388a.963.963 0 00-.139-.322.677.677 0 00-.249-.22.869.869 0 00-.4-.081 13.687 13.687 0 00-1.868.535 10.688 10.688 0 00-1.846.857A5.078 5.078 0 0063.882-4.5a1.625 1.625 0 00-.4 1.34 1.929 1.929 0 00.249 1.04 1.75 1.75 0 00.652.615 2.7 2.7 0 00.923.293 7.606 7.606 0 001.062.073 5.313 5.313 0 001.619-.249q.784-.249 1.531-.557t1.468-.555a4.275 4.275 0 011.406-.249 2.069 2.069 0 01.242.015.477.477 0 01.22.081.339.339 0 01.132.19.75.75 0 01-.007.344 1.034 1.034 0 01-.52.527 6.513 6.513 0 01-1.1.5q-.652.234-1.421.439t-1.494.352q-.725.146-1.3.227a6.891 6.891 0 01-.86.074 7.259 7.259 0 01-1.392-.146 5 5 0 01-1.384-.484 3.235 3.235 0 01-1.062-.886 2.172 2.172 0 01-.425-1.37zM81.05-.439q0-.7-.007-1.523T80.962-3.5a6.12 6.12 0 00-.234-1.223q-.161-.505-.469-.579-.835-.161-1.494-.227a3.868 3.868 0 00-1.157.037 1.768 1.768 0 00-.857.432 2.558 2.558 0 00-.608.959 7.715 7.715 0 00-.4 1.6 23.36 23.36 0 00-.227 2.366h-1.424q.059-1.919.007-3.611t-.11-3.164q-.059-1.472-.066-2.717a15.192 15.192 0 01.139-2.256.578.578 0 01.381-.344.718.718 0 01.469.059 1.146 1.146 0 01.41.33.8.8 0 01.19.454q-.015.161-.029.527t-.029.857q-.015.491-.022 1.062t0 1.135q.007.564.037 1.084a6.89 6.89 0 00.1.9 8.771 8.771 0 01.989-.571 5 5 0 011.062-.381 6.058 6.058 0 011.187-.154 7.287 7.287 0 011.377.1 6.11 6.11 0 011.15.74 2.568 2.568 0 01.63.776 2.8 2.8 0 01.278.894 10.829 10.829 0 01.088 1.084q.022.608.059 1.37a14.572 14.572 0 00.2 1.714.566.566 0 01-.322.22 1.551 1.551 0 01-.52.088.984.984 0 01-.483-.117.4.4 0 01-.214-.383zm9.419-2.593a6.624 6.624 0 01-.981 1.194 5.98 5.98 0 01-1.223.908 5.337 5.337 0 01-1.45.549 5.406 5.406 0 01-1.648.1 3.241 3.241 0 01-.659-.073 2.41 2.41 0 01-.652-.234 1.428 1.428 0 01-.491-.425 1.1 1.1 0 01-.19-.659 3.625 3.625 0 01.066-1.663 6.124 6.124 0 01.71-1.626 7.216 7.216 0 011.187-1.45 8 8 0 011.5-1.128 6.2 6.2 0 011.641-.661 3.864 3.864 0 011.633-.059 1.165 1.165 0 01.938.4 2.593 2.593 0 01.505 1.055 7.766 7.766 0 01.212 1.504q.044.857.073 1.765t.081 1.794a9.236 9.236 0 00.227 1.619h-1.084q-.073-.5-.11-.879t-.066-.71q-.029-.33-.081-.637t-.138-.684zm-1.114-3.911a3.037 3.037 0 00-1.179.154A5.139 5.139 0 0087-6.233a6.189 6.189 0 00-1.055.85 7.462 7.462 0 00-.857 1.018 4.9 4.9 0 00-.564 1.047 2.192 2.192 0 00-.161.959 1.194 1.194 0 00.33.747 1.578 1.578 0 00.908.41 3.693 3.693 0 001.699-.446 6.059 6.059 0 001.45-1.069 6.578 6.578 0 001.06-1.377 4.584 4.584 0 00.549-1.37 1.525 1.525 0 00-.11-1.055.928.928 0 00-.894-.424zm10.356-.264q.1-.234-.22-.271a3.158 3.158 0 00-.879.066 10.257 10.257 0 00-1.245.322 10.038 10.038 0 00-1.311.52 5.769 5.769 0 00-1.084.667 1.518 1.518 0 00-.564.732L94.395-.19h-1.216a2.51 2.51 0 01-.139-.652q-.051-.447-.081-1.055t-.037-1.318q-.007-.71.007-1.436t.044-1.421q.029-.7.066-1.267t.073-.959a2.814 2.814 0 01.081-.52 2.594 2.594 0 01.366-.22.91.91 0 01.41-.1q.264.015.359.344a2.693 2.693 0 01.1.747 6.319 6.319 0 01-.051.813 5.086 5.086 0 00-.051.542 15.987 15.987 0 012.622-1.641 5.047 5.047 0 011.852-.544 1.71 1.71 0 011.2.352 2.447 2.447 0 01.7 1.055 6.128 6.128 0 01.33 1.575q.081.9.1 1.9t0 2.029q-.015 1.033.029 1.97a1.323 1.323 0 01-.242.1.3.3 0 01-.143-.004q-.081-.022-.212-.051a2.738 2.738 0 00-.41-.044 7.7 7.7 0 01-.2-1.641q-.022-.923-.007-1.89t-.015-1.919a8.824 8.824 0 00-.218-1.762zM107.5 6.606a2.366 2.366 0 00.945-.19 1.58 1.58 0 00.6-.476 1.861 1.861 0 00.322-.7 3.253 3.253 0 00.081-.864q-.015-.278-.007-.85t.022-1.289q.015-.718.029-1.5t.029-1.5q.015-.718.015-1.282t-.015-.857q-.527.483-1.187 1a9.4 9.4 0 01-1.436.93 8.076 8.076 0 01-1.67.652 5.677 5.677 0 01-1.9.168 1.385 1.385 0 01-.879-.264.977.977 0 01-.337-.82 4.637 4.637 0 01.3-1.37 8.564 8.564 0 01.718-1.479 11.3 11.3 0 011.033-1.436 8.686 8.686 0 011.252-1.223 6.4 6.4 0 011.377-.842A3.449 3.449 0 01108.2-7.9a2.525 2.525 0 011.333.388 3.525 3.525 0 011.15 1.252q.205 2.959.264 5.127t-.015 3.7a16.913 16.913 0 01-.271 2.5 5.717 5.717 0 01-.505 1.538 2.052 2.052 0 01-.725.82 2.582 2.582 0 01-.937.33 7.435 7.435 0 01-1.135.081q-.615 0-1.3.059h-.7a4.521 4.521 0 01-.916-.1 2.213 2.213 0 01-.8-.322.752.752 0 01-.337-.667zm.63-13.242a2.469 2.469 0 00-1.187.337 6.545 6.545 0 00-1.194.85 8.155 8.155 0 00-1.062 1.143 8.307 8.307 0 00-.791 1.223 3.924 3.924 0 00-.4 1.069.688.688 0 00.146.681 1.105 1.105 0 00.732.037 5.7 5.7 0 001.143-.359 8.913 8.913 0 001.3-.688 8.506 8.506 0 001.23-.937 5.165 5.165 0 00.916-1.1 2.25 2.25 0 00.359-1.187.847.847 0 00-.11-.417 1.269 1.269 0 00-.278-.344 1.252 1.252 0 00-.381-.227 1.209 1.209 0 00-.418-.081zm3.623 4.236a5.535 5.535 0 01.227-2.314 5.8 5.8 0 011.084-1.992 5.34 5.34 0 011.75-1.37 4.735 4.735 0 012.241-.476 3.453 3.453 0 01.549.059 5.346 5.346 0 01.732.183 5.115 5.115 0 01.764.31 2.92 2.92 0 01.659.454 1.8 1.8 0 01.432.593 1.246 1.246 0 01.073.74 3.633 3.633 0 01-1.384.586 13.229 13.229 0 01-1.6.227q-.813.066-1.589.117a4.69 4.69 0 00-1.355.271 1.805 1.805 0 00-.894.7 2 2 0 00-.2 1.37 2.125 2.125 0 00.725 1.187 2.385 2.385 0 001.172.461 4.433 4.433 0 001.421-.073 11.819 11.819 0 001.479-.4q.725-.249 1.355-.527t1.04-.454a.427.427 0 01.322.139.463.463 0 01.132.33 3.488 3.488 0 01-1.113 1.128 6.893 6.893 0 01-1.685.806 8.116 8.116 0 01-1.956.381 6.127 6.127 0 01-1.912-.146 3.879 3.879 0 01-1.567-.776 2.741 2.741 0 01-.902-1.514zm5.171-5.054a4.354 4.354 0 00-.645.059 3.137 3.137 0 00-.732.205 2.072 2.072 0 00-.608.381.777.777 0 00-.256.6l3.633-.6a1.282 1.282 0 00-.608-.5 2.127 2.127 0 00-.784-.147zm13.227 6.224q.146 0 .337.007a1.79 1.79 0 01.366.051.743.743 0 01.293.139.329.329 0 01.117.271 1.236 1.236 0 01-.366.608 1.123 1.123 0 01-.52.264.925.925 0 01-.505-.037.549.549 0 01-.322-.271.527.527 0 01.037-.454 1.621 1.621 0 01.563-.578zm.864-15.264a4.575 4.575 0 00-.066.74q-.022.564-.029 1.377t-.007 1.809q0 1-.007 2.036t-.022 2.058q-.015 1.018-.044 1.868t-.081 1.472a3.937 3.937 0 01-.139.872h-1.23q0-1.509.066-3.025t.139-3.032q.073-1.516.139-3.04t.066-3.062z" data-name="Path 7540" transform="translate(338.332 254.75)"/><path id="Path_3810" fill="none" stroke="#b6509e" stroke-linecap="round" stroke-width=".5" d="M430.887 262.929s6.196 14.804 27.192 10.285" data-name="Path 3810"/></g></svg>