<svg width="63" height="13" viewBox="0 0 63 13" fill="none" xmlns="http://www.w3.org/2000/svg"><path fill-rule="evenodd" clip-rule="evenodd" d="M28.488 12.095l-4.8-10.94a.913.913 0 01-.003-.64.82.82 0 01.18-.28.854.854 0 01.64-.233.9.9 0 01.495.155 1 1 0 01.343.41l4.56 10.708L34.462.567a1 1 0 01.341-.41.9.9 0 01.495-.155.854.854 0 01.636.233.828.828 0 01.236.61.908.908 0 01-.059.31l-4.8 10.94a1.285 1.285 0 01-1.2.842h-.423a1.285 1.285 0 01-1.2-.842zm8.824.5a.777.777 0 01-.247-.586V.938a.816.816 0 01.247-.6.844.844 0 01.624-.242h7.789a.8.8 0 01.589.233.724.724 0 01.247.554.687.687 0 01-.247.543.857.857 0 01-.59.22h-6.892v4.03h6.2a.8.8 0 01.589.234.74.74 0 01.247.554.685.685 0 01-.247.543.857.857 0 01-.59.22h-6.2v4.054h6.894a.8.8 0 01.589.233.724.724 0 01.247.554.686.686 0 01-.247.543.857.857 0 01-.59.22h-7.788a.799.799 0 01-.624-.235zM20.879.846l4.8 10.94a.698.698 0 01.064.31.827.827 0 01-.236.61.852.852 0 01-.637.233.9.9 0 01-.495-.155 1.001 1.001 0 01-.341-.41l-4.56-10.708L17.788 5.6h.808a.841.841 0 01.86.809v.022a.84.84 0 01-.86.809h-1.508l-2.193 5.133a1 1 0 01-.341.41.9.9 0 01-.495.155.853.853 0 01-.636-.233.826.826 0 01-.236-.61.912.912 0 01.059-.31l1.99-4.545h-.848a.841.841 0 01-.86-.81v-.01a.841.841 0 01.86-.81h1.58L18.056.846a1.285 1.285 0 011.2-.842h.424a1.285 1.285 0 011.2.842zm-8.387 10.94L7.696.844A1.285 1.285 0 006.494.002H6.07a1.285 1.285 0 00-1.2.842L2.782 5.61H1.2a.841.841 0 00-.86.809v.01a.841.841 0 00.86.81h.85L.06 11.785a.91.91 0 00-.004.639c.04.105.102.2.18.28a.854.854 0 00.637.234.9.9 0 00.495-.155 1 1 0 00.342-.41L3.9 7.24h1.52a.841.841 0 00.86-.81v-.02a.841.841 0 00-.86-.807h-.812l1.674-3.937 4.56 10.708a1 1 0 00.342.41.9.9 0 00.495.155.853.853 0 00.636-.233.826.826 0 00.236-.61.701.701 0 00-.06-.31zM59.657 6.53h-.709v.816h.71c.336 0 .628.052.875.156.25.1.444.256.58.467.136.208.204.475.204.8 0 .326-.061.597-.183.812a1.13 1.13 0 01-.51.483 1.81 1.81 0 01-.784.156c-.305 0-.57-.056-.795-.167a1.256 1.256 0 01-.516-.478 1.4 1.4 0 01-.177-.714h-.994c0 .347.065.657.194.93.129.268.308.495.537.681.229.183.492.322.79.42.3.096.62.144.96.144.355 0 .683-.05.984-.15.3-.1.562-.25.784-.446.226-.197.4-.437.52-.72.126-.283.189-.607.189-.972 0-.233-.04-.465-.118-.698a1.656 1.656 0 00-.398-.65c-.186-.197-.442-.355-.768-.473a2.268 2.268 0 00-.05-.017 2.11 2.11 0 00.652-.44 1.864 1.864 0 00.564-1.256c0-.487-.099-.894-.296-1.22a1.847 1.847 0 00-.827-.74c-.354-.169-.768-.253-1.24-.253-.48 0-.903.097-1.268.29a2.164 2.164 0 00-.843.779c-.2.326-.301.687-.301 1.085h.993c0-.272.06-.509.178-.71.121-.2.288-.354.5-.461.214-.111.461-.167.74-.167.308 0 .563.052.763.156.2.104.351.258.451.462.1.204.15.457.15.757 0 .255-.057.484-.171.688-.111.2-.281.36-.51.478-.226.115-.512.172-.86.172zm-6.65 4.399h-.117L50 3.108h1.123l2.218 6.446 2.24-6.447h1.122l-2.895 7.82h-.8z" fill="url(#paint0_linear_1756_1900)"/><defs><linearGradient id="paint0_linear_1756_1900" x1="62" y1="9.881" x2="43.784" y2="38.123" gradientUnits="userSpaceOnUse"><stop stop-color="#B6509E"/><stop offset="1" stop-color="#2EBAC6"/></linearGradient></defs></svg>