<svg width="576" height="192" viewBox="0 0 576 192" fill="none" xmlns="http://www.w3.org/2000/svg">
<mask id="mask0" mask-type="alpha" maskUnits="userSpaceOnUse" x="0" y="0" width="171" height="138">
<path fill-rule="evenodd" clip-rule="evenodd" d="M0 0H170.382V137.258H0V0Z" fill="white"/>
</mask>
<g mask="url(#mask0)">
<path fill-rule="evenodd" clip-rule="evenodd" d="M19.9506 132.161C14.8875 121.322 12.0594 109.229 12.0594 96.4761C12.0594 49.854 49.854 12.0596 96.4761 12.0596C122.436 12.0596 145.658 23.7784 161.143 42.2136L170.382 34.4619C152.684 13.3929 126.145 0 96.4761 0C43.1938 0 0 43.1938 0 96.4761C0 111.051 3.23194 124.871 9.01837 137.258L19.9506 132.161Z" fill="white"/>
</g>
<path fill-rule="evenodd" clip-rule="evenodd" d="M96.476 153.759C64.8397 153.759 39.1934 128.112 39.1934 96.4761C39.1934 64.8398 64.8397 39.1934 96.476 39.1934C114.092 39.1934 129.847 47.1475 140.355 59.6571L149.596 51.9034C136.876 36.7602 117.8 27.1339 96.476 27.1339C58.1793 27.1339 27.1338 58.1794 27.1338 96.4761C27.1338 134.773 58.1793 165.818 96.476 165.818V153.759Z" fill="white"/>
<path fill-rule="evenodd" clip-rule="evenodd" d="M117.261 113.917C112.284 119.842 104.82 123.61 96.476 123.61C81.4904 123.61 69.3421 111.462 69.3421 96.4759C69.3421 81.4904 81.4904 69.3421 96.476 69.3421C104.82 69.3421 112.284 73.1099 117.261 79.0354L127.653 70.3152C120.187 61.4267 108.993 55.7751 96.476 55.7751C73.9975 55.7751 55.7751 73.9975 55.7751 96.4759C55.7751 118.954 73.9975 137.177 96.476 137.177C107.947 137.177 118.305 132.428 125.703 124.793L117.261 113.917Z" fill="white"/>
<path fill-rule="evenodd" clip-rule="evenodd" d="M190.626 83.2686H203.025V91.6433H203.243C204.402 89.0329 206.414 86.7317 209.279 84.7365C212.142 82.7434 215.533 81.7455 219.448 81.7455C222.856 81.7455 225.774 82.3438 228.204 83.5406C230.633 84.7365 232.626 86.314 234.186 88.2715C235.744 90.2295 236.887 92.4778 237.612 95.0149C238.336 97.5538 238.7 100.164 238.7 102.846V135.476H225.648V106.544C225.648 105.021 225.539 103.427 225.322 101.758C225.104 100.092 224.632 98.5873 223.908 97.245C223.182 95.904 222.184 94.7974 220.916 93.9278C219.647 93.0574 217.961 92.6222 215.859 92.6222C213.755 92.6222 211.944 93.0405 210.421 93.8734C208.898 94.7074 207.647 95.7763 206.669 97.0819C205.69 98.3867 204.946 99.8929 204.439 101.595C203.931 103.3 203.678 105.021 203.678 106.762V135.476H190.626V83.2686Z" fill="white"/>
<path fill-rule="evenodd" clip-rule="evenodd" d="M244.245 93.7101V83.2686H253.381V68.1499H266.216V83.2686H279.267V93.7101H266.216V117.964C266.216 120.286 266.632 122.206 267.467 123.729C268.299 125.252 270.167 126.013 273.068 126.013C273.938 126.013 274.88 125.923 275.896 125.741C276.91 125.561 277.816 125.289 278.615 124.925L279.05 135.149C277.889 135.584 276.511 135.928 274.917 136.183C273.321 136.436 271.799 136.563 270.349 136.563C266.868 136.563 264.04 136.074 261.865 135.095C259.69 134.116 257.967 132.775 256.699 131.07C255.43 129.368 254.559 127.41 254.089 125.197C253.616 122.987 253.381 120.612 253.381 118.073V93.7101H244.245Z" fill="white"/>
<path fill-rule="evenodd" clip-rule="evenodd" d="M287.1 83.2686H299.608V91.9695H299.826C301.275 88.9241 303.306 86.4602 305.917 84.5734C308.527 82.689 311.572 81.7455 315.053 81.7455C315.559 81.7455 316.103 81.7643 316.684 81.7999C317.264 81.8376 317.772 81.9276 318.207 82.072V94.0365C317.336 93.8188 316.592 93.6745 315.977 93.6013C315.36 93.5295 314.762 93.4926 314.182 93.4926C311.209 93.4926 308.815 94.0365 307.004 95.1236C305.191 96.2115 303.777 97.5163 302.762 99.0394C301.746 100.562 301.058 102.122 300.696 103.717C300.332 105.312 300.152 106.581 300.152 107.523V135.476H287.1V83.2686Z" fill="white"/>
<path fill-rule="evenodd" clip-rule="evenodd" d="M324.187 135.476H337.239V83.2686H324.187V135.476ZM322.338 65.5397C322.338 63.4379 323.116 61.6071 324.676 60.0473C326.235 58.4886 328.211 57.709 330.604 57.709C332.997 57.709 335.009 58.453 336.64 59.9385C338.272 61.4252 339.088 63.2933 339.088 65.5397C339.088 67.7879 338.272 69.6561 336.64 71.1409C335.009 72.6284 332.997 73.371 330.604 73.371C328.211 73.371 326.235 72.5927 324.676 71.0322C323.116 69.474 322.338 67.6435 322.338 65.5397V65.5397Z" fill="white"/>
<path fill-rule="evenodd" clip-rule="evenodd" d="M354.099 93.7101H344.202V83.2686H354.099V79.3643C354.099 76.2477 354.442 73.2567 355.133 70.3913C355.821 67.5278 356.982 65.0071 358.613 62.8319C360.244 60.6569 362.401 58.9351 365.085 57.6659C367.766 56.398 371.138 55.7622 375.2 55.7622C376.649 55.7622 377.865 55.8166 378.844 55.9253C379.822 56.0341 380.818 56.2349 381.835 56.5236L380.964 67.6178C380.239 67.4003 379.459 67.2203 378.626 67.0739C377.791 66.9295 376.902 66.8564 375.961 66.8564C374.075 66.8564 372.552 67.2203 371.393 67.9443C370.232 68.6695 369.344 69.613 368.728 70.7721C368.111 71.9324 367.695 73.2023 367.477 74.579C367.26 75.9569 367.151 77.2979 367.151 78.6027V83.2686H379.224V93.7101H367.151V135.476H354.099V93.7101Z" fill="white"/>
<path fill-rule="evenodd" clip-rule="evenodd" d="M433.826 135.476H421.427V127.101H421.209C420.049 129.711 418.036 132.014 415.173 134.007C412.308 136.001 408.919 136.999 405.003 136.999C401.594 136.999 398.676 136.4 396.248 135.204C393.818 134.007 391.824 132.43 390.265 130.473C388.705 128.514 387.563 126.268 386.839 123.729C386.114 121.191 385.752 118.581 385.752 115.898V83.2685H398.804V112.2C398.804 113.723 398.913 115.318 399.13 116.986C399.348 118.655 399.818 120.159 400.544 121.499C401.268 122.842 402.265 123.946 403.535 124.816C404.803 125.687 406.489 126.122 408.593 126.122C410.621 126.122 412.416 125.706 413.976 124.871C415.535 124.038 416.804 122.968 417.783 121.662C418.762 120.357 419.505 118.853 420.013 117.149C420.52 115.446 420.774 113.723 420.774 111.982V83.2685H433.826V135.476Z" fill="white"/>
<path fill-rule="evenodd" clip-rule="evenodd" d="M147.073 95.0693C149.792 92.7143 153.109 91.5343 157.025 91.5343C159.128 91.5343 160.957 91.8795 162.518 92.5678C164.076 93.258 165.363 94.1822 166.379 95.3411C167.393 96.5021 168.136 97.8426 168.609 99.3656C169.079 100.888 169.316 102.484 169.316 104.151H142.56C142.848 100.454 144.354 97.4263 147.073 95.0693V95.0693ZM171.273 119.596C169.822 121.7 167.973 123.349 165.727 124.544C163.478 125.741 160.723 126.339 157.46 126.339C155.574 126.339 153.762 126.013 152.022 125.36C150.281 124.708 148.722 123.821 147.345 122.696C145.967 121.572 144.86 120.231 144.028 118.671C143.194 117.113 142.704 115.392 142.56 113.505H182.259C182.33 112.926 182.368 112.346 182.368 111.765V110.025C182.368 105.312 181.732 101.198 180.464 97.6795C179.195 94.1635 177.435 91.2268 175.189 88.8698C172.941 86.5146 170.276 84.7365 167.195 83.5405C164.112 82.3438 160.759 81.7455 157.134 81.7455C153.218 81.7455 149.574 82.4171 146.203 83.7581C142.832 85.1005 139.912 86.9854 137.447 89.4137C134.982 91.8439 133.042 94.7805 131.629 98.2234C130.214 101.668 129.508 105.494 129.508 109.698C129.508 113.977 130.214 117.801 131.629 121.173C133.042 124.544 135 127.391 137.502 129.711C140.003 132.033 142.957 133.827 146.366 135.095C149.774 136.363 153.508 136.999 157.569 136.999C166.334 136.999 173.236 134.206 178.281 128.625L171.273 119.596Z" fill="white"/>
<path fill-rule="evenodd" clip-rule="evenodd" d="M523.251 95.0693C525.97 92.7143 529.287 91.5343 533.203 91.5343C535.305 91.5343 537.135 91.8795 538.696 92.5678C540.254 93.258 541.54 94.1822 542.556 95.3411C543.571 96.5021 544.314 97.8426 544.787 99.3656C545.257 100.888 545.494 102.484 545.494 104.151H518.737C519.026 100.454 520.532 97.4263 523.251 95.0693V95.0693ZM547.451 119.596C546 121.7 544.151 123.349 541.904 124.544C539.655 125.741 536.901 126.339 533.638 126.339C531.752 126.339 529.94 126.013 528.2 125.36C526.459 124.708 524.899 123.821 523.523 122.696C522.145 121.572 521.038 120.231 520.205 118.671C519.371 117.113 518.882 115.392 518.737 113.505H558.437C558.508 112.926 558.545 112.346 558.545 111.765V110.025C558.545 105.312 557.91 101.198 556.642 97.6795C555.373 94.1635 553.613 91.2268 551.367 88.8698C549.119 86.5146 546.453 84.7365 543.372 83.5405C540.29 82.3438 536.936 81.7455 533.312 81.7455C529.396 81.7455 525.752 82.4171 522.381 83.7581C519.009 85.1005 516.09 86.9854 513.625 89.4137C511.159 91.8439 509.22 94.7805 507.806 98.2234C506.392 101.668 505.686 105.494 505.686 109.698C505.686 113.977 506.392 117.801 507.806 121.173C509.22 124.544 511.178 127.391 513.679 129.711C516.181 132.033 519.135 133.827 522.544 135.095C525.952 136.363 529.685 136.999 533.747 136.999C542.512 136.999 549.414 134.206 554.459 128.625L547.451 119.596Z" fill="white"/>
<path fill-rule="evenodd" clip-rule="evenodd" d="M484.175 115.225C483.45 117.213 482.416 118.966 481.076 120.483C479.733 122 478.101 123.211 476.181 124.115C474.259 125.019 472.102 125.469 469.709 125.469C467.388 125.469 465.304 125.001 463.455 124.06C461.606 123.121 460.046 121.873 458.778 120.32C457.509 118.767 456.53 117.013 455.842 115.062C455.152 113.111 454.809 111.089 454.809 108.991C454.809 106.68 455.152 104.512 455.842 102.488C456.53 100.463 457.509 98.7112 458.778 97.2296C460.046 95.7474 461.606 94.5733 463.455 93.7063C465.304 92.8398 467.425 92.4048 469.818 92.4048C472.211 92.4048 474.349 92.8398 476.235 93.7063C478.12 94.5733 479.733 95.7661 481.076 97.2839C482.416 98.8018 483.45 100.572 484.175 102.594C484.899 104.619 485.262 106.752 485.262 108.991C485.262 111.16 484.899 113.239 484.175 115.225V115.225ZM485.262 83.2687V91.0992H485.045C483.159 87.9095 480.621 85.5524 477.432 84.0301C474.24 82.507 470.797 81.7456 467.099 81.7456C463.183 81.7456 459.648 82.4714 456.494 83.9214C453.34 85.3724 450.657 87.3299 448.445 89.7944C446.233 92.2602 444.531 95.1612 443.334 98.4954C442.137 101.832 441.54 105.385 441.54 109.155C441.54 112.853 442.155 116.352 443.388 119.65C444.621 122.951 446.342 125.833 448.554 128.297C450.765 130.763 453.466 132.721 456.657 134.17C459.847 135.62 463.401 136.346 467.317 136.346C470.942 136.346 474.223 135.668 477.16 134.313C480.096 132.959 482.506 130.999 484.393 128.435H484.61V132.255C484.61 134.876 484.338 137.277 483.795 139.461C483.251 141.643 482.343 143.536 481.076 145.137C479.806 146.738 478.101 147.992 475.963 148.903C473.824 149.812 471.195 150.268 468.078 150.268C464.815 150.268 461.588 149.632 458.398 148.364C455.29 147.128 452.494 145.359 450.007 143.058L442.3 152.987C443.968 154.364 445.853 155.597 447.957 156.685C450.058 157.772 452.252 158.678 454.537 159.404C456.821 160.128 459.14 160.672 461.498 161.035C463.853 161.397 466.083 161.579 468.186 161.579C473.261 161.579 477.649 160.853 481.347 159.404C485.045 157.952 488.108 155.905 490.538 153.259C492.966 150.611 494.761 147.385 495.922 143.579C497.081 139.772 497.662 135.511 497.662 130.798V83.2687H485.262Z" fill="white"/>
</svg>
