<svg width="702" height="162" viewBox="0 0 702 162" fill="none" xmlns="http://www.w3.org/2000/svg">
<mask id="mask0" mask-type="alpha" maskUnits="userSpaceOnUse" x="0" y="0" width="144" height="116">
<path fill-rule="evenodd" clip-rule="evenodd" d="M0 0H143.759V115.812H0V0Z" fill="white"/>
</mask>
<g mask="url(#mask0)">
<path fill-rule="evenodd" clip-rule="evenodd" d="M16.8333 111.51C12.5613 102.365 10.1751 92.162 10.1751 81.4017C10.1751 42.0643 42.0643 10.1753 81.4017 10.1753C103.305 10.1753 122.899 20.063 135.965 35.6177L143.759 29.0773C128.827 11.3003 106.434 0 81.4017 0C36.4448 0 0 36.4448 0 81.4017C0 93.6991 2.72695 105.36 7.60925 115.812L16.8333 111.51Z" fill="url(#paint0_linear)"/>
</g>
<path fill-rule="evenodd" clip-rule="evenodd" d="M81.4015 129.734C54.7084 129.734 33.0694 108.095 33.0694 81.4018C33.0694 54.7086 54.7084 33.0694 81.4015 33.0694C96.2647 33.0694 109.559 39.7807 118.425 50.3357L126.221 43.7936C115.489 31.0164 99.3938 22.8943 81.4015 22.8943C49.0887 22.8943 22.894 49.0889 22.894 81.4018C22.894 113.714 49.0887 139.909 81.4015 139.909V129.734Z" fill="url(#paint1_linear)"/>
<path fill-rule="evenodd" clip-rule="evenodd" d="M98.9387 96.1172C94.739 101.117 88.4419 104.296 81.4014 104.296C68.7573 104.296 58.5072 94.0458 58.5072 81.4016C58.5072 68.7575 68.7573 58.5074 81.4014 58.5074C88.4419 58.5074 94.739 61.6865 98.9387 66.6862L107.707 59.3285C101.408 51.8289 91.9622 47.0603 81.4014 47.0603C62.4352 47.0603 47.0601 62.4354 47.0601 81.4016C47.0601 100.368 62.4352 115.743 81.4014 115.743C91.0798 115.743 99.8197 111.736 106.062 105.294L98.9387 96.1172Z" fill="url(#paint2_linear)"/>
<path fill-rule="evenodd" clip-rule="evenodd" d="M160.841 70.258H171.302V77.3241H171.486C172.464 75.1216 174.162 73.18 176.579 71.4966C178.995 69.8149 181.856 68.9729 185.16 68.9729C188.035 68.9729 190.497 69.4777 192.547 70.4875C194.597 71.4966 196.278 72.8275 197.594 74.4792C198.91 76.1313 199.873 78.0283 200.485 80.1689C201.096 82.3112 201.403 84.5137 201.403 86.7766V114.308H190.391V89.8968C190.391 88.6119 190.299 87.2667 190.115 85.8587C189.932 84.4524 189.533 83.1832 188.923 82.0506C188.31 80.9191 187.468 79.9854 186.398 79.2517C185.328 78.5173 183.905 78.1501 182.131 78.1501C180.356 78.1501 178.828 78.5031 177.543 79.2058C176.258 79.9095 175.203 80.8114 174.377 81.913C173.551 83.0139 172.923 84.2847 172.495 85.7211C172.067 87.1596 171.853 88.6119 171.853 90.0805V114.308H160.841V70.258Z" fill="url(#paint3_linear)"/>
<path fill-rule="evenodd" clip-rule="evenodd" d="M206.082 79.0679V70.2579H213.791V57.5015H224.619V70.2579H235.632V79.0679H224.619V99.5324C224.619 101.491 224.971 103.112 225.675 104.397C226.378 105.681 227.953 106.324 230.401 106.324C231.135 106.324 231.93 106.248 232.787 106.094C233.643 105.942 234.408 105.713 235.082 105.406L235.448 114.032C234.469 114.399 233.306 114.689 231.961 114.904C230.615 115.118 229.33 115.225 228.107 115.225C225.17 115.225 222.784 114.812 220.949 113.986C219.113 113.16 217.659 112.029 216.59 110.591C215.519 109.154 214.784 107.502 214.387 105.635C213.988 103.77 213.791 101.766 213.791 99.6242V79.0679H206.082Z" fill="url(#paint4_linear)"/>
<path fill-rule="evenodd" clip-rule="evenodd" d="M242.241 70.258H252.794V77.5994H252.978C254.201 75.0299 255.915 72.9509 258.117 71.3589C260.319 69.769 262.889 68.9729 265.826 68.9729C266.253 68.9729 266.712 68.9887 267.203 69.0188C267.691 69.0506 268.12 69.1265 268.487 69.2483V79.3434C267.753 79.1598 267.125 79.0379 266.606 78.9762C266.085 78.9156 265.58 78.8845 265.091 78.8845C262.582 78.8845 260.563 79.3434 259.035 80.2607C257.505 81.1786 256.312 82.2795 255.456 83.5646C254.598 84.8497 254.018 86.1658 253.712 87.511C253.405 88.8571 253.253 89.928 253.253 90.7225V114.308H242.241V70.258Z" fill="url(#paint5_linear)"/>
<path fill-rule="evenodd" clip-rule="evenodd" d="M273.533 114.308H284.545V70.2578H273.533V114.308ZM271.972 55.2991C271.972 53.5256 272.629 51.9809 273.945 50.6648C275.26 49.3497 276.928 48.6919 278.947 48.6919C280.966 48.6919 282.664 49.3196 284.04 50.5731C285.417 51.8275 286.105 53.4037 286.105 55.2991C286.105 57.1959 285.417 58.7723 284.04 60.0251C282.664 61.2801 280.966 61.9068 278.947 61.9068C276.928 61.9068 275.26 61.2501 273.945 59.9333C272.629 58.6187 271.972 57.0741 271.972 55.2991V55.2991Z" fill="url(#paint6_linear)"/>
<path fill-rule="evenodd" clip-rule="evenodd" d="M298.771 79.0679H290.42V70.2579H298.771V66.9636C298.771 64.334 299.061 61.8103 299.643 59.3926C300.224 56.9766 301.203 54.8497 302.58 53.0144C303.956 51.1792 305.776 49.7264 308.04 48.6556C310.303 47.5858 313.148 47.0493 316.575 47.0493C317.798 47.0493 318.823 47.0952 319.649 47.187C320.475 47.2787 321.315 47.4481 322.173 47.6918L321.439 57.0525C320.826 56.869 320.168 56.7171 319.466 56.5936C318.761 56.4717 318.011 56.41 317.217 56.41C315.625 56.41 314.341 56.7171 313.363 57.3279C312.383 57.9399 311.634 58.7359 311.115 59.714C310.594 60.6929 310.243 61.7644 310.059 62.9259C309.876 64.0886 309.784 65.2201 309.784 66.321V70.2579H319.97V79.0679H309.784V114.308H298.771V79.0679Z" fill="url(#paint7_linear)"/>
<path fill-rule="evenodd" clip-rule="evenodd" d="M366.041 114.308H355.579V107.241H355.395C354.416 109.444 352.718 111.387 350.302 113.068C347.885 114.751 345.025 115.593 341.722 115.593C338.845 115.593 336.383 115.088 334.334 114.078C332.284 113.068 330.602 111.738 329.286 110.086C327.97 108.434 327.007 106.539 326.396 104.397C325.784 102.255 325.478 100.053 325.478 97.7889V70.2578H336.491V94.6687C336.491 95.9536 336.583 97.2999 336.766 98.7068C336.95 100.115 337.347 101.384 337.959 102.515C338.57 103.648 339.412 104.58 340.482 105.314C341.552 106.048 342.975 106.415 344.75 106.415C346.462 106.415 347.976 106.064 349.292 105.36C350.608 104.657 351.678 103.754 352.505 102.653C353.331 101.552 353.957 100.283 354.386 98.8445C354.813 97.4075 355.028 95.9536 355.028 94.485V70.2578H366.041V114.308Z" fill="url(#paint8_linear)"/>
<path fill-rule="evenodd" clip-rule="evenodd" d="M124.093 80.2148C126.387 78.2278 129.186 77.2322 132.49 77.2322C134.264 77.2322 135.808 77.5235 137.124 78.1042C138.439 78.6866 139.525 79.4664 140.382 80.4442C141.238 81.4238 141.865 82.5548 142.263 83.8399C142.661 85.1245 142.86 86.4711 142.86 87.8775H120.284C120.528 84.7578 121.798 82.2036 124.093 80.2148V80.2148ZM144.512 100.909C143.287 102.684 141.727 104.075 139.832 105.085C137.934 106.094 135.61 106.599 132.857 106.599C131.265 106.599 129.737 106.324 128.268 105.773C126.8 105.222 125.484 104.474 124.322 103.525C123.159 102.577 122.226 101.445 121.523 100.129C120.819 98.814 120.406 97.3618 120.284 95.7703H153.781C153.841 95.2813 153.872 94.7923 153.872 94.3017V92.8336C153.872 88.8571 153.336 85.3855 152.266 82.4172C151.195 79.4505 149.711 76.9728 147.815 74.984C145.918 72.9968 143.67 71.4966 141.07 70.4874C138.469 69.4777 135.64 68.9729 132.581 68.9729C129.278 68.9729 126.203 69.5396 123.359 70.6711C120.514 71.8036 118.05 73.394 115.971 75.4429C113.89 77.4934 112.254 79.9712 111.061 82.8761C109.868 85.7828 109.272 89.0108 109.272 92.5581C109.272 96.1685 109.868 99.3947 111.061 102.24C112.254 105.085 113.906 107.486 116.017 109.444C118.127 111.403 120.62 112.917 123.496 113.986C126.372 115.056 129.522 115.593 132.949 115.593C140.344 115.593 146.168 113.236 150.424 108.527L144.512 100.909Z" fill="url(#paint9_linear)"/>
<path fill-rule="evenodd" clip-rule="evenodd" d="M441.493 80.2148C443.787 78.2278 446.586 77.2322 449.89 77.2322C451.664 77.2322 453.208 77.5235 454.525 78.1042C455.839 78.6866 456.925 79.4664 457.782 80.4442C458.638 81.4238 459.265 82.5548 459.664 83.8399C460.061 85.1245 460.26 86.4711 460.26 87.8775H437.685C437.928 84.7578 439.199 82.2036 441.493 80.2148V80.2148ZM461.912 100.909C460.688 102.684 459.127 104.075 457.232 105.085C455.334 106.094 453.01 106.599 450.257 106.599C448.665 106.599 447.137 106.324 445.669 105.773C444.2 105.222 442.884 104.474 441.722 103.525C440.56 102.577 439.626 101.445 438.923 100.129C438.22 98.814 437.807 97.3618 437.685 95.7703H471.181C471.241 95.2813 471.273 94.7923 471.273 94.3017V92.8336C471.273 88.8571 470.736 85.3855 469.666 82.4172C468.596 79.4505 467.111 76.9728 465.216 74.984C463.319 72.9968 461.07 71.4966 458.47 70.4874C455.869 69.4777 453.04 68.9729 449.982 68.9729C446.678 68.9729 443.604 69.5396 440.759 70.6711C437.914 71.8036 435.451 73.394 433.371 75.4429C431.291 77.4934 429.654 79.9712 428.462 82.8761C427.268 85.7828 426.672 89.0108 426.672 92.5581C426.672 96.1685 427.268 99.3947 428.462 102.24C429.654 105.085 431.307 107.486 433.417 109.444C435.528 111.403 438.02 112.917 440.896 113.986C443.772 115.056 446.922 115.593 450.349 115.593C457.744 115.593 463.568 113.236 467.825 108.527L461.912 100.909Z" fill="url(#paint10_linear)"/>
<path fill-rule="evenodd" clip-rule="evenodd" d="M408.523 97.2214C407.911 98.8986 407.038 100.377 405.908 101.658C404.774 102.938 403.398 103.959 401.778 104.722C400.156 105.485 398.336 105.865 396.317 105.865C394.359 105.865 392.6 105.469 391.041 104.676C389.48 103.883 388.164 102.831 387.094 101.52C386.023 100.209 385.197 98.7298 384.616 97.0836C384.035 95.4375 383.745 93.7312 383.745 91.9614C383.745 90.0116 384.035 88.1818 384.616 86.474C385.197 84.766 386.023 83.2876 387.094 82.0375C388.164 80.7869 389.48 79.7962 391.041 79.0647C392.6 78.3336 394.39 77.9666 396.409 77.9666C398.428 77.9666 400.232 78.3336 401.823 79.0647C403.414 79.7962 404.774 80.8027 405.908 82.0834C407.038 83.364 407.911 84.8578 408.523 86.564C409.134 88.272 409.44 90.0717 409.44 91.9614C409.44 93.7912 409.134 95.5452 408.523 97.2214V97.2214ZM409.44 70.258V76.865H409.257C407.665 74.1737 405.524 72.1849 402.833 70.9004C400.14 69.6154 397.235 68.9729 394.115 68.9729C390.811 68.9729 387.828 69.5853 385.167 70.8087C382.506 72.033 380.242 73.6847 378.376 75.7641C376.509 77.8446 375.073 80.2923 374.063 83.1055C373.053 85.9204 372.549 88.9188 372.549 92.0992C372.549 95.2194 373.068 98.172 374.109 100.955C375.149 103.74 376.601 106.172 378.468 108.251C380.333 110.331 382.612 111.983 385.305 113.206C387.996 114.429 390.995 115.042 394.299 115.042C397.357 115.042 400.126 114.47 402.604 113.327C405.081 112.184 407.115 110.531 408.707 108.367H408.89V111.591C408.89 113.802 408.661 115.828 408.202 117.67C407.743 119.511 406.977 121.109 405.908 122.459C404.836 123.81 403.398 124.868 401.594 125.637C399.789 126.404 397.571 126.789 394.941 126.789C392.188 126.789 389.465 126.252 386.773 125.182C384.151 124.14 381.792 122.646 379.694 120.705L373.191 129.083C374.598 130.244 376.188 131.285 377.963 132.203C379.737 133.12 381.588 133.885 383.516 134.497C385.443 135.108 387.4 135.567 389.389 135.874C391.376 136.179 393.257 136.332 395.032 136.332C399.314 136.332 403.017 135.72 406.137 134.497C409.257 133.272 411.841 131.545 413.892 129.312C415.94 127.078 417.455 124.356 418.434 121.145C419.412 117.933 419.903 114.338 419.903 110.361V70.258H409.44Z" fill="url(#paint11_linear)"/>
<defs>
<linearGradient id="paint0_linear" x1="71.8797" y1="0" x2="71.8797" y2="115.812" gradientUnits="userSpaceOnUse">
<stop stop-color="#2EBAC6"/>
<stop offset="1" stop-color="#B6509E"/>
</linearGradient>
<linearGradient id="paint1_linear" x1="74.5577" y1="22.8943" x2="74.5577" y2="139.909" gradientUnits="userSpaceOnUse">
<stop stop-color="#2EBAC6"/>
<stop offset="1" stop-color="#B6509E"/>
</linearGradient>
<linearGradient id="paint2_linear" x1="77.3836" y1="47.0603" x2="77.3836" y2="115.743" gradientUnits="userSpaceOnUse">
<stop stop-color="#2EBAC6"/>
<stop offset="1" stop-color="#B6509E"/>
</linearGradient>
<linearGradient id="paint3_linear" x1="181.122" y1="68.9729" x2="181.122" y2="114.308" gradientUnits="userSpaceOnUse">
<stop stop-color="#2EBAC6"/>
<stop offset="1" stop-color="#B6509E"/>
</linearGradient>
<linearGradient id="paint4_linear" x1="220.857" y1="57.5015" x2="220.857" y2="115.225" gradientUnits="userSpaceOnUse">
<stop stop-color="#2EBAC6"/>
<stop offset="1" stop-color="#B6509E"/>
</linearGradient>
<linearGradient id="paint5_linear" x1="255.364" y1="68.9729" x2="255.364" y2="114.308" gradientUnits="userSpaceOnUse">
<stop stop-color="#2EBAC6"/>
<stop offset="1" stop-color="#B6509E"/>
</linearGradient>
<linearGradient id="paint6_linear" x1="279.039" y1="48.6919" x2="279.039" y2="114.308" gradientUnits="userSpaceOnUse">
<stop stop-color="#2EBAC6"/>
<stop offset="1" stop-color="#B6509E"/>
</linearGradient>
<linearGradient id="paint7_linear" x1="306.297" y1="47.0493" x2="306.297" y2="114.308" gradientUnits="userSpaceOnUse">
<stop stop-color="#2EBAC6"/>
<stop offset="1" stop-color="#B6509E"/>
</linearGradient>
<linearGradient id="paint8_linear" x1="345.759" y1="70.2578" x2="345.759" y2="115.593" gradientUnits="userSpaceOnUse">
<stop stop-color="#2EBAC6"/>
<stop offset="1" stop-color="#B6509E"/>
</linearGradient>
<linearGradient id="paint9_linear" x1="131.572" y1="68.9729" x2="131.572" y2="115.593" gradientUnits="userSpaceOnUse">
<stop stop-color="#2EBAC6"/>
<stop offset="1" stop-color="#B6509E"/>
</linearGradient>
<linearGradient id="paint10_linear" x1="448.973" y1="68.9729" x2="448.973" y2="115.593" gradientUnits="userSpaceOnUse">
<stop stop-color="#2EBAC6"/>
<stop offset="1" stop-color="#B6509E"/>
</linearGradient>
<linearGradient id="paint11_linear" x1="396.226" y1="68.9729" x2="396.226" y2="136.332" gradientUnits="userSpaceOnUse">
<stop stop-color="#2EBAC6"/>
<stop offset="1" stop-color="#B6509E"/>
</linearGradient>
</defs>
</svg>
