<svg width="60" height="60" viewBox="0 0 60 60" fill="none" xmlns="http://www.w3.org/2000/svg"><path d="M0 0h59a1 1 0 011 1v58a1 1 0 01-1 1H0V0z" fill="#627EEA"/><path d="M10.153 46.028V47H6.38v-.972h3.774zm-3.428-6.137V47H5.5v-7.11h1.225zm2.935 2.968v.957H6.379v-.957H9.66zm.469-2.968v.976h-3.75v-.976h3.75zm3.848-.001V47H12.76v-7.11h1.216zm2.231 0v.977h-5.66v-.976h5.66zm5.435 2.97v.971h-3.775v-.972h3.775zm-3.472-2.97V47h-1.226v-7.11h1.226zm4.414 0V47h-1.22v-7.11h1.22zm5.913 6.138V47h-3.774v-.972h3.774zm-3.427-6.137V47h-1.226v-7.11h1.226zm2.934 2.968v.957h-3.281v-.957h3.281zm.469-2.968v.976h-3.75v-.976h3.75zm.826-.001h2.514c.54 0 1.001.082 1.382.245.38.163.672.403.874.722.205.316.308.707.308 1.172 0 .355-.066.668-.196.938-.13.27-.314.498-.552.683-.237.183-.52.324-.85.425l-.37.18h-2.261l-.01-.97h1.695c.293 0 .537-.053.732-.157a1.05 1.05 0 00.44-.425c.1-.182.15-.387.15-.615 0-.248-.048-.462-.146-.645a.943.943 0 00-.44-.424c-.198-.101-.45-.152-.756-.152h-1.289V47h-1.226v-7.11zM33.356 47l-1.67-3.193 1.284-.005 1.695 3.135V47h-1.309zm6.696-.972V47h-3.775v-.972h3.775zm-3.428-6.137V47h-1.226v-7.11h1.226zm2.934 2.968v.957h-3.28v-.957h3.28zm.47-2.968v.976h-3.75v-.976h3.75zm4.814-.001h1.22v4.752c0 .54-.117.992-.351 1.357-.234.365-.553.64-.957.825-.4.183-.848.274-1.343.274-.51 0-.967-.091-1.367-.274-.4-.185-.716-.46-.947-.825-.228-.365-.342-.817-.342-1.357V39.89h1.22v4.75c0 .342.06.624.176.845a1.1 1.1 0 00.498.484c.215.104.47.156.762.156.293 0 .545-.052.757-.156a1.1 1.1 0 00.498-.484c.117-.221.176-.503.176-.844V39.89zm2.852 0h1.093l2.056 5.484 2.05-5.483h1.094L51.273 47h-.87l-2.71-7.11zm-.498 0h1.04l.18 4.747V47h-1.22v-7.11zm6.25 0h1.044V47h-1.225v-2.363l.18-4.746z" fill="#fff"/><g clip-path="url(#clip0_1729_2070)" fill="#fff"><path d="M30.365 10v8.871l7.364 3.349L30.365 10z"/><path d="M30.365 10L23 22.22l7.365-3.348V10zm0 17.968l-.091.11v5.652l.09.265 7.37-10.378-7.37 4.35z"/><path d="M30.365 33.995v-6.027L23 23.616l7.365 10.379z"/><path d="M30.365 26.573l7.364-4.353-7.364-3.348v7.701z" fill-opacity=".6"/><path d="M23 22.22l7.365 4.353v-7.7L23 22.22z" fill-opacity=".6"/></g><defs><clipPath id="clip0_1729_2070"><path fill="#fff" transform="translate(23 10)" d="M0 0h14.734v24H0z"/></clipPath></defs></svg>