<svg width="60" height="60" viewBox="0 0 60 60" fill="none" xmlns="http://www.w3.org/2000/svg"><path d="M0 0h59a1 1 0 011 1v58a1 1 0 01-1 1H0V0z" fill="#26B7EA"/><path d="M14.985 44.167H12.22V47h-1.714v-7.11h4.756v1.323H12.22v1.636h2.764v1.318zm4.092 1.5h-2.35L16.318 47h-1.83l2.607-7.109h1.61L21.334 47h-1.841l-.415-1.333zm-1.938-1.323h1.528l-.767-2.462-.761 2.462zM27.788 47h-1.7l-2.52-4.424V47H21.85v-7.11h1.714l2.515 4.424V39.89h1.709V47zm6.524-5.786h-2.134V47h-1.714v-5.786h-2.095V39.89h5.943v1.323zm6.606 2.378a4.19 4.19 0 01-.386 1.841c-.237.511-.62.94-1.1 1.233a3.051 3.051 0 01-1.615.434 3.1 3.1 0 01-1.611-.42 2.846 2.846 0 01-1.1-1.194A4.072 4.072 0 0134.7 43.7v-.4a4.212 4.212 0 01.38-1.84c.237-.51.62-.94 1.1-1.233a3.075 3.075 0 011.629-.435 3.049 3.049 0 011.61.43 2.9 2.9 0 011.1 1.223c.272.568.41 1.19.4 1.82l-.001.327zm-1.743-.3a2.99 2.99 0 00-.354-1.609 1.135 1.135 0 00-1.013-.549c-.86 0-1.313.645-1.362 1.934v.522a3.075 3.075 0 00.34 1.61 1.135 1.135 0 001.03.562 1.12 1.12 0 001-.552 2.99 2.99 0 00.357-1.587l.002-.33zm4.878-3.4l1.587 4.945 1.582-4.946h2.256V47h-1.72v-1.66l.167-3.4-1.72 5.06h-1.132l-1.723-5.064.166 3.4V47H41.8v-7.11l2.253.001zM28.988 12.193a1.988 1.988 0 011.7 0l4.937 2.608a.835.835 0 01.48.62v13.1a.815.815 0 01-.485.682l-4.929 2.606a1.988 1.988 0 01-1.7 0L24.053 29.2a.806.806 0 01-.474-.682V15.419a.8.8 0 01.472-.62l4.937-2.606zm6.345 10.536l-4.642 2.452a1.988 1.988 0 01-1.7 0l-4.635-2.447v5.76l4.632 2.435c.253.16.538.26.835.295h.016c.29-.03.569-.122.817-.273l4.676-2.477.001-5.745zm-12.556 5.507c-.023.363.037.727.174 1.065.117.215.29.394.5.519l.015.01c.058.039.121.08.2.128l.091.056.28.169-.4.665-.314-.19-.053-.031c-.09-.056-.166-.1-.236-.151A2.253 2.253 0 0122 28.27v-.035h.777zm6.674-9.02a.712.712 0 00-.1.044l-4.935 2.606-.015.008h.008l.011.006 4.934 2.607a.7.7 0 00.1.043l-.003-5.313zm.777 0v5.32a.7.7 0 00.1-.042l4.934-2.607.015-.008h-.008l-.01-.006-4.93-2.614a.707.707 0 00-.1-.042zm5.105-2.867l-4.426 2.338 4.427 2.338v-4.676zm-10.977.005v4.666l4.416-2.333-4.416-2.333zm5.972-3.475a1.227 1.227 0 00-.977 0l-4.935 2.607-.016.008h.008l.011.006 4.932 2.614a1.226 1.226 0 00.977 0l4.934-2.607.015-.008h-.008l-.01-.006-4.93-2.614zm5.734.286l.314.189.053.032c.091.056.166.1.236.15a2.252 2.252 0 011.035 2.205v.035h-.777a2.415 2.415 0 00-.174-1.064 1.355 1.355 0 00-.5-.52l-.015-.01a5.001 5.001 0 00-.2-.127L35.94 14l-.28-.17.402-.666z" fill="#fff"/></svg>