<svg width="60" height="60" viewBox="0 0 60 60" fill="none" xmlns="http://www.w3.org/2000/svg"><path d="M0 0h59a1 1 0 011 1v58a1 1 0 01-1 1H0V0z" fill="#00E8A2"/><path d="M0 0h59a1 1 0 011 1v58a1 1 0 01-1 1H0V0z" fill="url(#paint0_linear_1726_1900)"/><path d="M12.17 43.208v1.028H8.83v-1.028h3.34zm-2.95-2.606V47H7.902v-6.398H9.22zm3.89 0V47h-1.314v-6.398h1.314zm4.027 1.094L15.397 47h-1.402l2.377-6.398h.893l-.128 1.094zM18.583 47l-1.745-5.304-.14-1.094h.9L19.99 47h-1.406zm-.08-2.382v1.033h-3.379v-1.033h3.38zm2.279-4.016h2.387c.489 0 .91.073 1.26.22.355.146.628.363.818.65.19.287.286.64.286 1.059 0 .343-.059.637-.176.883a1.656 1.656 0 01-.488.61c-.208.162-.452.29-.733.388l-.418.22h-2.074l-.009-1.029h1.542c.232 0 .424-.041.576-.123a.806.806 0 00.343-.343c.079-.146.119-.316.119-.51 0-.205-.038-.382-.115-.531a.771.771 0 00-.347-.343 1.28 1.28 0 00-.584-.119H22.1V47h-1.319v-6.398zM24.36 47l-1.46-2.852 1.394-.009 1.476 2.8V47h-1.41zm2.99-6.398h1.116l1.644 4.697 1.643-4.697h1.117L30.558 47h-.896l-2.312-6.398zm-.602 0h1.112l.202 4.579V47h-1.314v-6.398zm5.612 0h1.116V47h-1.318v-1.82l.202-4.578zm7.728 3.049v.304c0 .486-.066.922-.198 1.31a2.88 2.88 0 01-.558.988 2.42 2.42 0 01-.861.62 2.745 2.745 0 01-1.103.215c-.402 0-.77-.072-1.104-.215a2.472 2.472 0 01-.86-.62 2.895 2.895 0 01-.568-.989 4.044 4.044 0 01-.197-1.31v-.303c0-.489.065-.925.197-1.31.132-.386.318-.715.558-.988.244-.272.53-.48.862-.624a2.763 2.763 0 011.103-.215c.404 0 .772.071 1.103.215.334.144.62.352.861.624.243.273.43.602.563.989.134.384.202.82.202 1.31zm-1.332.304v-.312c0-.34-.03-.64-.092-.897a1.943 1.943 0 00-.273-.65 1.176 1.176 0 00-.439-.396 1.257 1.257 0 00-.593-.136c-.223 0-.42.045-.593.136-.17.088-.316.22-.436.396a2.005 2.005 0 00-.268.65 3.889 3.889 0 00-.092.897v.312c0 .337.03.635.092.896.062.258.153.476.273.655.12.176.266.309.44.4.172.09.37.136.593.136.222 0 .42-.045.593-.136.173-.091.318-.224.435-.4.117-.179.206-.397.268-.655.061-.26.092-.56.092-.896zm7.688-3.353V47h-1.318l-2.57-4.29V47h-1.32v-6.398h1.32l2.575 4.293v-4.293h1.313zm2.103 0l1.336 2.918 1.336-2.918h1.437l-2.105 4.069V47h-1.336v-2.33l-2.11-4.068h1.442zM36.286 11c-2.597 0-4.715 2.124-4.783 4.729v5.277c-.478 0-.956.068-1.503.068-.547 0-1.025 0-1.503.069v-5.414c0-2.604-2.186-4.729-4.851-4.66-2.528 0-4.578 2.124-4.646 4.66v12.61c.068 2.604 2.186 4.728 4.85 4.66 2.597-.07 4.647-2.125 4.647-4.66v-5.277c.478 0 .956-.07 1.503-.07.547 0 1.025 0 1.503-.068v5.346c.068 2.604 2.186 4.728 4.851 4.66C38.95 32.86 41 30.805 41 28.27V15.729C41 13.125 38.882 11 36.286 11zm-12.503 1.919c1.571 0 2.8 1.233 2.8 2.81v5.55c-1.366.206-2.732.617-4.03 1.166-.547.274-1.093.548-1.572.96v-7.676c0-1.508 1.23-2.81 2.802-2.81zm2.8 15.42c0 1.576-1.229 2.809-2.8 2.809-1.572 0-2.802-1.233-2.802-2.81v-1.233c0-1.097.889-2.193 2.392-2.81 1.024-.48 2.118-.754 3.28-.96l-.07 5.003zm9.703 2.809c-1.572 0-2.802-1.233-2.802-2.81v-5.55c1.367-.206 2.733-.617 4.032-1.166.546-.274 1.093-.548 1.571-.96v7.676a2.818 2.818 0 01-2.801 2.81zm.41-11.308c-1.025.48-2.118.754-3.28.96v-5.071c0-1.577 1.23-2.81 2.801-2.81 1.572 0 2.802 1.233 2.802 2.81v1.233c.068 1.165-.82 2.193-2.323 2.878z" fill="#fff"/><defs><linearGradient id="paint0_linear_1726_1900" x1="30" y1="0" x2="-11.493" y2="41.367" gradientUnits="userSpaceOnUse"><stop stop-color="#00E8A2"/><stop offset="1" stop-color="#00ADE8"/></linearGradient></defs></svg>