<svg width="60" height="60" viewBox="0 0 60 60" fill="none" xmlns="http://www.w3.org/2000/svg"><path d="M0 0h59a1 1 0 011 1v58a1 1 0 01-1 1H0V0z" fill="#FE4A48"/><path fill-rule="evenodd" clip-rule="evenodd" d="M13.083 31.444C14.491 32.481 16.296 33 18.5 33c2.667 0 4.796-.62 6.389-1.861 1.593-1.26 2.713-3.157 3.361-5.695a62.883 62.883 0 001-4.805 9.865 9.865 0 00.139-1.472c0-1.297-.324-2.408-.972-3.334-.648-.944-1.537-1.648-2.667-2.11-1.13-.482-2.407-.723-3.833-.723-5.241 0-8.491 2.546-9.75 7.639a92.1 92.1 0 00-1.028 4.805 9.99 9.99 0 00-.139 1.5c0 1.945.694 3.445 2.083 4.5zm8.445-3.36c-.723.61-1.602.916-2.64.916-1.777 0-2.666-.852-2.666-2.556 0-.407.037-.796.111-1.166.334-1.796.667-3.315 1-4.556.315-1.259.834-2.194 1.556-2.806.74-.61 1.63-.916 2.667-.916 1.759 0 2.639.843 2.639 2.528 0 .407-.038.805-.112 1.194a67.59 67.59 0 01-.972 4.556c-.315 1.259-.842 2.194-1.583 2.805zm8.664 4.444c.111.13.269.194.472.194h3.778a.847.847 0 00.528-.194.796.796 0 00.306-.5l1.277-6.084h3.75c2.426 0 4.334-.509 5.723-1.527 1.407-1.019 2.342-2.593 2.805-4.723.111-.5.167-.981.167-1.444 0-1.611-.63-2.843-1.89-3.695-1.24-.851-2.888-1.277-4.944-1.277h-7.389a.847.847 0 00-.527.194.795.795 0 00-.306.5L30.11 32.028a.664.664 0 00.083.5zm12.334-11.056c-.575.426-1.25.64-2.028.64h-3.195l1.056-4.973h3.333c.76 0 1.296.148 1.611.444.315.278.473.685.473 1.223 0 .24-.028.518-.084.833-.185.796-.574 1.407-1.166 1.833z" fill="#fff"/><path d="M15.43 44.274a3.352 3.352 0 01-.31 1.473c-.188.408-.493.75-.876.986-.391.234-.84.353-1.295.346a2.475 2.475 0 01-1.29-.334 2.278 2.278 0 01-.876-.955 3.258 3.258 0 01-.33-1.426v-.32a3.37 3.37 0 01.307-1.475c.189-.409.495-.752.879-.986a2.46 2.46 0 011.3-.348c.453-.008.9.111 1.289.344.382.234.688.574.88.979.217.454.326.952.319 1.455l.003.26zm-1.395-.238a2.391 2.391 0 00-.283-1.287.908.908 0 00-.811-.44c-.688 0-1.05.516-1.09 1.548v.418c-.026.445.07.89.277 1.285a.907.907 0 00.824.449.9.9 0 00.8-.441c.21-.39.309-.829.285-1.27l-.002-.262zm3.473 1.035V47h-1.371v-5.687h2.27a2.64 2.64 0 011.154.24 1.81 1.81 0 011.052 1.69 1.646 1.646 0 01-.6 1.33 2.472 2.472 0 01-1.635.5l-.87-.003zm0-1.06h.9a.847.847 0 00.607-.2.739.739 0 00.209-.561.915.915 0 00-.215-.637.759.759 0 00-.586-.242h-.914l-.001 1.64zm8.3-1.64H24.1V47h-1.37v-4.63h-1.675v-1.057h4.754l-.001 1.057zm2.04 4.63H26.48v-5.687h1.367V47zm2.752-5.687l1.27 3.957 1.267-3.957h1.8V47h-1.371v-1.328l.134-2.72L32.324 47h-.906l-1.38-4.051.134 2.723V47H28.8v-5.687h1.8zM37.273 47h-1.367v-5.687h1.367V47zm3.887-1.512a.562.562 0 00-.213-.47 2.646 2.646 0 00-.748-.347 7.187 7.187 0 01-.875-.348 1.658 1.658 0 01-1.105-1.491 1.33 1.33 0 01.275-.832c.203-.255.473-.45.779-.562a3.035 3.035 0 011.133-.2 2.65 2.65 0 011.1.219c.306.13.569.347.756.623.181.273.275.595.27.924h-1.368a.687.687 0 00-.213-.54.83.83 0 00-.576-.19.936.936 0 00-.58.162.501.501 0 00-.213.412.502.502 0 00.234.4c.254.163.532.287.824.367.336.102.66.238.969.408a1.629 1.629 0 01.922 1.465 1.39 1.39 0 01-.562 1.172 2.5 2.5 0 01-1.543.426 3.06 3.06 0 01-1.252-.256 1.888 1.888 0 01-.844-.68 1.771 1.771 0 01-.283-.994h1.375a.873.873 0 00.236.674c.22.164.494.241.768.217.19.01.378-.04.537-.146a.483.483 0 00.197-.413zm3.875-4.176L46.3 45.27l1.27-3.957h1.8V47H48v-1.328l.133-2.72L46.758 47h-.906l-1.38-4.051.134 2.723V47h-1.372v-5.687l1.8-.001z" fill="#fff"/></svg>