<svg width="61" height="8" viewBox="0 0 61 8" xmlns="http://www.w3.org/2000/svg"><path d="M3.231 0c.68 0 1.273.114 1.778.343.505.228.892.556 1.161.983.27.426.404.933.404 1.52 0 .602-.144 1.12-.432 1.554-.288.434-.701.758-1.24.971L6.708 8h-1.57L3.534 5.657a2.935 2.935 0 01-.303.012H1.459V8H0V3.93l1.458-.222v.738h1.706c.635 0 1.118-.14 1.447-.417.329-.279.493-.673.493-1.183s-.164-.903-.493-1.177c-.33-.275-.812-.412-1.447-.412H1.459l-.001 1.511L0 2.546V0h3.231zm11.464 6.149H10.77L9.995 8H8.492l3.533-8h1.436l3.545 8H15.48l-.785-1.851zm-.482-1.166l-1.48-3.497-1.47 3.497h2.95zM22.839 0c.837 0 1.581.166 2.232.497.65.332 1.155.8 1.514 1.406.36.606.539 1.305.539 2.097s-.18 1.491-.539 2.097a3.637 3.637 0 01-1.514 1.406c-.65.331-1.395.497-2.232.497h-3.433V3.932l1.458-.222v3.033h1.908c.575 0 1.082-.113 1.52-.337a2.386 2.386 0 001.009-.96c.236-.416.353-.897.353-1.446 0-.549-.117-1.03-.353-1.446a2.386 2.386 0 00-1.01-.96c-.437-.224-.944-.337-1.52-.337h-1.906l-.001 1.509-1.458-.222V0h3.433zm7.235 0h1.458v8h-1.458zm10.073 6.149h-3.926L35.447 8h-1.503l3.533-8h1.436l3.545 8h-1.526l-.785-1.851zm-.482-1.166l-1.48-3.497-1.47 3.497h2.95zM51.835 0v8h-1.2l-4.33-5.417V8h-1.447V0h1.2l4.33 5.417V0zm5.105 1.257h-2.603V0H61v1.257h-2.602V8h-1.459z" fill="#FFF"/></svg>