<svg width="45" height="16" viewBox="0 0 45 16" fill="none" xmlns="http://www.w3.org/2000/svg">
<path d="M29.1622 1.68131L28.8236 2.75468C28.0562 5.23257 27.2436 7.79039 26.4536 10.314C26.1037 11.4558 25.7425 12.5178 25.3927 13.6026L25.1444 14.3791C25.0799 14.5891 24.9512 14.7731 24.7767 14.9044C24.6023 15.0357 24.3912 15.1077 24.1738 15.1099C23.9876 15.1054 23.8054 15.0544 23.6434 14.9614C23.3764 14.7948 23.1857 14.5279 23.1129 14.2192L22.4696 12.2437C22.1536 11.2389 21.8263 10.234 21.499 9.22916C21.1718 10.234 20.8557 11.2389 20.5285 12.2437C20.314 12.8946 20.1109 13.5569 19.8965 14.2192C19.8145 14.5267 19.621 14.7917 19.3547 14.9614C19.1927 15.0544 19.0105 15.1054 18.8243 15.1099C18.6075 15.1107 18.3963 15.0397 18.2231 14.9078C18.0499 14.7758 17.9241 14.5901 17.865 14.3791L17.6054 13.6026C17.2555 12.4607 16.8944 11.4102 16.5445 10.314L14.1632 2.75468L13.8246 1.68131C13.7698 1.52838 13.7525 1.36426 13.7742 1.20307C13.7959 1.04188 13.8559 0.88842 13.9492 0.755888C14.0424 0.623357 14.1661 0.515713 14.3095 0.442206C14.4529 0.368699 14.6119 0.331527 14.7726 0.333884C14.9901 0.336069 15.2012 0.408005 15.3756 0.539335C15.55 0.670666 15.6787 0.854613 15.7432 1.06469C15.8787 1.46435 16.0028 1.87543 16.127 2.26367C16.1947 2.46921 16.2624 2.67475 16.3188 2.8917C17.1653 5.52946 18.0004 8.17863 18.8469 10.8849L19.05 10.234L19.2644 9.60598C19.6707 8.37275 20.0996 7.08242 20.5285 5.82635C20.5932 5.6308 20.7178 5.46119 20.8842 5.34211C21.0506 5.22303 21.2501 5.16066 21.4539 5.16405H21.5442C21.7491 5.16173 21.9496 5.22435 22.1176 5.34311C22.2856 5.46188 22.4126 5.63086 22.4809 5.82635L23.7337 9.60598L23.9481 10.234C24.0158 10.451 24.0835 10.6565 24.1625 10.8849C24.9977 8.23572 25.8441 5.58655 26.6793 2.9488C26.747 2.73184 26.8034 2.5263 26.8711 2.32076C26.9953 1.93252 27.1194 1.52144 27.2549 1.12178C27.3091 0.901086 27.4335 0.704496 27.6088 0.562173C27.7841 0.419849 28.0007 0.339652 28.2254 0.333884C28.3853 0.333385 28.5428 0.371918 28.6848 0.44621C28.8268 0.520502 28.9489 0.628358 29.0408 0.760621C29.1328 0.892883 29.1918 1.04564 29.213 1.20593C29.2341 1.36621 29.2167 1.52929 29.1622 1.68131ZM44.6351 14.1507C44.6418 14.4048 44.5484 14.6513 44.3756 14.8358C44.2801 14.929 44.1667 15.0014 44.0425 15.0486C43.9183 15.0957 43.7858 15.1166 43.6533 15.1099C43.4546 15.1091 43.2611 15.0452 43.1003 14.9272C42.9258 14.814 42.7884 14.6511 42.7053 14.459L37.525 2.24083L35.6064 6.72844H36.5206C36.7701 6.72226 37.012 6.81593 37.1937 6.98909C37.3755 7.16226 37.4823 7.40095 37.4912 7.65336C37.4883 7.77883 37.4608 7.90246 37.4103 8.01708C37.3597 8.1317 37.2872 8.23503 37.1969 8.32108C37.1067 8.40712 37.0004 8.47417 36.8843 8.51832C36.7682 8.56248 36.6445 8.58286 36.5206 8.57829H34.8503L32.3787 14.4362C32.2918 14.6259 32.1552 14.7878 31.9837 14.9043C31.8218 15.0204 31.629 15.084 31.4306 15.087C31.298 15.0951 31.1651 15.0749 31.0407 15.0277C30.9163 14.9805 30.803 14.9073 30.7083 14.813C30.6206 14.7231 30.5523 14.6159 30.5076 14.4979C30.4629 14.38 30.4429 14.254 30.4488 14.1278C30.4316 14.0067 30.4316 13.8836 30.4488 13.7624L32.706 8.57829H31.7579C31.5073 8.58454 31.2641 8.49123 31.0806 8.31836C30.8971 8.14549 30.7878 7.90678 30.7761 7.65336C30.7878 7.39994 30.8971 7.16124 31.0806 6.98837C31.2641 6.81549 31.5073 6.72219 31.7579 6.72844H33.575L35.9337 1.29307C36.0353 1.01219 36.2197 0.769619 36.4619 0.598095C36.704 0.42657 36.9924 0.334351 37.288 0.333884H37.762C38.0588 0.335247 38.3482 0.427654 38.5921 0.598905C38.8359 0.770156 39.0226 1.0122 39.1276 1.29307L44.5336 13.7739C44.5917 13.8914 44.6263 14.0195 44.6351 14.1507ZM6.60165 8.52119H5.13448L10.4501 13.3742C10.5444 13.4658 10.6193 13.5758 10.6705 13.6974C10.7217 13.8191 10.7481 13.9499 10.7481 14.0822C10.7481 14.2144 10.7217 14.3453 10.6705 14.4669C10.6193 14.5886 10.5444 14.6985 10.4501 14.7901C10.2551 14.9773 9.99662 15.0816 9.72785 15.0816C9.45908 15.0816 9.20055 14.9773 9.00555 14.7901L2.30172 8.66964L2.21144 8.56687C2.21144 10.4852 2.21144 11.9354 2.21144 13.9566C2.22445 14.1792 2.16386 14.4 2.03922 14.584C1.91457 14.768 1.73296 14.9048 1.52299 14.9728C1.42784 15.0039 1.3293 15.023 1.22956 15.0299C1.09726 15.0347 0.965331 15.0129 0.841373 14.9659C0.717414 14.9188 0.603868 14.8475 0.507263 14.7559C0.404646 14.6554 0.323619 14.5346 0.269246 14.401C0.214873 14.2674 0.188325 14.1239 0.191259 13.9794C0.191259 10.2683 0.191259 7.2537 0.191259 3.54258V1.81833C0.191259 1.65847 0.191259 1.48719 0.191259 1.3159C0.19705 1.16608 0.239201 1.02 0.313995 0.890554C0.388789 0.761111 0.493924 0.652284 0.620123 0.57368C0.801537 0.422361 1.02834 0.337819 1.26342 0.333884H6.60165C7.14209 0.324819 7.67898 0.423749 8.18155 0.625004C8.68413 0.826259 9.14251 1.12588 9.53043 1.5067C9.91835 1.88752 10.2282 2.34206 10.4422 2.84425C10.6562 3.34644 10.7701 3.88642 10.7774 4.43325C10.7686 4.9791 10.6536 5.51786 10.439 6.01873C10.2243 6.51961 9.91426 6.9728 9.52649 7.35241C9.13872 7.73203 8.68083 8.03063 8.17898 8.23117C7.67713 8.43172 7.14115 8.53027 6.60165 8.52119ZM6.60165 6.51148C6.87881 6.51601 7.15414 6.46526 7.41191 6.36212C7.66968 6.25898 7.90484 6.10547 8.10397 5.91036C8.3031 5.71525 8.46228 5.48236 8.57244 5.225C8.6826 4.96764 8.74156 4.69084 8.74597 4.41041C8.74156 4.12999 8.6826 3.85319 8.57244 3.59582C8.46228 3.33846 8.3031 3.10557 8.10397 2.91046C7.90484 2.71535 7.66968 2.56184 7.41191 2.4587C7.15414 2.35556 6.87881 2.30481 6.60165 2.30934H2.21144V6.51148H6.60165Z" fill="black"/>
<path d="M29.1622 1.68131L28.8236 2.75468C28.0562 5.23257 27.2436 7.79039 26.4536 10.314C26.1037 11.4558 25.7425 12.5178 25.3927 13.6026L25.1444 14.3791C25.0799 14.5891 24.9512 14.7731 24.7767 14.9044C24.6023 15.0357 24.3912 15.1077 24.1738 15.1099C23.9876 15.1054 23.8054 15.0544 23.6434 14.9614C23.3764 14.7948 23.1857 14.5279 23.1129 14.2192L22.4696 12.2437C22.1536 11.2389 21.8263 10.234 21.499 9.22916C21.1718 10.234 20.8557 11.2389 20.5285 12.2437C20.314 12.8946 20.1109 13.5569 19.8965 14.2192C19.8145 14.5267 19.621 14.7917 19.3547 14.9614C19.1927 15.0544 19.0105 15.1054 18.8243 15.1099C18.6075 15.1107 18.3963 15.0397 18.2231 14.9078C18.0499 14.7758 17.9241 14.5901 17.865 14.3791L17.6054 13.6026C17.2555 12.4607 16.8944 11.4102 16.5445 10.314L14.1632 2.75468L13.8246 1.68131C13.7698 1.52838 13.7525 1.36426 13.7742 1.20307C13.7959 1.04188 13.8559 0.88842 13.9492 0.755888C14.0424 0.623357 14.1661 0.515713 14.3095 0.442206C14.4529 0.368699 14.6119 0.331527 14.7726 0.333884C14.9901 0.336069 15.2012 0.408005 15.3756 0.539335C15.55 0.670666 15.6787 0.854613 15.7432 1.06469C15.8787 1.46435 16.0028 1.87543 16.127 2.26367C16.1947 2.46921 16.2624 2.67475 16.3188 2.8917C17.1653 5.52946 18.0004 8.17863 18.8469 10.8849L19.05 10.234L19.2644 9.60598C19.6707 8.37275 20.0996 7.08242 20.5285 5.82635C20.5932 5.6308 20.7178 5.46119 20.8842 5.34211C21.0506 5.22303 21.2501 5.16066 21.4539 5.16405H21.5442C21.7491 5.16173 21.9496 5.22435 22.1176 5.34311C22.2856 5.46188 22.4126 5.63086 22.4809 5.82635L23.7337 9.60598L23.9481 10.234C24.0158 10.451 24.0835 10.6565 24.1625 10.8849C24.9977 8.23572 25.8441 5.58655 26.6793 2.9488C26.747 2.73184 26.8034 2.5263 26.8711 2.32076C26.9953 1.93252 27.1194 1.52144 27.2549 1.12178C27.3091 0.901086 27.4335 0.704496 27.6088 0.562173C27.7841 0.419849 28.0007 0.339652 28.2254 0.333884C28.3853 0.333385 28.5428 0.371918 28.6848 0.44621C28.8268 0.520502 28.9489 0.628358 29.0408 0.760621C29.1328 0.892883 29.1918 1.04564 29.213 1.20593C29.2341 1.36621 29.2167 1.52929 29.1622 1.68131ZM44.6351 14.1507C44.6418 14.4048 44.5484 14.6513 44.3756 14.8358C44.2801 14.929 44.1667 15.0014 44.0425 15.0486C43.9183 15.0957 43.7858 15.1166 43.6533 15.1099C43.4546 15.1091 43.2611 15.0452 43.1003 14.9272C42.9258 14.814 42.7884 14.6511 42.7053 14.459L37.525 2.24083L35.6064 6.72844H36.5206C36.7701 6.72226 37.012 6.81593 37.1937 6.98909C37.3755 7.16226 37.4823 7.40095 37.4912 7.65336C37.4883 7.77883 37.4608 7.90246 37.4103 8.01708C37.3597 8.1317 37.2872 8.23503 37.1969 8.32108C37.1067 8.40712 37.0004 8.47417 36.8843 8.51832C36.7682 8.56248 36.6445 8.58286 36.5206 8.57829H34.8503L32.3787 14.4362C32.2918 14.6259 32.1552 14.7878 31.9837 14.9043C31.8218 15.0204 31.629 15.084 31.4306 15.087C31.298 15.0951 31.1651 15.0749 31.0407 15.0277C30.9163 14.9805 30.803 14.9073 30.7083 14.813C30.6206 14.7231 30.5523 14.6159 30.5076 14.4979C30.4629 14.38 30.4429 14.254 30.4488 14.1278C30.4316 14.0067 30.4316 13.8836 30.4488 13.7624L32.706 8.57829H31.7579C31.5073 8.58454 31.2641 8.49123 31.0806 8.31836C30.8971 8.14549 30.7878 7.90678 30.7761 7.65336C30.7878 7.39994 30.8971 7.16124 31.0806 6.98837C31.2641 6.81549 31.5073 6.72219 31.7579 6.72844H33.575L35.9337 1.29307C36.0353 1.01219 36.2197 0.769619 36.4619 0.598095C36.704 0.42657 36.9924 0.334351 37.288 0.333884H37.762C38.0588 0.335247 38.3482 0.427654 38.5921 0.598905C38.8359 0.770156 39.0226 1.0122 39.1276 1.29307L44.5336 13.7739C44.5917 13.8914 44.6263 14.0195 44.6351 14.1507ZM6.60165 8.52119H5.13448L10.4501 13.3742C10.5444 13.4658 10.6193 13.5758 10.6705 13.6974C10.7217 13.8191 10.7481 13.9499 10.7481 14.0822C10.7481 14.2144 10.7217 14.3453 10.6705 14.4669C10.6193 14.5886 10.5444 14.6985 10.4501 14.7901C10.2551 14.9773 9.99662 15.0816 9.72785 15.0816C9.45908 15.0816 9.20055 14.9773 9.00555 14.7901L2.30172 8.66964L2.21144 8.56687C2.21144 10.4852 2.21144 11.9354 2.21144 13.9566C2.22445 14.1792 2.16386 14.4 2.03922 14.584C1.91457 14.768 1.73296 14.9048 1.52299 14.9728C1.42784 15.0039 1.3293 15.023 1.22956 15.0299C1.09726 15.0347 0.965331 15.0129 0.841373 14.9659C0.717414 14.9188 0.603868 14.8475 0.507263 14.7559C0.404646 14.6554 0.323619 14.5346 0.269246 14.401C0.214873 14.2674 0.188325 14.1239 0.191259 13.9794C0.191259 10.2683 0.191259 7.2537 0.191259 3.54258V1.81833C0.191259 1.65847 0.191259 1.48719 0.191259 1.3159C0.19705 1.16608 0.239201 1.02 0.313995 0.890554C0.388789 0.761111 0.493924 0.652284 0.620123 0.57368C0.801537 0.422361 1.02834 0.337819 1.26342 0.333884H6.60165C7.14209 0.324819 7.67898 0.423749 8.18155 0.625004C8.68413 0.826259 9.14251 1.12588 9.53043 1.5067C9.91835 1.88752 10.2282 2.34206 10.4422 2.84425C10.6562 3.34644 10.7701 3.88642 10.7774 4.43325C10.7686 4.9791 10.6536 5.51786 10.439 6.01873C10.2243 6.51961 9.91426 6.9728 9.52649 7.35241C9.13872 7.73203 8.68083 8.03063 8.17898 8.23117C7.67713 8.43172 7.14115 8.53027 6.60165 8.52119ZM6.60165 6.51148C6.87881 6.51601 7.15414 6.46526 7.41191 6.36212C7.66968 6.25898 7.90484 6.10547 8.10397 5.91036C8.3031 5.71525 8.46228 5.48236 8.57244 5.225C8.6826 4.96764 8.74156 4.69084 8.74597 4.41041C8.74156 4.12999 8.6826 3.85319 8.57244 3.59582C8.46228 3.33846 8.3031 3.10557 8.10397 2.91046C7.90484 2.71535 7.66968 2.56184 7.41191 2.4587C7.15414 2.35556 6.87881 2.30481 6.60165 2.30934H2.21144V6.51148H6.60165Z" fill="black" fill-opacity="0.2"/>
</svg>
