<svg width="127" height="29" viewBox="0 0 127 29" fill="none" xmlns="http://www.w3.org/2000/svg">
<path d="M0.12 0.68H9.96C11.2933 0.68 12.5867 0.826666 13.84 1.12C15.0933 1.38667 16.2 1.84 17.16 2.48C18.1467 3.12 18.9333 3.96 19.52 5C20.1067 6.04 20.4 7.30667 20.4 8.8C20.4 10.8533 19.8133 12.5333 18.64 13.84C17.4933 15.12 15.92 15.9867 13.92 16.44L21.48 29H15.4L8.84 17H5.16V29H0.12V0.68ZM9.28 12.88C10 12.88 10.72 12.8267 11.44 12.72C12.16 12.6133 12.8 12.4133 13.36 12.12C13.9467 11.8267 14.4267 11.4133 14.8 10.88C15.1733 10.32 15.36 9.61333 15.36 8.76C15.36 7.98667 15.1867 7.36 14.84 6.88C14.4933 6.37333 14.0533 5.97333 13.52 5.68C12.9867 5.38667 12.3733 5.18666 11.68 5.08C11.0133 4.97333 10.36 4.92 9.72 4.92H5.16V12.88H9.28ZM40.3963 0.68H45.9163L51.3963 21.48H51.4763L57.7163 0.68H62.9163L69.0363 21.48H69.1163L74.7163 0.68H80.0763L71.7963 29H66.9163L60.2763 7.76H60.1963L53.5563 29H48.6763L40.3963 0.68ZM109.844 0.68H114.204L126.404 29H120.644L118.004 22.52H105.724L103.164 29H97.5237L109.844 0.68ZM116.244 18.2L111.884 6.68L107.444 18.2H116.244Z" fill="black"/>
</svg>
