<svg width="39" height="13" viewBox="0 0 39 13" fill="none" xmlns="http://www.w3.org/2000/svg">
<path d="M25.2762 1.46847L24.9918 2.37236C24.3471 4.459 23.6646 6.61295 23.0009 8.73806C22.7071 9.69965 22.4037 10.5939 22.1098 11.5074L21.9012 12.1613C21.8471 12.3382 21.7389 12.4931 21.5924 12.6037C21.4459 12.7143 21.2686 12.7749 21.086 12.7767C20.9295 12.773 20.7765 12.73 20.6404 12.6517C20.4162 12.5114 20.2559 12.2866 20.1948 12.0267L19.6544 10.3631C19.389 9.51695 19.1141 8.67075 18.8392 7.82455C18.5642 8.67075 18.2988 9.51695 18.0239 10.3631C17.8437 10.9112 17.6731 11.469 17.493 12.0267C17.4241 12.2856 17.2616 12.5088 17.0379 12.6517C16.9018 12.73 16.7488 12.773 16.5924 12.7767C16.4102 12.7774 16.2329 12.7177 16.0874 12.6065C15.9419 12.4954 15.8362 12.339 15.7865 12.1613L15.5685 11.5074C15.2746 10.5458 14.9712 9.66118 14.6774 8.73806L12.6771 2.37236L12.3926 1.46847C12.3466 1.33968 12.332 1.20148 12.3503 1.06574C12.3685 0.929997 12.4189 0.800771 12.4973 0.689166C12.5756 0.577561 12.6795 0.486913 12.7999 0.425012C12.9204 0.363112 13.0539 0.331809 13.189 0.333794C13.3716 0.335633 13.5489 0.396212 13.6954 0.506806C13.842 0.617399 13.9501 0.772302 14.0043 0.949209C14.118 1.28576 14.2223 1.63194 14.3266 1.95888C14.3835 2.13196 14.4404 2.30505 14.4878 2.48775C15.1988 4.70901 15.9003 6.93989 16.6113 9.21885L16.782 8.67075L16.9621 8.14188C17.3034 7.10336 17.6636 6.01677 18.0239 4.95903C18.0782 4.79436 18.1829 4.65153 18.3226 4.55125C18.4624 4.45097 18.6301 4.39845 18.8012 4.40131H18.8771C19.0492 4.39935 19.2176 4.45208 19.3587 4.55209C19.4998 4.65211 19.6066 4.7944 19.6639 4.95903L20.7162 8.14188L20.8963 8.67075C20.9532 8.85345 21.0101 9.02654 21.0765 9.21885C21.778 6.98797 22.489 4.75709 23.1905 2.53583C23.2474 2.35313 23.2948 2.18004 23.3517 2.00695C23.456 1.68002 23.5603 1.33384 23.674 0.997289C23.7196 0.811438 23.8241 0.645888 23.9713 0.526037C24.1186 0.406185 24.3006 0.338651 24.4893 0.333794C24.6236 0.333374 24.7559 0.365822 24.8752 0.428384C24.9944 0.490946 25.097 0.581772 25.1743 0.693151C25.2515 0.80453 25.3011 0.93317 25.3188 1.06815C25.3366 1.20312 25.322 1.34045 25.2762 1.46847ZM38.2735 11.969C38.2791 12.183 38.2006 12.3905 38.0554 12.5459C37.9752 12.6244 37.88 12.6854 37.7756 12.7251C37.6713 12.7648 37.56 12.7824 37.4487 12.7767C37.2818 12.7761 37.1193 12.7223 36.9842 12.6229C36.8376 12.5276 36.7222 12.3904 36.6524 12.2286L32.301 1.93964L30.6894 5.71868H31.4572C31.6669 5.71348 31.8701 5.79236 32.0227 5.93818C32.1753 6.08401 32.2651 6.28501 32.2725 6.49756C32.2701 6.60322 32.247 6.70733 32.2046 6.80385C32.1621 6.90038 32.1012 6.98739 32.0254 7.05985C31.9495 7.13231 31.8603 7.18877 31.7627 7.22595C31.6652 7.26313 31.5614 7.2803 31.4572 7.27645H30.0542L27.978 12.2094C27.9051 12.3691 27.7903 12.5055 27.6462 12.6036C27.5103 12.7013 27.3483 12.755 27.1817 12.7575C27.0703 12.7643 26.9587 12.7473 26.8541 12.7075C26.7496 12.6678 26.6545 12.6062 26.575 12.5267C26.5013 12.4511 26.4439 12.3607 26.4063 12.2614C26.3688 12.1621 26.352 12.056 26.3569 11.9498C26.3425 11.8477 26.3425 11.7441 26.3569 11.6421L28.253 7.27645H27.4566C27.2461 7.28171 27.0418 7.20314 26.8877 7.05756C26.7335 6.91198 26.6417 6.71097 26.6318 6.49756C26.6417 6.28416 26.7335 6.08315 26.8877 5.93757C27.0418 5.79199 27.2461 5.71342 27.4566 5.71868H28.9829L30.9643 1.14153C31.0496 0.904999 31.2045 0.700729 31.4079 0.556287C31.6114 0.411846 31.8536 0.334187 32.1019 0.333794H32.5001C32.7494 0.334942 32.9925 0.412758 33.1973 0.556969C33.4021 0.701181 33.5589 0.905004 33.6472 1.14153L38.1882 11.6517C38.237 11.7507 38.266 11.8585 38.2735 11.969ZM6.32534 7.22837H5.09292L9.55808 11.3151C9.63722 11.3923 9.70018 11.4849 9.74319 11.5873C9.7862 11.6897 9.80837 11.8 9.80837 11.9113C9.80837 12.0226 9.7862 12.1328 9.74319 12.2353C9.70018 12.3377 9.63722 12.4303 9.55808 12.5075C9.39427 12.6651 9.17711 12.7529 8.95135 12.7529C8.72558 12.7529 8.50842 12.6651 8.34462 12.5075L2.7134 7.35338L2.63756 7.26683C2.63756 8.8823 2.63756 10.1035 2.63756 11.8055C2.64849 11.993 2.5976 12.1789 2.4929 12.3339C2.3882 12.4888 2.23564 12.604 2.05927 12.6613C1.97934 12.6875 1.89657 12.7036 1.81279 12.7094C1.70165 12.7134 1.59083 12.6951 1.48671 12.6555C1.38258 12.6159 1.28721 12.5558 1.20606 12.4786C1.11986 12.394 1.0518 12.2923 1.00612 12.1798C0.96045 12.0673 0.938149 11.9464 0.940614 11.8248C0.940614 8.6996 0.940614 6.16101 0.940614 3.03585V1.58386C0.940614 1.44923 0.940614 1.305 0.940614 1.16076C0.945478 1.03459 0.980885 0.911574 1.04371 0.802569C1.10654 0.693563 1.19485 0.60192 1.30086 0.535727C1.45325 0.408301 1.64376 0.337107 1.84123 0.333794H6.32534C6.77931 0.32616 7.2303 0.409469 7.65246 0.578947C8.07462 0.748425 8.45967 1.00074 8.78552 1.32143C9.11137 1.64212 9.37163 2.02489 9.55138 2.44779C9.73112 2.87068 9.82683 3.32541 9.833 3.78589C9.82559 4.24556 9.72898 4.69924 9.54869 5.12103C9.36839 5.54282 9.10794 5.92446 8.78221 6.24413C8.45648 6.56381 8.07185 6.81526 7.6503 6.98414C7.22875 7.15302 6.77852 7.23601 6.32534 7.22837ZM6.32534 5.53598C6.55816 5.5398 6.78943 5.49706 7.00596 5.4102C7.22249 5.32335 7.42002 5.19408 7.58729 5.02977C7.75456 4.86547 7.88827 4.66936 7.9808 4.45263C8.07334 4.2359 8.12287 4.00281 8.12657 3.76666C8.12287 3.53051 8.07334 3.29742 7.9808 3.08069C7.88827 2.86396 7.75456 2.66785 7.58729 2.50354C7.42002 2.33924 7.22249 2.20997 7.00596 2.12311C6.78943 2.03626 6.55816 1.99352 6.32534 1.99734H2.63756V5.53598H6.32534Z" fill="black"/>
<path d="M25.2762 1.46847L24.9918 2.37236C24.3471 4.459 23.6646 6.61295 23.0009 8.73806C22.7071 9.69965 22.4037 10.5939 22.1098 11.5074L21.9012 12.1613C21.8471 12.3382 21.7389 12.4931 21.5924 12.6037C21.4459 12.7143 21.2686 12.7749 21.086 12.7767C20.9295 12.773 20.7765 12.73 20.6404 12.6517C20.4162 12.5114 20.2559 12.2866 20.1948 12.0267L19.6544 10.3631C19.389 9.51695 19.1141 8.67075 18.8392 7.82455C18.5642 8.67075 18.2988 9.51695 18.0239 10.3631C17.8437 10.9112 17.6731 11.469 17.493 12.0267C17.4241 12.2856 17.2616 12.5088 17.0379 12.6517C16.9018 12.73 16.7488 12.773 16.5924 12.7767C16.4102 12.7774 16.2329 12.7177 16.0874 12.6065C15.9419 12.4954 15.8362 12.339 15.7865 12.1613L15.5685 11.5074C15.2746 10.5458 14.9712 9.66118 14.6774 8.73806L12.6771 2.37236L12.3926 1.46847C12.3466 1.33968 12.332 1.20148 12.3503 1.06574C12.3685 0.929997 12.4189 0.800771 12.4973 0.689166C12.5756 0.577561 12.6795 0.486913 12.7999 0.425012C12.9204 0.363112 13.0539 0.331809 13.189 0.333794C13.3716 0.335633 13.5489 0.396212 13.6954 0.506806C13.842 0.617399 13.9501 0.772302 14.0043 0.949209C14.118 1.28576 14.2223 1.63194 14.3266 1.95888C14.3835 2.13196 14.4404 2.30505 14.4878 2.48775C15.1988 4.70901 15.9003 6.93989 16.6113 9.21885L16.782 8.67075L16.9621 8.14188C17.3034 7.10336 17.6636 6.01677 18.0239 4.95903C18.0782 4.79436 18.1829 4.65153 18.3226 4.55125C18.4624 4.45097 18.6301 4.39845 18.8012 4.40131H18.8771C19.0492 4.39935 19.2176 4.45208 19.3587 4.55209C19.4998 4.65211 19.6066 4.7944 19.6639 4.95903L20.7162 8.14188L20.8963 8.67075C20.9532 8.85345 21.0101 9.02654 21.0765 9.21885C21.778 6.98797 22.489 4.75709 23.1905 2.53583C23.2474 2.35313 23.2948 2.18004 23.3517 2.00695C23.456 1.68002 23.5603 1.33384 23.674 0.997289C23.7196 0.811438 23.8241 0.645888 23.9713 0.526037C24.1186 0.406185 24.3006 0.338651 24.4893 0.333794C24.6236 0.333374 24.7559 0.365822 24.8752 0.428384C24.9944 0.490946 25.097 0.581772 25.1743 0.693151C25.2515 0.80453 25.3011 0.93317 25.3188 1.06815C25.3366 1.20312 25.322 1.34045 25.2762 1.46847ZM38.2735 11.969C38.2791 12.183 38.2006 12.3905 38.0554 12.5459C37.9752 12.6244 37.88 12.6854 37.7756 12.7251C37.6713 12.7648 37.56 12.7824 37.4487 12.7767C37.2818 12.7761 37.1193 12.7223 36.9842 12.6229C36.8376 12.5276 36.7222 12.3904 36.6524 12.2286L32.301 1.93964L30.6894 5.71868H31.4572C31.6669 5.71348 31.8701 5.79236 32.0227 5.93818C32.1753 6.08401 32.2651 6.28501 32.2725 6.49756C32.2701 6.60322 32.247 6.70733 32.2046 6.80385C32.1621 6.90038 32.1012 6.98739 32.0254 7.05985C31.9495 7.13231 31.8603 7.18877 31.7627 7.22595C31.6652 7.26313 31.5614 7.2803 31.4572 7.27645H30.0542L27.978 12.2094C27.9051 12.3691 27.7903 12.5055 27.6462 12.6036C27.5103 12.7013 27.3483 12.755 27.1817 12.7575C27.0703 12.7643 26.9587 12.7473 26.8541 12.7075C26.7496 12.6678 26.6545 12.6062 26.575 12.5267C26.5013 12.4511 26.4439 12.3607 26.4063 12.2614C26.3688 12.1621 26.352 12.056 26.3569 11.9498C26.3425 11.8477 26.3425 11.7441 26.3569 11.6421L28.253 7.27645H27.4566C27.2461 7.28171 27.0418 7.20314 26.8877 7.05756C26.7335 6.91198 26.6417 6.71097 26.6318 6.49756C26.6417 6.28416 26.7335 6.08315 26.8877 5.93757C27.0418 5.79199 27.2461 5.71342 27.4566 5.71868H28.9829L30.9643 1.14153C31.0496 0.904999 31.2045 0.700729 31.4079 0.556287C31.6114 0.411846 31.8536 0.334187 32.1019 0.333794H32.5001C32.7494 0.334942 32.9925 0.412758 33.1973 0.556969C33.4021 0.701181 33.5589 0.905004 33.6472 1.14153L38.1882 11.6517C38.237 11.7507 38.266 11.8585 38.2735 11.969ZM6.32534 7.22837H5.09292L9.55808 11.3151C9.63722 11.3923 9.70018 11.4849 9.74319 11.5873C9.7862 11.6897 9.80837 11.8 9.80837 11.9113C9.80837 12.0226 9.7862 12.1328 9.74319 12.2353C9.70018 12.3377 9.63722 12.4303 9.55808 12.5075C9.39427 12.6651 9.17711 12.7529 8.95135 12.7529C8.72558 12.7529 8.50842 12.6651 8.34462 12.5075L2.7134 7.35338L2.63756 7.26683C2.63756 8.8823 2.63756 10.1035 2.63756 11.8055C2.64849 11.993 2.5976 12.1789 2.4929 12.3339C2.3882 12.4888 2.23564 12.604 2.05927 12.6613C1.97934 12.6875 1.89657 12.7036 1.81279 12.7094C1.70165 12.7134 1.59083 12.6951 1.48671 12.6555C1.38258 12.6159 1.28721 12.5558 1.20606 12.4786C1.11986 12.394 1.0518 12.2923 1.00612 12.1798C0.96045 12.0673 0.938149 11.9464 0.940614 11.8248C0.940614 8.6996 0.940614 6.16101 0.940614 3.03585V1.58386C0.940614 1.44923 0.940614 1.305 0.940614 1.16076C0.945478 1.03459 0.980885 0.911574 1.04371 0.802569C1.10654 0.693563 1.19485 0.60192 1.30086 0.535727C1.45325 0.408301 1.64376 0.337107 1.84123 0.333794H6.32534C6.77931 0.32616 7.2303 0.409469 7.65246 0.578947C8.07462 0.748425 8.45967 1.00074 8.78552 1.32143C9.11137 1.64212 9.37163 2.02489 9.55138 2.44779C9.73112 2.87068 9.82683 3.32541 9.833 3.78589C9.82559 4.24556 9.72898 4.69924 9.54869 5.12103C9.36839 5.54282 9.10794 5.92446 8.78221 6.24413C8.45648 6.56381 8.07185 6.81526 7.6503 6.98414C7.22875 7.15302 6.77852 7.23601 6.32534 7.22837ZM6.32534 5.53598C6.55816 5.5398 6.78943 5.49706 7.00596 5.4102C7.22249 5.32335 7.42002 5.19408 7.58729 5.02977C7.75456 4.86547 7.88827 4.66936 7.9808 4.45263C8.07334 4.2359 8.12287 4.00281 8.12657 3.76666C8.12287 3.53051 8.07334 3.29742 7.9808 3.08069C7.88827 2.86396 7.75456 2.66785 7.58729 2.50354C7.42002 2.33924 7.22249 2.20997 7.00596 2.12311C6.78943 2.03626 6.55816 1.99352 6.32534 1.99734H2.63756V5.53598H6.32534Z" fill="white"/>
</svg>
