<svg xmlns="http://www.w3.org/2000/svg" width="12.676" height="16" viewBox="0 0 12.676 16"><defs><style>.cls-1{fill:#fff}</style></defs><g id="surface1" transform="translate(-.5)"><path id="Path_8973" d="M9.122.124A.387.387 0 008.844 0H2.6A2.111 2.111 0 00.5 2.1v11.8A2.111 2.111 0 002.6 16h8.471a2.111 2.111 0 002.1-2.1V4.529a.416.416 0 00-.112-.271zm.112 1.241l2.64 2.771h-1.716a.92.92 0 01-.924-.92zm1.84 13.863H2.6A1.339 1.339 0 011.273 13.9V2.1A1.339 1.339 0 012.6.773h5.861v2.442a1.691 1.691 0 001.7 1.693H12.4V13.9a1.336 1.336 0 01-1.326 1.327zm0 0" class="cls-1"/><path id="Path_8974" d="M95.92 401.934h-6.362a.386.386 0 000 .773h6.365a.386.386 0 100-.773zm0 0" class="cls-1" transform="translate(-85.901 -389.373)"/><path id="Path_8975" d="M120.992 176.148a.384.384 0 00.564 0l2.265-2.431a.386.386 0 10-.564-.526l-1.6 1.712v-4.22a.386.386 0 10-.773 0v4.22l-1.592-1.712a.386.386 0 00-.564.526zm0 0" class="cls-1" transform="translate(-114.436 -164.975)"/></g></svg>