<svg xmlns="http://www.w3.org/2000/svg" width="15.845" height="20" viewBox="0 0 15.845 20"><defs><style>.cls-1{fill:#383d51}</style></defs><g id="surface1" transform="translate(-.5)"><path id="Path_8973" d="M11.278.155A.484.484 0 0010.93 0h-7.8A2.639 2.639 0 00.5 2.623v14.754A2.639 2.639 0 003.128 20h10.589a2.639 2.639 0 002.628-2.623V5.662a.52.52 0 00-.14-.338zm.14 1.551l3.3 3.464h-2.146a1.151 1.151 0 01-1.155-1.15zm2.3 17.328H3.128a1.673 1.673 0 01-1.662-1.657V2.623A1.673 1.673 0 013.128.966h7.324v3.053a2.113 2.113 0 002.121 2.116h2.807v11.242a1.67 1.67 0 01-1.663 1.657zm0 0" class="cls-1"/><path id="Path_8974" d="M97.607 401.934h-7.952a.483.483 0 000 .966h7.957a.483.483 0 100-.966zm0 0" class="cls-1" transform="translate(-85.208 -386.233)"/><path id="Path_8975" d="M121.583 177.611a.48.48 0 00.705 0l2.831-3.039a.482.482 0 10-.705-.657l-2 2.14v-5.275a.483.483 0 10-.966 0v5.275l-1.99-2.14a.482.482 0 00-.705.657zm0 0" class="cls-1" transform="translate(-113.513 -163.645)"/></g></svg>