<svg xmlns="http://www.w3.org/2000/svg" width="20" height="20" viewBox="0 0 20 20"><g transform="translate(-.001)"><circle cx="10" cy="10" r="10" fill="#55acee" transform="translate(.001)"/><path fill="#f1f2f2" d="M16.127 7.187a4.769 4.769 0 01-1.373.376 2.4 2.4 0 001.051-1.325 4.785 4.785 0 01-1.518.58 2.392 2.392 0 00-4.073 2.18 6.785 6.785 0 01-4.927-2.5 2.393 2.393 0 00.74 3.191 2.373 2.373 0 01-1.083-.3v.03a2.392 2.392 0 001.918 2.344 2.4 2.4 0 01-1.079.041 2.393 2.393 0 002.233 1.66 4.825 4.825 0 01-3.539.99 6.8 6.8 0 0010.464-5.716c0-.1 0-.207-.007-.309a4.847 4.847 0 001.193-1.237z"/></g></svg>