<svg width="123" height="28" viewBox="0 0 123 28" xmlns="http://www.w3.org/2000/svg"><g fill="#FFF" fill-rule="evenodd"><path d="M36.733 9.24c1.016 0 1.901.168 2.655.504.754.336 1.332.818 1.734 1.445.402.627.603 1.372.603 2.234 0 .885-.215 1.647-.645 2.285-.43.638-1.047 1.114-1.85 1.428L41.925 21H39.58l-2.395-3.444a4.523 4.523 0 01-.453.017h-2.646V21h-2.178v-5.983l2.177-.326v1.084h2.547c.949 0 1.67-.204 2.16-.613.492-.409.738-.988.738-1.739 0-.75-.246-1.327-.737-1.73-.492-.403-1.212-.605-2.161-.605h-2.546v2.22l-2.179-.326.001-3.742h4.824zm17.12 9.038H47.99L46.834 21h-2.245l5.277-11.76h2.144L57.303 21h-2.278l-1.172-2.722zm-.72-1.713l-2.212-5.141-2.194 5.14h4.405zM66.014 9.24c1.25 0 2.362.244 3.333.73.972.488 1.725 1.177 2.261 2.067.536.89.805 1.918.805 3.083 0 1.165-.269 2.192-.805 3.083-.536.89-1.29 1.579-2.26 2.066-.972.487-2.084.731-3.334.731h-5.126v-5.98l2.177-.326v4.458h2.848c.86 0 1.617-.165 2.27-.496a3.54 3.54 0 001.507-1.41c.352-.611.528-1.32.528-2.126 0-.806-.176-1.515-.528-2.125a3.54 3.54 0 00-1.507-1.411c-.653-.33-1.41-.496-2.27-.496h-2.847v2.217l-2.179-.326V9.24h5.127zm10.804 0h2.178V21h-2.178zm15.042 9.038h-5.863L84.842 21h-2.245l5.277-11.76h2.144L95.31 21h-2.278l-1.173-2.722zm-.72-1.713l-2.211-5.141-2.195 5.14h4.406zm18.175-7.325V21h-1.793l-6.466-7.963V21h-2.16V9.24h1.792l6.466 7.963V9.24zm7.621 1.848h-3.886V9.24H123v1.848h-3.886V21h-2.178z" fill-rule="nonzero"/><path d="M13.96 0l-1.234 11.015L4.088 4.1l6.895 8.664L0 14l10.983 1.236L4.088 23.9l8.638-6.915L13.96 28l1.233-11.015L23.83 23.9l-6.895-8.664L27.918 14l-10.983-1.236L23.83 4.1l-8.638 6.915z"/></g></svg>