<svg width="14" height="12" viewBox="0 0 14 12" fill="none" xmlns="http://www.w3.org/2000/svg">
  <path d="M11.7202 5.7707L7.40012 10.0908C7.28292 10.2093 7.21719 10.3693 7.21719 10.536C7.21719 10.7027 7.28292 10.8626 7.40012 10.9811L7.78168 11.3613C7.90032 11.4793 8.06088 11.5456 8.22825 11.5456C8.39562 11.5456 8.55618 11.4793 8.67482 11.3613L13.816 6.21868C13.9339 6.09938 14 5.93842 14 5.7707C14 5.60298 13.9339 5.44202 13.816 5.32272L8.67764 0.184365C8.559 0.0663092 8.39844 3.64845e-05 8.23108 3.64918e-05C8.06371 3.64991e-05 7.90315 0.0663092 7.78451 0.184365L7.40577 0.563099C7.28737 0.681556 7.22086 0.842184 7.22086 1.00967C7.22086 1.17715 7.28737 1.33778 7.40577 1.45624L11.7202 5.7707Z" fill="#fff"/>
  <path d="M4.50296 5.7707L0.182835 10.0908C0.065639 10.2093 -9.11273e-05 10.3693 -9.112e-05 10.536C-9.11127e-05 10.7027 0.065639 10.8626 0.182835 10.9811L0.564396 11.3613C0.683036 11.4793 0.843596 11.5456 1.01096 11.5456C1.17833 11.5456 1.33889 11.4793 1.45753 11.3613L6.59872 6.21868C6.7166 6.09938 6.78271 5.93842 6.78271 5.7707C6.78271 5.60298 6.7166 5.44202 6.59872 5.32272L1.46036 0.184365C1.34172 0.0663092 1.18116 3.64845e-05 1.01379 3.64918e-05C0.846422 3.64991e-05 0.685863 0.0663092 0.567223 0.184365L0.188488 0.563099C0.0700884 0.681556 0.00357676 0.842184 0.00357677 1.00967C0.00357678 1.17715 0.0700884 1.33778 0.188488 1.45624L4.50296 5.7707Z" fill="#fff"/>
</svg>
