<svg xmlns="http://www.w3.org/2000/svg" viewBox="0 0 28.008 35"><defs><style>.prefix__cls-1{fill:#ff4c2f}</style></defs><g id="prefix__authereum_logo" transform="translate(0 -.01)"><g id="prefix__Group" transform="translate(0 .01)"><path id="prefix__Shape" d="M5.867-88.695c-2.2.713-4.415 1.425-4.936 1.589L0-86.8v6.548c0 3.92.029 6.875.073 7.364a16.209 16.209 0 004.239 9.384c.557.616 9.4 8.419 9.652 8.515.1.037 7.877-6.674 9.153-7.906a16.635 16.635 0 004.562-8.233c.323-1.574.345-2.16.323-9.139l-.022-6.563L23-88.42c-2.736-.869-4.987-1.574-5-1.566s.4.839.924 1.841l.946 1.819 1.415.46c.777.252 1.951.631 2.611.839l1.2.379-.029 6.028c-.022 5.791-.029 6.058-.176 6.733a13.242 13.242 0 01-3.476 6.533c-.337.349-2.054 1.886-3.806 3.408s-3.278 2.858-3.388 2.962l-.191.178-3.366-2.932c-4.114-3.593-4.73-4.2-5.713-5.731a12.978 12.978 0 01-1.65-3.764c-.33-1.336-.359-1.834-.359-7.788v-5.62l1.049-.334c.572-.186 1.746-.564 2.6-.839s1.555-.527 1.555-.549.411-.839.917-1.811.917-1.789.917-1.8a33.886 33.886 0 00-4.113 1.279z" class="prefix__cls-1" transform="translate(0 89.99)"/><path id="prefix__Shape-2" d="M22.837-89.761c-.066.134-1.914 3.7-4.1 7.929l-3.975 7.684.059.624a9.208 9.208 0 001.364 3.853c.271.445.352.527.425.445.044-.052 1.5-2.829 3.227-6.169s3.154-6.065 3.183-6.065 1.474 2.7 3.22 6 3.2 6.05 3.249 6.125c.073.126.088.119.205-.037a9.294 9.294 0 001.555-4.12l.088-.742-4.166-7.866c-2.288-4.32-4.171-7.876-4.188-7.883s-.073.083-.146.222z" class="prefix__cls-1" data-name="Shape" transform="translate(-9.019 89.987)"/><path id="prefix__Shape-3" d="M27.563-47.2l-2.017 4.076 1.137 1c.623.549 1.54 1.344 2.032 1.759l.9.757.2-.163c.117-.089 1.019-.883 2.01-1.767l1.812-1.6-2.01-4.068c-1.107-2.235-2.017-4.068-2.032-4.068s-.925 1.829-2.032 4.074z" class="prefix__cls-1" data-name="Shape" transform="translate(-15.608 66.338)"/></g></g></svg>