<svg xmlns="http://www.w3.org/2000/svg" width="19.833" height="30" viewBox="0 0 19.833 30"><defs><style>.cls-5{fill:#4b6b9a}.cls-8{fill:#6db2d8}.cls-9{fill:#335f8a}</style></defs><g id="Layer_2" data-name="Layer 2"><g id="Layer_1" data-name="Layer 1"><path id="Path_10380" fill="#133444" d="M4.45 202.723l.719-.313 8.9-3.871 9.624 4.183-3.616 7.465-8.84 1.25-6.647-7.173z" data-name="Path 10380" transform="translate(-4.157 -185.474)"/><path id="Path_10381" fill="#c42370" d="M27.581 141.415a9.9 9.9 0 00-6.306-3.488l-.158-.02a10.025 10.025 0 00-2.316 0l-.158.02a9.9 9.9 0 00-6.306 3.488l-.4.663-.667 1.1-.488.81-.027.066-.006.015 1.076.636 6.818 4.033 1.316.779v-9.639l-1.316.6v-1.443l1.316-.6 1.316.6 6.706 3.046z" data-name="Path 10381" transform="translate(-10.043 -128.769)"/><path id="Path_10382" fill="#1c4d6b" d="M19.833 264.509a10.633 10.633 0 01-3.891 8.15 9.835 9.835 0 01-3.135 1.735 9.181 9.181 0 01-2.891.467C4.44 274.861 0 269.985 0 264.509a9.9 9.9 0 01.293-2.4l9.624 5.691 9.624-5.693a9.9 9.9 0 01.293 2.4z" data-name="Path 10382" transform="translate(0 -244.861)"/><path id="Path_10383" d="M130.848 137.872l1.158.526-1.316.6v-1.2z" data-name="Path 10383" transform="translate(-122.09 -128.732)"/><path id="Path_10384" d="M130.69 169.448l1.316-.6v9.643l-1.316-.779z" data-name="Path 10384" transform="translate(-122.09 -157.738)"/><path id="Path_10385" fill="#1d4259" d="M150.69 168.85v9.643l9.222-5.455z" data-name="Path 10385" transform="translate(-140.773 -157.738)"/><path id="Path_10386" d="M150.69 0v11.112l9.222 4.188z" class="cls-5" data-name="Path 10386" transform="translate(-140.773)"/><path id="Path_10387" fill="#343535" d="M19.782 156.846v9.643l-1.316-.779-7.894-4.672-.012-.007.018-.008.027-.066 1.154-1.914L18.466 156v1.448z" data-name="Path 10387" transform="translate(-9.865 -145.734)"/><path id="Path_10388" fill="#3e5578" d="M19.782 168.85v9.643l-1.316-.779-7.894-4.669-.012-.007.018-.008 7.888-3.583z" data-name="Path 10388" transform="translate(-9.865 -157.738)"/><path id="Path_10389" d="M19.782 0v11.112L10.56 15.3z" class="cls-8" data-name="Path 10389" transform="translate(-9.865)"/><path id="Path_10390" d="M94 443.85c.138.061.277.118.417.172q-.217-.081-.417-.172z" class="cls-9" data-name="Path 10390" transform="translate(-87.814 -414.641)"/><path id="Path_10391" d="M100.29 446.46c.141.054.282.1.426.152q-.216-.07-.426-.152z" class="cls-9" data-name="Path 10391" transform="translate(-93.69 -417.079)"/><path id="Path_10392" d="M112.33 450.49c.109.031.219.061.329.088q-.165-.041-.329-.088z" class="cls-9" data-name="Path 10392" transform="translate(-104.938 -420.844)"/><path id="Path_10393" d="M.293 262.11l9.624 5.69a11.022 11.022 0 01-.689 2.526c-.77 1.861-2.326 3.829-5.336 2.332A10.638 10.638 0 010 264.509a9.9 9.9 0 01.293-2.4z" class="cls-8" data-name="Path 10393" transform="translate(0 -244.861)"/><path id="Path_10394" fill="#529bba" d="M71.2 353.495l-.024.019c-.05.041-.1.081-.151.12l-.013.011q-.082.066-.166.126c-.06.045-.12.089-.182.132l-.184.128-.164.109-.03.02c-.058.038-.116.074-.174.11l-.022.013a5.752 5.752 0 01-.38.221c-.068.036-.132.071-.2.105h-.007l-.2.1-.2.1a9.377 9.377 0 01-.622.265c-.14.054-.282.1-.426.152l-.172.055-.194.058a9.379 9.379 0 01-.329.088l-.126.03-.07.016-.176.038-.163.032-.149.026-.166.026-.082.012-.124.016-.069.009-.138.015-.169.016-.132.01-.115.007h-.005c-.045 0-.09.005-.132.007-.062 0-.124 0-.187.006s-.125 0-.188 0h-.188c-.063 0-.125 0-.187-.006-.045 0-.09 0-.135-.007h-.005c-.039 0-.077 0-.115-.007l-.132-.01-.169-.016-.138-.015-.066-.009-.124-.016a.488.488 0 01-.082-.012l-.166-.026-.149-.026-.163-.032-.176-.038-.07-.016-.126-.03a8.826 8.826 0 01-.329-.088l-.2-.058-.172-.055c-.143-.047-.285-.1-.426-.152s-.282-.11-.414-.17l-.205-.093c-.068-.032-.136-.066-.2-.1s-.132-.066-.2-.1h-.007l-.2-.105-.2-.112a2.585 2.585 0 01-.177-.109l-.022-.013c-.058-.036-.116-.072-.174-.11l-.03-.02-.164-.109a11.163 11.163 0 01-.184-.128l-.182-.132c-.06-.043-.111-.084-.166-.126l-.013-.011c-.051-.039-.1-.08-.151-.12l-.024-.019c3.01 1.5 4.566-.471 5.336-2.332a11.021 11.021 0 00.689-2.524 11.021 11.021 0 00.688 2.524c.782 1.858 2.338 3.827 5.349 2.33z" data-name="Path 10394" transform="translate(-55.257 -325.697)"/><path id="Path_10395" d="M184 450.578c.111-.027.22-.057.329-.088q-.161.047-.329.088z" class="cls-9" data-name="Path 10395" transform="translate(-171.891 -420.844)"/><path id="Path_10396" d="M194.62 446.612c.143-.047.285-.1.426-.152q-.21.082-.426.152z" class="cls-9" data-name="Path 10396" transform="translate(-181.812 -417.079)"/><path id="Path_10397" d="M201.09 444.022c.14-.054.28-.111.417-.172q-.207.091-.417.172z" class="cls-9" data-name="Path 10397" transform="translate(-187.857 -414.641)"/><path id="Path_10398" d="M160.607 264.509a10.634 10.634 0 01-3.892 8.15c-3.01 1.5-4.566-.471-5.336-2.332a11.021 11.021 0 01-.689-2.524l9.624-5.693a9.9 9.9 0 01.293 2.399z" class="cls-5" data-name="Path 10398" transform="translate(-140.773 -244.861)"/></g></g></svg>