<svg xmlns="http://www.w3.org/2000/svg" id="Group_23329" width="8.17" height="9.906" viewBox="0 0 8.17 9.906"><defs><style>.cls-1{fill:#fff}</style></defs><g id="back" transform="rotate(-90 4.954 4.954)"><g id="Group_21929"><path id="Path_9170" d="M1.613 4.087L4.67 1.03a.448.448 0 000-.63L4.4.131a.448.448 0 00-.632 0L.13 3.77a.451.451 0 000 .634L3.766 8.04a.448.448 0 00.632 0l.268-.268a.447.447 0 000-.632z" class="cls-1"/></g></g><g id="back-2" transform="rotate(-90 2.4 2.4)"><g id="Group_21929-2"><path id="Path_9170-2" d="M1.613 4.087L4.67 1.03a.448.448 0 000-.63L4.4.131a.448.448 0 00-.632 0L.13 3.77a.451.451 0 000 .634L3.766 8.04a.448.448 0 00.632 0l.268-.268a.447.447 0 000-.632z" class="cls-1"/></g></g></svg>