<svg xmlns="http://www.w3.org/2000/svg" width="47" height="47" viewBox="0 0 47 47"><defs><linearGradient id="b" x1=".896" x2=".16" y1=".217" y2=".855" gradientUnits="objectBoundingBox"><stop offset="0" stop-color="#b6509e"/><stop offset="1" stop-color="#2ebac6"/></linearGradient><filter id="a" width="47" height="47" x="0" y="0" filterUnits="userSpaceOnUse"><feOffset dy="1"/><feGaussianBlur result="blur" stdDeviation="1.5"/><feFlood flood-opacity=".161"/><feComposite in2="blur" operator="in"/><feComposite in="SourceGraphic"/></filter></defs><g filter="url(#a)" transform="translate(.001)"><rect width="38" height="38" fill="url(#b)" rx="19" transform="translate(4.5 3.5)"/></g><path fill="#fff" d="M32.3 21.811l-7.077-5.225a.444.444 0 00-.707.357v1.755h-5.743a.444.444 0 100 .887h6.191a.443.443 0 00.444-.444v-1.32l5.886 4.346-5.886 4.346v-1.32a.443.443 0 00-.444-.444h-9.572v-5.165h1.9a.444.444 0 000-.887h-2.346a.443.443 0 00-.443.444v6.052a.443.443 0 00.443.444h9.572v1.755a.443.443 0 00.707.357l7.077-5.225a.444.444 0 000-.714z"/></svg>