<svg width="130" height="13" viewBox="0 0 130 13" fill="none" xmlns="http://www.w3.org/2000/svg">
<path d="M0.689453 10V1.46875H3.47852C4.4043 1.46875 5.09961 1.66016 5.56445 2.04297C6.0332 2.42578 6.26758 2.99219 6.26758 3.74219C6.26758 4.14062 6.1543 4.49414 5.92773 4.80273C5.70117 5.10742 5.39258 5.34375 5.00195 5.51172C5.46289 5.64062 5.82617 5.88672 6.0918 6.25C6.36133 6.60938 6.49609 7.03906 6.49609 7.53906C6.49609 8.30469 6.24805 8.90625 5.75195 9.34375C5.25586 9.78125 4.55469 10 3.64844 10H0.689453ZM1.81445 6.00977V9.08008H3.67188C4.19531 9.08008 4.60742 8.94531 4.9082 8.67578C5.21289 8.40234 5.36523 8.02734 5.36523 7.55078C5.36523 6.52344 4.80664 6.00977 3.68945 6.00977H1.81445ZM1.81445 5.10742H3.51367C4.00586 5.10742 4.39844 4.98438 4.69141 4.73828C4.98828 4.49219 5.13672 4.1582 5.13672 3.73633C5.13672 3.26758 5 2.92773 4.72656 2.7168C4.45312 2.50195 4.03711 2.39453 3.47852 2.39453H1.81445V5.10742ZM11.9102 9.37305C11.4883 9.86914 10.8691 10.1172 10.0527 10.1172C9.37695 10.1172 8.86133 9.92188 8.50586 9.53125C8.1543 9.13672 7.97656 8.55469 7.97266 7.78516V3.66016H9.05664V7.75586C9.05664 8.7168 9.44727 9.19727 10.2285 9.19727C11.0566 9.19727 11.6074 8.88867 11.8809 8.27148V3.66016H12.9648V10H11.9336L11.9102 9.37305ZM15.7949 10H14.7109V3.66016H15.7949V10ZM14.623 1.97852C14.623 1.80273 14.6758 1.6543 14.7812 1.5332C14.8906 1.41211 15.0508 1.35156 15.2617 1.35156C15.4727 1.35156 15.6328 1.41211 15.7422 1.5332C15.8516 1.6543 15.9062 1.80273 15.9062 1.97852C15.9062 2.1543 15.8516 2.30078 15.7422 2.41797C15.6328 2.53516 15.4727 2.59375 15.2617 2.59375C15.0508 2.59375 14.8906 2.53516 14.7812 2.41797C14.6758 2.30078 14.623 2.1543 14.623 1.97852ZM18.7129 10H17.6289V1H18.7129V10ZM21.9238 2.125V3.66016H23.1074V4.49805H21.9238V8.42969C21.9238 8.68359 21.9766 8.875 22.082 9.00391C22.1875 9.12891 22.3672 9.19141 22.6211 9.19141C22.7461 9.19141 22.918 9.16797 23.1367 9.12109V10C22.8516 10.0781 22.5742 10.1172 22.3047 10.1172C21.8203 10.1172 21.4551 9.9707 21.209 9.67773C20.9629 9.38477 20.8398 8.96875 20.8398 8.42969V4.49805H19.6855V3.66016H20.8398V2.125H21.9238ZM27.0684 6.77148C27.0684 6.15039 27.1895 5.5918 27.4316 5.0957C27.6777 4.59961 28.0176 4.2168 28.4512 3.94727C28.8887 3.67773 29.3867 3.54297 29.9453 3.54297C30.8086 3.54297 31.5059 3.8418 32.0371 4.43945C32.5723 5.03711 32.8398 5.83203 32.8398 6.82422V6.90039C32.8398 7.51758 32.7207 8.07227 32.4824 8.56445C32.248 9.05273 31.9102 9.43359 31.4688 9.70703C31.0312 9.98047 30.5273 10.1172 29.957 10.1172C29.0977 10.1172 28.4004 9.81836 27.8652 9.2207C27.334 8.62305 27.0684 7.83203 27.0684 6.84766V6.77148ZM28.1582 6.90039C28.1582 7.60352 28.3203 8.16797 28.6445 8.59375C28.9727 9.01953 29.4102 9.23242 29.957 9.23242C30.5078 9.23242 30.9453 9.01758 31.2695 8.58789C31.5938 8.1543 31.7559 7.54883 31.7559 6.77148C31.7559 6.07617 31.5898 5.51367 31.2578 5.08398C30.9297 4.65039 30.4922 4.43359 29.9453 4.43359C29.4102 4.43359 28.9785 4.64648 28.6504 5.07227C28.3223 5.49805 28.1582 6.10742 28.1582 6.90039ZM35.2246 3.66016L35.2598 4.45703C35.7441 3.84766 36.377 3.54297 37.1582 3.54297C38.498 3.54297 39.1738 4.29883 39.1855 5.81055V10H38.1016V5.80469C38.0977 5.34766 37.9922 5.00977 37.7852 4.79102C37.582 4.57227 37.2637 4.46289 36.8301 4.46289C36.4785 4.46289 36.1699 4.55664 35.9043 4.74414C35.6387 4.93164 35.4316 5.17773 35.2832 5.48242V10H34.1992V3.66016H35.2246Z" fill="white"/>
<mask id="mask0" style="mask-type:alpha" maskUnits="userSpaceOnUse" x="94" y="0" width="11" height="9">
<path fill-rule="evenodd" clip-rule="evenodd" d="M94 0.188293H104.649V8.79621H94V0.188293Z" fill="white"/>
</mask>
<g mask="url(#mask0)">
<path fill-rule="evenodd" clip-rule="evenodd" d="M95.2469 8.47651C94.9305 7.79676 94.7537 7.03841 94.7537 6.23862C94.7537 3.3148 97.1159 0.944592 100.03 0.944592C101.652 0.944592 103.104 1.67951 104.071 2.83564L104.649 2.34951C103.543 1.02821 101.884 0.188293 100.03 0.188293C96.6996 0.188293 94 2.89712 94 6.23862C94 7.15265 94.202 8.01936 94.5636 8.79621L95.2469 8.47651Z" fill="white"/>
</g>
<path fill-rule="evenodd" clip-rule="evenodd" d="M100.03 9.83101C98.0525 9.83101 96.4496 8.22265 96.4496 6.23863C96.4496 4.25461 98.0525 2.64624 100.03 2.64624C101.131 2.64624 102.115 3.14507 102.772 3.92959L103.35 3.44333C102.555 2.49365 101.363 1.88995 100.03 1.88995C97.6362 1.88995 95.6959 3.83692 95.6959 6.23863C95.6959 8.64033 97.6362 10.5873 100.03 10.5873V9.83101Z" fill="white"/>
<path fill-rule="evenodd" clip-rule="evenodd" d="M101.329 7.33234C101.018 7.70395 100.551 7.94023 100.03 7.94023C99.0931 7.94023 98.3339 7.17838 98.3339 6.23858C98.3339 5.29878 99.0931 4.53692 100.03 4.53692C100.551 4.53692 101.018 4.77322 101.329 5.14483L101.978 4.59795C101.512 4.04053 100.812 3.6861 100.03 3.6861C98.6248 3.6861 97.4859 4.82888 97.4859 6.23858C97.4859 7.64827 98.6248 8.79107 100.03 8.79107C100.747 8.79107 101.394 8.49324 101.856 8.01445L101.329 7.33234Z" fill="white"/>
<path fill-rule="evenodd" clip-rule="evenodd" d="M105.914 5.4104H106.689V5.9356H106.703C106.775 5.77189 106.901 5.62758 107.08 5.50246C107.259 5.37746 107.471 5.31488 107.716 5.31488C107.928 5.31488 108.111 5.3524 108.263 5.42746C108.415 5.50246 108.539 5.60138 108.637 5.72414C108.734 5.84694 108.805 5.98794 108.851 6.14704C108.896 6.30627 108.919 6.46997 108.919 6.63817V8.68447H108.103V6.87009C108.103 6.77458 108.096 6.6746 108.083 6.56995C108.069 6.46542 108.04 6.37108 107.994 6.2869C107.949 6.2028 107.887 6.1334 107.807 6.07887C107.728 6.02428 107.623 5.99699 107.491 5.99699C107.36 5.99699 107.246 6.02323 107.151 6.07546C107.056 6.12776 106.978 6.1948 106.917 6.27667C106.856 6.3585 106.809 6.45296 106.777 6.55972C106.746 6.66664 106.73 6.77458 106.73 6.88374V8.68447H105.914V5.4104Z" fill="white"/>
<path fill-rule="evenodd" clip-rule="evenodd" d="M109.265 6.06518V5.41036H109.836V4.46222H110.638V5.41036H111.454V6.06518H110.638V7.58625C110.638 7.73183 110.665 7.85227 110.717 7.94778C110.769 8.04326 110.885 8.09101 111.067 8.09101C111.121 8.09101 111.18 8.08537 111.243 8.07396C111.307 8.06266 111.364 8.04561 111.413 8.02279L111.441 8.66397C111.368 8.69126 111.282 8.71278 111.182 8.72878C111.083 8.74466 110.987 8.75265 110.897 8.75265C110.679 8.75265 110.503 8.72196 110.367 8.66056C110.231 8.59915 110.123 8.51509 110.044 8.40817C109.964 8.30141 109.91 8.1786 109.881 8.03985C109.851 7.9012 109.836 7.75229 109.836 7.59306V6.06518H109.265Z" fill="white"/>
<path fill-rule="evenodd" clip-rule="evenodd" d="M111.944 5.4104H112.725V5.95606H112.739C112.83 5.76507 112.957 5.61055 113.12 5.49223C113.283 5.37405 113.473 5.31488 113.691 5.31488C113.722 5.31488 113.756 5.31606 113.793 5.31829C113.829 5.32065 113.861 5.3263 113.888 5.33535V6.08569C113.834 6.07204 113.787 6.06298 113.749 6.0584C113.71 6.05389 113.673 6.05158 113.636 6.05158C113.451 6.05158 113.301 6.08569 113.188 6.15386C113.074 6.22209 112.986 6.30392 112.923 6.39943C112.859 6.49495 112.816 6.59277 112.793 6.69275C112.771 6.79281 112.759 6.8724 112.759 6.93146V8.68447H111.944V5.4104Z" fill="white"/>
<path fill-rule="evenodd" clip-rule="evenodd" d="M114.262 8.68447H115.077V5.41039H114.262V8.68447ZM114.146 4.29853C114.146 4.16671 114.195 4.0519 114.292 3.95408C114.39 3.85633 114.513 3.80743 114.663 3.80743C114.812 3.80743 114.938 3.85409 115.04 3.94726C115.142 4.04049 115.193 4.15764 115.193 4.29853C115.193 4.43951 115.142 4.55668 115.04 4.64979C114.938 4.74308 114.812 4.78965 114.663 4.78965C114.513 4.78965 114.39 4.74084 114.292 4.64297C114.195 4.54526 114.146 4.43046 114.146 4.29853V4.29853Z" fill="white"/>
<path fill-rule="evenodd" clip-rule="evenodd" d="M116.131 6.06514H115.513V5.41032H116.131V5.16547C116.131 4.97002 116.153 4.78244 116.196 4.60274C116.239 4.42316 116.311 4.26508 116.413 4.12867C116.515 3.99226 116.65 3.88428 116.818 3.80469C116.985 3.72518 117.196 3.6853 117.45 3.6853C117.541 3.6853 117.617 3.68871 117.678 3.69553C117.739 3.70235 117.801 3.71495 117.865 3.73305L117.81 4.42881C117.765 4.41517 117.716 4.40388 117.664 4.3947C117.612 4.38564 117.556 4.38106 117.498 4.38106C117.38 4.38106 117.285 4.40388 117.212 4.44928C117.139 4.49476 117.084 4.55393 117.046 4.62663C117.007 4.69939 116.981 4.77903 116.967 4.86536C116.954 4.95178 116.947 5.03588 116.947 5.11771V5.41032H117.701V6.06514H116.947V8.6844H116.131V6.06514Z" fill="white"/>
<path fill-rule="evenodd" clip-rule="evenodd" d="M121.114 8.68443H120.339V8.15922H120.326C120.253 8.32293 120.127 8.46732 119.948 8.59232C119.769 8.71736 119.557 8.77994 119.313 8.77994C119.1 8.77994 118.917 8.74242 118.765 8.66736C118.614 8.59232 118.489 8.49344 118.392 8.37068C118.294 8.24787 118.223 8.107 118.177 7.94777C118.132 7.78862 118.109 7.62493 118.109 7.45665V5.41034H118.925V7.22473C118.925 7.32023 118.932 7.4203 118.946 7.52487C118.959 7.62952 118.989 7.72385 119.034 7.80792C119.079 7.89214 119.142 7.96138 119.221 8.01595C119.3 8.07054 119.406 8.09783 119.537 8.09783C119.664 8.09783 119.776 8.07171 119.874 8.01936C119.971 7.96714 120.05 7.90002 120.111 7.81815C120.173 7.73632 120.219 7.64199 120.251 7.5351C120.282 7.4283 120.298 7.32023 120.298 7.21108V5.41034H121.114V8.68443Z" fill="white"/>
<path fill-rule="evenodd" clip-rule="evenodd" d="M103.192 6.15046C103.362 6.00277 103.569 5.92877 103.814 5.92877C103.945 5.92877 104.06 5.95042 104.157 5.99358C104.255 6.03687 104.335 6.09483 104.399 6.16751C104.462 6.24032 104.509 6.32438 104.538 6.4199C104.567 6.51538 104.582 6.61547 104.582 6.72001H102.91C102.928 6.48812 103.022 6.29828 103.192 6.15046V6.15046ZM104.705 7.68862C104.614 7.82055 104.498 7.92394 104.358 7.99894C104.217 8.074 104.045 8.11151 103.841 8.11151C103.723 8.11151 103.61 8.09105 103.501 8.05012C103.393 8.00918 103.295 7.95354 103.209 7.883C103.123 7.81255 103.054 7.72844 103.002 7.63062C102.95 7.53287 102.919 7.42494 102.91 7.30665H105.391C105.396 7.2703 105.398 7.23395 105.398 7.19749V7.08837C105.398 6.79281 105.358 6.53478 105.279 6.31415C105.2 6.09365 105.09 5.90948 104.949 5.76167C104.809 5.61396 104.642 5.50246 104.45 5.42745C104.257 5.3524 104.047 5.31488 103.821 5.31488C103.576 5.31488 103.348 5.357 103.138 5.4411C102.927 5.52528 102.744 5.64349 102.59 5.79578C102.436 5.94818 102.315 6.13235 102.227 6.34826C102.138 6.56431 102.094 6.80423 102.094 7.0679C102.094 7.33624 102.138 7.57604 102.227 7.7875C102.315 7.99894 102.438 8.17746 102.594 8.32297C102.75 8.46855 102.935 8.58108 103.148 8.66059C103.361 8.74011 103.594 8.77998 103.848 8.77998C104.396 8.77998 104.827 8.60483 105.143 8.25484L104.705 7.68862Z" fill="white"/>
<path fill-rule="evenodd" clip-rule="evenodd" d="M126.703 6.15046C126.873 6.00277 127.08 5.92877 127.325 5.92877C127.457 5.92877 127.571 5.95042 127.669 5.99358C127.766 6.03687 127.846 6.09483 127.91 6.16751C127.973 6.24032 128.02 6.32438 128.049 6.4199C128.079 6.51538 128.093 6.61547 128.093 6.72001H126.421C126.439 6.48812 126.533 6.29828 126.703 6.15046V6.15046ZM128.216 7.68862C128.125 7.82055 128.009 7.92394 127.869 7.99894C127.728 8.074 127.556 8.11151 127.352 8.11151C127.234 8.11151 127.121 8.09105 127.012 8.05012C126.904 8.00918 126.806 7.95354 126.72 7.883C126.634 7.81255 126.565 7.72844 126.513 7.63062C126.461 7.53287 126.43 7.42494 126.421 7.30665H128.902C128.907 7.2703 128.909 7.23395 128.909 7.19749V7.08837C128.909 6.79281 128.869 6.53478 128.79 6.31415C128.711 6.09365 128.601 5.90948 128.46 5.76167C128.32 5.61396 128.153 5.50246 127.961 5.42745C127.768 5.3524 127.559 5.31488 127.332 5.31488C127.087 5.31488 126.86 5.357 126.649 5.4411C126.438 5.52528 126.256 5.64349 126.102 5.79578C125.947 5.94818 125.826 6.13235 125.738 6.34826C125.649 6.56431 125.605 6.80423 125.605 7.0679C125.605 7.33624 125.649 7.57604 125.738 7.7875C125.826 7.99894 125.949 8.17746 126.105 8.32297C126.261 8.46855 126.446 8.58108 126.659 8.66059C126.872 8.74011 127.105 8.77998 127.359 8.77998C127.907 8.77998 128.338 8.60483 128.654 8.25484L128.216 7.68862Z" fill="white"/>
<path fill-rule="evenodd" clip-rule="evenodd" d="M124.261 7.41447C124.216 7.53913 124.151 7.64903 124.067 7.74422C123.983 7.83936 123.881 7.91526 123.761 7.97195C123.641 8.02867 123.506 8.0569 123.357 8.0569C123.212 8.0569 123.082 8.02751 122.966 7.96854C122.85 7.90961 122.753 7.8314 122.674 7.73397C122.594 7.63655 122.533 7.52659 122.49 7.40422C122.447 7.28187 122.426 7.15506 122.426 7.02351C122.426 6.87859 122.447 6.74258 122.49 6.61565C122.533 6.4887 122.594 6.37882 122.674 6.2859C122.753 6.19295 122.85 6.11931 122.966 6.06494C123.082 6.0106 123.214 5.98332 123.364 5.98332C123.513 5.98332 123.647 6.0106 123.765 6.06494C123.883 6.11931 123.983 6.19412 124.067 6.28931C124.151 6.38449 124.216 6.49552 124.261 6.62234C124.306 6.74929 124.329 6.88305 124.329 7.02351C124.329 7.15951 124.306 7.28988 124.261 7.41447V7.41447ZM124.329 5.41034V5.90142H124.315C124.197 5.70138 124.039 5.55356 123.839 5.45809C123.64 5.36257 123.425 5.31482 123.194 5.31482C122.949 5.31482 122.728 5.36034 122.531 5.45127C122.334 5.54227 122.166 5.66503 122.028 5.81959C121.89 5.97423 121.783 6.15616 121.708 6.36525C121.634 6.57447 121.596 6.79734 121.596 7.03372C121.596 7.26564 121.635 7.48509 121.712 7.69195C121.789 7.89894 121.896 8.0797 122.035 8.23421C122.173 8.38886 122.342 8.51166 122.541 8.60254C122.74 8.69346 122.963 8.73899 123.207 8.73899C123.434 8.73899 123.639 8.69647 123.822 8.61151C124.006 8.52655 124.157 8.40368 124.275 8.24286H124.288V8.48246C124.288 8.6468 124.271 8.79738 124.237 8.93431C124.203 9.07117 124.146 9.18991 124.067 9.2903C123.988 9.39068 123.881 9.46935 123.748 9.52648C123.614 9.58349 123.45 9.61209 123.255 9.61209C123.051 9.61209 122.849 9.5722 122.65 9.49269C122.456 9.41519 122.281 9.30421 122.125 9.1599L121.644 9.7826C121.748 9.86893 121.866 9.94629 121.997 10.0145C122.129 10.0827 122.266 10.1395 122.409 10.185C122.551 10.2304 122.696 10.2646 122.844 10.2873C122.991 10.31 123.13 10.3214 123.262 10.3214C123.579 10.3214 123.853 10.2759 124.084 10.185C124.315 10.094 124.507 9.96559 124.659 9.79965C124.81 9.6336 124.923 9.43128 124.995 9.19259C125.068 8.95384 125.104 8.68664 125.104 8.39108V5.41034H124.329Z" fill="white"/>
<g clip-path="url(#clip0)">
<path d="M63.737 9.88513L60.6372 2.24515C60.6127 2.17555 60.5996 2.10232 60.5986 2.02841C60.5926 1.87233 60.6468 1.72002 60.7498 1.60397C60.803 1.54855 60.8673 1.50537 60.9384 1.47733C61.0094 1.44929 61.0856 1.43704 61.1617 1.44142C61.2768 1.44307 61.3887 1.48093 61.4818 1.54979C61.5787 1.62353 61.6544 1.72227 61.7011 1.83576L64.6497 9.31018L67.5984 1.83576C67.6459 1.72191 67.7227 1.62314 67.8207 1.54979C67.9138 1.48093 68.0256 1.44307 68.1408 1.44142C68.2164 1.43748 68.292 1.44993 68.3625 1.47796C68.433 1.50599 68.4968 1.54894 68.5497 1.60397C68.6537 1.71955 68.7091 1.87191 68.7038 2.02841C68.7028 2.10232 68.6898 2.17555 68.6653 2.24515L65.5655 9.88513C65.5124 10.053 65.409 10.1997 65.2698 10.305C65.1306 10.4102 64.9625 10.4687 64.789 10.4721H64.5134C64.3399 10.4687 64.1718 10.4102 64.0326 10.305C63.8934 10.1997 63.7901 10.053 63.737 9.88513V9.88513Z" fill="white"/>
<path d="M70.0226 10.2373C69.9701 10.1836 69.9288 10.1197 69.9013 10.0493C69.8738 9.97894 69.8606 9.90363 69.8626 9.82795V2.09164C69.8607 2.01416 69.8739 1.93706 69.9013 1.86475C69.9288 1.79244 69.97 1.72633 70.0226 1.67021C70.0742 1.61471 70.1368 1.57099 70.2063 1.54193C70.2758 1.51287 70.3506 1.49913 70.4257 1.50163H75.4636C75.5346 1.49988 75.6051 1.51346 75.6705 1.54149C75.7359 1.56951 75.7947 1.61133 75.843 1.66418C75.8944 1.71369 75.9352 1.77349 75.9627 1.83981C75.9903 1.90612 76.004 1.97752 76.003 2.0495C76.005 2.12073 75.9918 2.19156 75.9641 2.25706C75.9365 2.32256 75.8951 2.38116 75.843 2.42879C75.7926 2.47933 75.7329 2.5192 75.6673 2.54607C75.6017 2.57295 75.5314 2.58629 75.4607 2.58532H71.0065V5.4029H75.0132C75.0841 5.40114 75.1546 5.41473 75.22 5.44275C75.2854 5.47078 75.3442 5.5126 75.3925 5.56545C75.4434 5.61539 75.4838 5.67528 75.5113 5.74149C75.5388 5.80771 75.5528 5.87889 75.5525 5.95076C75.5546 6.022 75.5413 6.09283 75.5137 6.15833C75.486 6.22383 75.4447 6.28243 75.3925 6.33005C75.3425 6.38023 75.2833 6.4199 75.2182 6.44676C75.1531 6.47362 75.0834 6.48716 75.0132 6.48659H71.0065V9.31621H75.4607C75.5321 9.31402 75.6032 9.3274 75.6691 9.35543C75.7351 9.38347 75.7943 9.42552 75.843 9.47876C75.8948 9.52861 75.9358 9.5889 75.9633 9.65576C75.9909 9.72263 76.0044 9.79461 76.003 9.86708C76.005 9.93831 75.9918 10.0091 75.9641 10.0746C75.9365 10.1401 75.8951 10.1987 75.843 10.2464C75.7924 10.2964 75.7326 10.3357 75.667 10.362C75.6013 10.3884 75.5312 10.4013 75.4607 10.3999H70.4257C70.3508 10.4054 70.2756 10.3937 70.2058 10.3655C70.136 10.3374 70.0734 10.2936 70.0226 10.2373Z" fill="white"/>
<path d="M61.3395 9.66839L58.2367 2.0284C58.1838 1.86106 58.0809 1.71462 57.9423 1.60942C57.8037 1.50422 57.6362 1.4455 57.4632 1.44141H57.1906C57.0171 1.44488 56.849 1.50332 56.7098 1.60856C56.5706 1.7138 56.4672 1.86058 56.4142 2.0284L55.0658 5.35773H54.0433C53.8963 5.3593 53.7558 5.41953 53.6522 5.5254C53.5485 5.63128 53.4899 5.77432 53.4892 5.92365V5.92967C53.4899 6.079 53.5485 6.22204 53.6522 6.32792C53.7558 6.43379 53.8963 6.49402 54.0433 6.4956H54.5916L53.3054 9.66839C53.2809 9.73798 53.2679 9.81121 53.2669 9.88512C53.2609 10.0412 53.3151 10.1935 53.418 10.3096C53.4713 10.365 53.5356 10.4082 53.6067 10.4362C53.6777 10.4643 53.7539 10.4765 53.83 10.4721C53.9451 10.4705 54.0569 10.4326 54.15 10.3638C54.2469 10.29 54.3227 10.1913 54.3693 10.0778L55.7889 6.4956H56.7638C56.9109 6.49402 57.0514 6.43379 57.155 6.32792C57.2587 6.22204 57.3173 6.079 57.318 5.92967V5.91462C57.3173 5.76529 57.2587 5.62225 57.155 5.51637C57.0514 5.4105 56.9109 5.35027 56.7638 5.34869H56.2363L57.3269 2.60336L60.2756 10.0778C60.3223 10.1913 60.398 10.29 60.4949 10.3638C60.588 10.4326 60.6998 10.4705 60.815 10.4721C60.8916 10.4769 60.9683 10.4649 61.0399 10.4369C61.1115 10.4088 61.1763 10.3654 61.2299 10.3096C61.3317 10.193 61.3849 10.0408 61.378 9.88512C61.3818 9.81111 61.3696 9.73716 61.3425 9.66839H61.3395Z" fill="white"/>
<path d="M52.0745 9.66839L48.9747 2.0284C48.9214 1.8601 48.8176 1.71298 48.6778 1.60769C48.538 1.50241 48.3693 1.44425 48.1953 1.44141H47.9226C47.7491 1.44488 47.581 1.50332 47.4418 1.60856C47.3026 1.7138 47.1993 1.86058 47.1462 2.0284L45.7978 5.35773H44.7754C44.6284 5.3593 44.4879 5.41953 44.3842 5.5254C44.2805 5.63128 44.222 5.77432 44.2212 5.92365V5.92967C44.222 6.079 44.2805 6.22204 44.3842 6.32792C44.4879 6.43379 44.6284 6.49402 44.7754 6.4956H45.3236L44.0375 9.66839C44.013 9.73798 43.9999 9.81121 43.9989 9.88512C43.9929 10.0412 44.0471 10.1935 44.1501 10.3096C44.2033 10.365 44.2676 10.4082 44.3387 10.4362C44.4097 10.4643 44.4859 10.4765 44.562 10.4721C44.6771 10.4705 44.789 10.4326 44.8821 10.3638C44.979 10.29 45.0547 10.1913 45.1014 10.0778L46.5209 6.4956H47.5018C47.6493 6.4948 47.7906 6.43493 47.8949 6.32897C47.9992 6.22301 48.0582 6.07952 48.0589 5.92967V5.91462C48.0582 5.76477 47.9992 5.62128 47.8949 5.51532C47.7906 5.40936 47.6493 5.34949 47.5018 5.34869H46.9773L48.0589 2.60336L51.0076 10.0778C51.0543 10.1913 51.13 10.29 51.2269 10.3638C51.32 10.4326 51.4318 10.4705 51.547 10.4721C51.6236 10.4769 51.7003 10.4649 51.7719 10.4369C51.8435 10.4088 51.9083 10.3654 51.9619 10.3096C52.0637 10.193 52.1169 10.0408 52.1101 9.88512C52.1138 9.81111 52.1017 9.73716 52.0745 9.66839V9.66839Z" fill="white"/>
</g>
<path d="M82.127 7.96631C82.127 7.55615 82.2402 7.1792 82.4668 6.83545C82.6973 6.4917 83.1348 6.09131 83.7793 5.63428C83.4004 5.17334 83.1465 4.80225 83.0176 4.521C82.8887 4.23975 82.8242 3.96045 82.8242 3.68311C82.8242 3.03467 83.0156 2.52686 83.3984 2.15967C83.7812 1.79248 84.3008 1.60889 84.957 1.60889C85.543 1.60889 86.0273 1.78076 86.4102 2.12451C86.793 2.46436 86.9844 2.89404 86.9844 3.41357C86.9844 3.75732 86.8965 4.07568 86.7207 4.36865C86.5488 4.65771 86.2461 4.9624 85.8125 5.28271L85.1855 5.74561L87.084 8.01318C87.3496 7.50537 87.4824 6.94092 87.4824 6.31982H88.4609C88.4609 7.31592 88.2207 8.14209 87.7402 8.79834L88.959 10.2573H87.6582L87.0898 9.5835C86.8008 9.84131 86.4609 10.0386 86.0703 10.1753C85.6836 10.3081 85.2891 10.3745 84.8867 10.3745C84.0547 10.3745 83.3867 10.1538 82.8828 9.7124C82.3789 9.271 82.127 8.68896 82.127 7.96631ZM84.8867 9.48975C85.4609 9.48975 85.9863 9.271 86.4629 8.8335L84.3828 6.34326L84.1895 6.48389C83.5371 6.96436 83.2109 7.4585 83.2109 7.96631C83.2109 8.42725 83.3594 8.79639 83.6562 9.07373C83.957 9.35107 84.3672 9.48975 84.8867 9.48975ZM83.9082 3.64795C83.9082 4.02295 84.1387 4.4917 84.5996 5.0542L85.291 4.56787C85.5566 4.38037 85.7383 4.20264 85.8359 4.03467C85.9336 3.86279 85.9824 3.65576 85.9824 3.41357C85.9824 3.15186 85.8848 2.93506 85.6895 2.76318C85.4941 2.5874 85.248 2.49951 84.9512 2.49951C84.6309 2.49951 84.377 2.60889 84.1895 2.82764C84.002 3.04248 83.9082 3.31592 83.9082 3.64795Z" fill="white"/>
<defs>
<clipPath id="clip0">
<rect width="32" height="9.03071" fill="white" transform="translate(44 1.44141)"/>
</clipPath>
</defs>
</svg>
