<svg width="327" height="33" viewBox="0 0 327 33" fill="none" xmlns="http://www.w3.org/2000/svg">
<path d="M282.592 18.709C282.592 18.2988 282.705 17.9219 282.932 17.5781C283.162 17.2344 283.6 16.834 284.244 16.377C283.865 15.916 283.611 15.5449 283.482 15.2637C283.354 14.9824 283.289 14.7031 283.289 14.4258C283.289 13.7773 283.48 13.2695 283.863 12.9023C284.246 12.5352 284.766 12.3516 285.422 12.3516C286.008 12.3516 286.492 12.5234 286.875 12.8672C287.258 13.207 287.449 13.6367 287.449 14.1562C287.449 14.5 287.361 14.8184 287.186 15.1113C287.014 15.4004 286.711 15.7051 286.277 16.0254L285.65 16.4883L287.549 18.7559C287.814 18.248 287.947 17.6836 287.947 17.0625H288.926C288.926 18.0586 288.686 18.8848 288.205 19.541L289.424 21H288.123L287.555 20.3262C287.266 20.584 286.926 20.7812 286.535 20.918C286.148 21.0508 285.754 21.1172 285.352 21.1172C284.52 21.1172 283.852 20.8965 283.348 20.4551C282.844 20.0137 282.592 19.4316 282.592 18.709ZM285.352 20.2324C285.926 20.2324 286.451 20.0137 286.928 19.5762L284.848 17.0859L284.654 17.2266C284.002 17.707 283.676 18.2012 283.676 18.709C283.676 19.1699 283.824 19.5391 284.121 19.8164C284.422 20.0938 284.832 20.2324 285.352 20.2324ZM284.373 14.3906C284.373 14.7656 284.604 15.2344 285.064 15.7969L285.756 15.3105C286.021 15.123 286.203 14.9453 286.301 14.7773C286.398 14.6055 286.447 14.3984 286.447 14.1562C286.447 13.8945 286.35 13.6777 286.154 13.5059C285.959 13.3301 285.713 13.2422 285.416 13.2422C285.096 13.2422 284.842 13.3516 284.654 13.5703C284.467 13.7852 284.373 14.0586 284.373 14.3906Z" fill="white"/>
<path d="M5.22656 16.8359H3.35938V21H1.01562V9.625H5.24219C6.58594 9.625 7.6224 9.92448 8.35156 10.5234C9.08073 11.1224 9.44531 11.9688 9.44531 13.0625C9.44531 13.8385 9.27604 14.487 8.9375 15.0078C8.60417 15.5234 8.09635 15.9349 7.41406 16.2422L9.875 20.8906V21H7.35938L5.22656 16.8359ZM3.35938 14.9375H5.25C5.83854 14.9375 6.29427 14.7891 6.61719 14.4922C6.9401 14.1901 7.10156 13.776 7.10156 13.25C7.10156 12.7135 6.94792 12.2917 6.64062 11.9844C6.33854 11.6771 5.8724 11.5234 5.24219 11.5234H3.35938V14.9375ZM14.9766 21.1562C13.737 21.1562 12.7266 20.776 11.9453 20.0156C11.1693 19.2552 10.7812 18.2422 10.7812 16.9766V16.7578C10.7812 15.9089 10.9453 15.151 11.2734 14.4844C11.6016 13.8125 12.0651 13.2969 12.6641 12.9375C13.2682 12.5729 13.9557 12.3906 14.7266 12.3906C15.8828 12.3906 16.7917 12.7552 17.4531 13.4844C18.1198 14.2135 18.4531 15.2474 18.4531 16.5859V17.5078H13.0703C13.1432 18.0599 13.362 18.5026 13.7266 18.8359C14.0964 19.1693 14.5625 19.3359 15.125 19.3359C15.9948 19.3359 16.6745 19.0208 17.1641 18.3906L18.2734 19.6328C17.9349 20.112 17.4766 20.487 16.8984 20.7578C16.3203 21.0234 15.6797 21.1562 14.9766 21.1562ZM14.7188 14.2188C14.2708 14.2188 13.9062 14.3698 13.625 14.6719C13.349 14.974 13.1719 15.4062 13.0938 15.9688H16.2344V15.7891C16.224 15.2891 16.0885 14.9036 15.8281 14.6328C15.5677 14.3568 15.1979 14.2188 14.7188 14.2188ZM24.6406 21C24.5365 20.7969 24.4609 20.5443 24.4141 20.2422C23.8672 20.8516 23.1562 21.1562 22.2812 21.1562C21.4531 21.1562 20.7656 20.9167 20.2188 20.4375C19.6771 19.9583 19.4062 19.3542 19.4062 18.625C19.4062 17.7292 19.737 17.0417 20.3984 16.5625C21.0651 16.0833 22.026 15.8411 23.2812 15.8359H24.3203V15.3516C24.3203 14.9609 24.2188 14.6484 24.0156 14.4141C23.8177 14.1797 23.5026 14.0625 23.0703 14.0625C22.6901 14.0625 22.3906 14.1536 22.1719 14.3359C21.9583 14.5182 21.8516 14.7682 21.8516 15.0859H19.5938C19.5938 14.5964 19.7448 14.1432 20.0469 13.7266C20.349 13.3099 20.776 12.9844 21.3281 12.75C21.8802 12.5104 22.5 12.3906 23.1875 12.3906C24.2292 12.3906 25.0547 12.6536 25.6641 13.1797C26.2786 13.7005 26.5859 14.4349 26.5859 15.3828V19.0469C26.5911 19.849 26.7031 20.4557 26.9219 20.8672V21H24.6406ZM22.7734 19.4297C23.1068 19.4297 23.4141 19.3568 23.6953 19.2109C23.9766 19.0599 24.1849 18.8594 24.3203 18.6094V17.1562H23.4766C22.3464 17.1562 21.7448 17.5469 21.6719 18.3281L21.6641 18.4609C21.6641 18.7422 21.763 18.974 21.9609 19.1562C22.1589 19.3385 22.4297 19.4297 22.7734 19.4297ZM30.7031 21H28.4375V9H30.7031V21ZM36.9609 17.0391H32.5625V15.2188H36.9609V17.0391ZM47.7812 17.7188L49.3125 9.625H51.6484L49.125 21H46.7656L44.9141 13.3906L43.0625 21H40.7031L38.1797 9.625H40.5156L42.0547 17.7031L43.9297 9.625H45.9141L47.7812 17.7188ZM52.1719 16.6953C52.1719 15.8568 52.3333 15.1094 52.6562 14.4531C52.9792 13.7969 53.4427 13.2891 54.0469 12.9297C54.6562 12.5703 55.362 12.3906 56.1641 12.3906C57.3047 12.3906 58.2344 12.7396 58.9531 13.4375C59.6771 14.1354 60.0807 15.0833 60.1641 16.2812L60.1797 16.8594C60.1797 18.1562 59.8177 19.1979 59.0938 19.9844C58.3698 20.7656 57.3984 21.1562 56.1797 21.1562C54.9609 21.1562 53.987 20.7656 53.2578 19.9844C52.5339 19.2031 52.1719 18.1406 52.1719 16.7969V16.6953ZM54.4297 16.8594C54.4297 17.6615 54.5807 18.276 54.8828 18.7031C55.1849 19.125 55.6172 19.3359 56.1797 19.3359C56.7266 19.3359 57.1536 19.1276 57.4609 18.7109C57.7682 18.2891 57.9219 17.6172 57.9219 16.6953C57.9219 15.9089 57.7682 15.2995 57.4609 14.8672C57.1536 14.4349 56.7214 14.2188 56.1641 14.2188C55.612 14.2188 55.1849 14.4349 54.8828 14.8672C54.5807 15.2943 54.4297 15.9583 54.4297 16.8594ZM66.3203 14.6641C66.013 14.6224 65.7422 14.6016 65.5078 14.6016C64.6536 14.6016 64.0938 14.8906 63.8281 15.4688V21H61.5703V12.5469H63.7031L63.7656 13.5547C64.2188 12.7786 64.8464 12.3906 65.6484 12.3906C65.8984 12.3906 66.1328 12.4245 66.3516 12.4922L66.3203 14.6641ZM69.7969 21H67.5312V9H69.7969V21ZM71.3125 16.7109C71.3125 15.3932 71.6068 14.3438 72.1953 13.5625C72.7891 12.7812 73.599 12.3906 74.625 12.3906C75.4479 12.3906 76.1276 12.6979 76.6641 13.3125V9H78.9297V21H76.8906L76.7812 20.1016C76.2188 20.8047 75.4948 21.1562 74.6094 21.1562C73.6146 21.1562 72.8151 20.7656 72.2109 19.9844C71.612 19.1979 71.3125 18.1068 71.3125 16.7109ZM73.5703 16.875C73.5703 17.6667 73.7083 18.2734 73.9844 18.6953C74.2604 19.1172 74.6615 19.3281 75.1875 19.3281C75.8854 19.3281 76.3776 19.0339 76.6641 18.4453V15.1094C76.3828 14.5208 75.8958 14.2266 75.2031 14.2266C74.1146 14.2266 73.5703 15.1094 73.5703 16.875ZM91.2344 18.6562H87.125L86.3438 21H83.8516L88.0859 9.625H90.2578L94.5156 21H92.0234L91.2344 18.6562ZM87.7578 16.7578H90.6016L89.1719 12.5L87.7578 16.7578ZM100.008 18.6641C100.008 18.388 99.8698 18.1719 99.5938 18.0156C99.3229 17.8542 98.8854 17.7109 98.2812 17.5859C96.2708 17.1641 95.2656 16.3099 95.2656 15.0234C95.2656 14.2734 95.5755 13.6484 96.1953 13.1484C96.8203 12.6432 97.6354 12.3906 98.6406 12.3906C99.7135 12.3906 100.57 12.6432 101.211 13.1484C101.857 13.6536 102.18 14.3099 102.18 15.1172H99.9219C99.9219 14.7943 99.8177 14.5286 99.6094 14.3203C99.401 14.1068 99.0755 14 98.6328 14C98.2526 14 97.9583 14.0859 97.75 14.2578C97.5417 14.4297 97.4375 14.6484 97.4375 14.9141C97.4375 15.1641 97.5547 15.3672 97.7891 15.5234C98.0286 15.6745 98.4297 15.8073 98.9922 15.9219C99.5547 16.0312 100.029 16.1562 100.414 16.2969C101.607 16.7344 102.203 17.4922 102.203 18.5703C102.203 19.3411 101.872 19.9661 101.211 20.4453C100.549 20.9193 99.6953 21.1562 98.6484 21.1562C97.9401 21.1562 97.3099 21.0312 96.7578 20.7812C96.2109 20.526 95.7812 20.1797 95.4688 19.7422C95.1562 19.2995 95 18.8229 95 18.3125H97.1406C97.1615 18.7135 97.3099 19.0208 97.5859 19.2344C97.862 19.4479 98.2318 19.5547 98.6953 19.5547C99.1276 19.5547 99.4531 19.474 99.6719 19.3125C99.8958 19.1458 100.008 18.9297 100.008 18.6641ZM108.242 18.6641C108.242 18.388 108.104 18.1719 107.828 18.0156C107.557 17.8542 107.12 17.7109 106.516 17.5859C104.505 17.1641 103.5 16.3099 103.5 15.0234C103.5 14.2734 103.81 13.6484 104.43 13.1484C105.055 12.6432 105.87 12.3906 106.875 12.3906C107.948 12.3906 108.805 12.6432 109.445 13.1484C110.091 13.6536 110.414 14.3099 110.414 15.1172H108.156C108.156 14.7943 108.052 14.5286 107.844 14.3203C107.635 14.1068 107.31 14 106.867 14C106.487 14 106.193 14.0859 105.984 14.2578C105.776 14.4297 105.672 14.6484 105.672 14.9141C105.672 15.1641 105.789 15.3672 106.023 15.5234C106.263 15.6745 106.664 15.8073 107.227 15.9219C107.789 16.0312 108.263 16.1562 108.648 16.2969C109.841 16.7344 110.438 17.4922 110.438 18.5703C110.438 19.3411 110.107 19.9661 109.445 20.4453C108.784 20.9193 107.93 21.1562 106.883 21.1562C106.174 21.1562 105.544 21.0312 104.992 20.7812C104.445 20.526 104.016 20.1797 103.703 19.7422C103.391 19.2995 103.234 18.8229 103.234 18.3125H105.375C105.396 18.7135 105.544 19.0208 105.82 19.2344C106.096 19.4479 106.466 19.5547 106.93 19.5547C107.362 19.5547 107.688 19.474 107.906 19.3125C108.13 19.1458 108.242 18.9297 108.242 18.6641ZM115.789 21.1562C114.549 21.1562 113.539 20.776 112.758 20.0156C111.982 19.2552 111.594 18.2422 111.594 16.9766V16.7578C111.594 15.9089 111.758 15.151 112.086 14.4844C112.414 13.8125 112.878 13.2969 113.477 12.9375C114.081 12.5729 114.768 12.3906 115.539 12.3906C116.695 12.3906 117.604 12.7552 118.266 13.4844C118.932 14.2135 119.266 15.2474 119.266 16.5859V17.5078H113.883C113.956 18.0599 114.174 18.5026 114.539 18.8359C114.909 19.1693 115.375 19.3359 115.938 19.3359C116.807 19.3359 117.487 19.0208 117.977 18.3906L119.086 19.6328C118.747 20.112 118.289 20.487 117.711 20.7578C117.133 21.0234 116.492 21.1562 115.789 21.1562ZM115.531 14.2188C115.083 14.2188 114.719 14.3698 114.438 14.6719C114.161 14.974 113.984 15.4062 113.906 15.9688H117.047V15.7891C117.036 15.2891 116.901 14.9036 116.641 14.6328C116.38 14.3568 116.01 14.2188 115.531 14.2188ZM123.258 10.4688V12.5469H124.703V14.2031H123.258V18.4219C123.258 18.7344 123.318 18.9583 123.438 19.0938C123.557 19.2292 123.786 19.2969 124.125 19.2969C124.375 19.2969 124.596 19.2786 124.789 19.2422V20.9531C124.346 21.0885 123.891 21.1562 123.422 21.1562C121.839 21.1562 121.031 20.3568 121 18.7578V14.2031H119.766V12.5469H121V10.4688H123.258ZM133.156 9.625L136.078 17.875L138.984 9.625H142.062V21H139.711V17.8906L139.945 12.5234L136.875 21H135.266L132.203 12.5312L132.438 17.8906V21H130.094V9.625H133.156ZM148.859 21C148.755 20.7969 148.68 20.5443 148.633 20.2422C148.086 20.8516 147.375 21.1562 146.5 21.1562C145.672 21.1562 144.984 20.9167 144.438 20.4375C143.896 19.9583 143.625 19.3542 143.625 18.625C143.625 17.7292 143.956 17.0417 144.617 16.5625C145.284 16.0833 146.245 15.8411 147.5 15.8359H148.539V15.3516C148.539 14.9609 148.438 14.6484 148.234 14.4141C148.036 14.1797 147.721 14.0625 147.289 14.0625C146.909 14.0625 146.609 14.1536 146.391 14.3359C146.177 14.5182 146.07 14.7682 146.07 15.0859H143.812C143.812 14.5964 143.964 14.1432 144.266 13.7266C144.568 13.3099 144.995 12.9844 145.547 12.75C146.099 12.5104 146.719 12.3906 147.406 12.3906C148.448 12.3906 149.273 12.6536 149.883 13.1797C150.497 13.7005 150.805 14.4349 150.805 15.3828V19.0469C150.81 19.849 150.922 20.4557 151.141 20.8672V21H148.859ZM146.992 19.4297C147.326 19.4297 147.633 19.3568 147.914 19.2109C148.195 19.0599 148.404 18.8594 148.539 18.6094V17.1562H147.695C146.565 17.1562 145.964 17.5469 145.891 18.3281L145.883 18.4609C145.883 18.7422 145.982 18.974 146.18 19.1562C146.378 19.3385 146.648 19.4297 146.992 19.4297ZM157.289 14.6641C156.982 14.6224 156.711 14.6016 156.477 14.6016C155.622 14.6016 155.062 14.8906 154.797 15.4688V21H152.539V12.5469H154.672L154.734 13.5547C155.188 12.7786 155.815 12.3906 156.617 12.3906C156.867 12.3906 157.102 12.4245 157.32 12.4922L157.289 14.6641ZM161.453 17.6094L160.641 18.4219V21H158.383V9H160.641V15.6484L161.078 15.0859L163.242 12.5469H165.953L162.898 16.0703L166.219 21H163.625L161.453 17.6094ZM170.664 21.1562C169.424 21.1562 168.414 20.776 167.633 20.0156C166.857 19.2552 166.469 18.2422 166.469 16.9766V16.7578C166.469 15.9089 166.633 15.151 166.961 14.4844C167.289 13.8125 167.753 13.2969 168.352 12.9375C168.956 12.5729 169.643 12.3906 170.414 12.3906C171.57 12.3906 172.479 12.7552 173.141 13.4844C173.807 14.2135 174.141 15.2474 174.141 16.5859V17.5078H168.758C168.831 18.0599 169.049 18.5026 169.414 18.8359C169.784 19.1693 170.25 19.3359 170.812 19.3359C171.682 19.3359 172.362 19.0208 172.852 18.3906L173.961 19.6328C173.622 20.112 173.164 20.487 172.586 20.7578C172.008 21.0234 171.367 21.1562 170.664 21.1562ZM170.406 14.2188C169.958 14.2188 169.594 14.3698 169.312 14.6719C169.036 14.974 168.859 15.4062 168.781 15.9688H171.922V15.7891C171.911 15.2891 171.776 14.9036 171.516 14.6328C171.255 14.3568 170.885 14.2188 170.406 14.2188ZM178.133 10.4688V12.5469H179.578V14.2031H178.133V18.4219C178.133 18.7344 178.193 18.9583 178.312 19.0938C178.432 19.2292 178.661 19.2969 179 19.2969C179.25 19.2969 179.471 19.2786 179.664 19.2422V20.9531C179.221 21.0885 178.766 21.1562 178.297 21.1562C176.714 21.1562 175.906 20.3568 175.875 18.7578V14.2031H174.641V12.5469H175.875V10.4688H178.133Z" fill="white"/>
<path d="M197.99 21V12.4688H200.779C201.705 12.4688 202.4 12.6602 202.865 13.043C203.334 13.4258 203.568 13.9922 203.568 14.7422C203.568 15.1406 203.455 15.4941 203.229 15.8027C203.002 16.1074 202.693 16.3438 202.303 16.5117C202.764 16.6406 203.127 16.8867 203.393 17.25C203.662 17.6094 203.797 18.0391 203.797 18.5391C203.797 19.3047 203.549 19.9062 203.053 20.3438C202.557 20.7812 201.855 21 200.949 21H197.99ZM199.115 17.0098V20.0801H200.973C201.496 20.0801 201.908 19.9453 202.209 19.6758C202.514 19.4023 202.666 19.0273 202.666 18.5508C202.666 17.5234 202.107 17.0098 200.99 17.0098H199.115ZM199.115 16.1074H200.814C201.307 16.1074 201.699 15.9844 201.992 15.7383C202.289 15.4922 202.438 15.1582 202.438 14.7363C202.438 14.2676 202.301 13.9277 202.027 13.7168C201.754 13.502 201.338 13.3945 200.779 13.3945H199.115V16.1074ZM209.211 20.373C208.789 20.8691 208.17 21.1172 207.354 21.1172C206.678 21.1172 206.162 20.9219 205.807 20.5312C205.455 20.1367 205.277 19.5547 205.273 18.7852V14.6602H206.357V18.7559C206.357 19.7168 206.748 20.1973 207.529 20.1973C208.357 20.1973 208.908 19.8887 209.182 19.2715V14.6602H210.266V21H209.234L209.211 20.373ZM213.096 21H212.012V14.6602H213.096V21ZM211.924 12.9785C211.924 12.8027 211.977 12.6543 212.082 12.5332C212.191 12.4121 212.352 12.3516 212.562 12.3516C212.773 12.3516 212.934 12.4121 213.043 12.5332C213.152 12.6543 213.207 12.8027 213.207 12.9785C213.207 13.1543 213.152 13.3008 213.043 13.418C212.934 13.5352 212.773 13.5938 212.562 13.5938C212.352 13.5938 212.191 13.5352 212.082 13.418C211.977 13.3008 211.924 13.1543 211.924 12.9785ZM216.014 21H214.93V12H216.014V21ZM219.225 13.125V14.6602H220.408V15.498H219.225V19.4297C219.225 19.6836 219.277 19.875 219.383 20.0039C219.488 20.1289 219.668 20.1914 219.922 20.1914C220.047 20.1914 220.219 20.168 220.438 20.1211V21C220.152 21.0781 219.875 21.1172 219.605 21.1172C219.121 21.1172 218.756 20.9707 218.51 20.6777C218.264 20.3848 218.141 19.9688 218.141 19.4297V15.498H216.986V14.6602H218.141V13.125H219.225ZM224.369 17.7715C224.369 17.1504 224.49 16.5918 224.732 16.0957C224.979 15.5996 225.318 15.2168 225.752 14.9473C226.189 14.6777 226.688 14.543 227.246 14.543C228.109 14.543 228.807 14.8418 229.338 15.4395C229.873 16.0371 230.141 16.832 230.141 17.8242V17.9004C230.141 18.5176 230.021 19.0723 229.783 19.5645C229.549 20.0527 229.211 20.4336 228.77 20.707C228.332 20.9805 227.828 21.1172 227.258 21.1172C226.398 21.1172 225.701 20.8184 225.166 20.2207C224.635 19.623 224.369 18.832 224.369 17.8477V17.7715ZM225.459 17.9004C225.459 18.6035 225.621 19.168 225.945 19.5938C226.273 20.0195 226.711 20.2324 227.258 20.2324C227.809 20.2324 228.246 20.0176 228.57 19.5879C228.895 19.1543 229.057 18.5488 229.057 17.7715C229.057 17.0762 228.891 16.5137 228.559 16.084C228.23 15.6504 227.793 15.4336 227.246 15.4336C226.711 15.4336 226.279 15.6465 225.951 16.0723C225.623 16.498 225.459 17.1074 225.459 17.9004ZM232.525 14.6602L232.561 15.457C233.045 14.8477 233.678 14.543 234.459 14.543C235.799 14.543 236.475 15.2988 236.486 16.8105V21H235.402V16.8047C235.398 16.3477 235.293 16.0098 235.086 15.791C234.883 15.5723 234.564 15.4629 234.131 15.4629C233.779 15.4629 233.471 15.5566 233.205 15.7441C232.939 15.9316 232.732 16.1777 232.584 16.4824V21H231.5V14.6602H232.525Z" fill="white"/>
<mask id="mask0" style="mask-type:alpha" maskUnits="userSpaceOnUse" x="242" y="11" width="11" height="9">
<path fill-rule="evenodd" clip-rule="evenodd" d="M242 11H252.649V19.6079H242V11Z" fill="white"/>
</mask>
<g mask="url(#mask0)">
<path fill-rule="evenodd" clip-rule="evenodd" d="M243.247 19.2882C242.93 18.6085 242.754 17.8501 242.754 17.0503C242.754 14.1265 245.116 11.7563 248.03 11.7563C249.652 11.7563 251.104 12.4912 252.071 13.6474L252.649 13.1612C251.543 11.8399 249.884 11 248.03 11C244.7 11 242 13.7088 242 17.0503C242 17.9644 242.202 18.8311 242.564 19.6079L243.247 19.2882Z" fill="white"/>
</g>
<path fill-rule="evenodd" clip-rule="evenodd" d="M248.03 20.6427C246.052 20.6427 244.45 19.0344 244.45 17.0503C244.45 15.0663 246.052 13.4579 248.03 13.4579C249.131 13.4579 250.115 13.9568 250.772 14.7413L251.35 14.255C250.555 13.3054 249.363 12.7017 248.03 12.7017C245.636 12.7017 243.696 14.6486 243.696 17.0503C243.696 19.452 245.636 21.399 248.03 21.399V20.6427Z" fill="white"/>
<path fill-rule="evenodd" clip-rule="evenodd" d="M249.329 18.144C249.018 18.5157 248.551 18.7519 248.03 18.7519C247.093 18.7519 246.334 17.9901 246.334 17.0503C246.334 16.1105 247.093 15.3486 248.03 15.3486C248.551 15.3486 249.018 15.5849 249.329 15.9565L249.978 15.4097C249.512 14.8522 248.812 14.4978 248.03 14.4978C246.625 14.4978 245.486 15.6406 245.486 17.0503C245.486 18.46 246.625 19.6028 248.03 19.6028C248.747 19.6028 249.394 19.305 249.856 18.8262L249.329 18.144Z" fill="white"/>
<path fill-rule="evenodd" clip-rule="evenodd" d="M253.914 16.2221H254.689V16.7473H254.703C254.775 16.5836 254.901 16.4393 255.08 16.3142C255.259 16.1892 255.471 16.1266 255.716 16.1266C255.928 16.1266 256.111 16.1641 256.263 16.2392C256.415 16.3142 256.539 16.4131 256.637 16.5358C256.734 16.6586 256.805 16.7996 256.851 16.9588C256.896 17.118 256.919 17.2817 256.919 17.4499V19.4962H256.103V17.6818C256.103 17.5863 256.096 17.4863 256.083 17.3817C256.069 17.2771 256.04 17.1828 255.994 17.0986C255.949 17.0145 255.887 16.9451 255.807 16.8906C255.728 16.836 255.623 16.8087 255.491 16.8087C255.36 16.8087 255.246 16.8349 255.151 16.8872C255.056 16.9395 254.978 17.0065 254.917 17.0884C254.856 17.1702 254.809 17.2647 254.777 17.3714C254.746 17.4783 254.73 17.5863 254.73 17.6954V19.4962H253.914V16.2221Z" fill="white"/>
<path fill-rule="evenodd" clip-rule="evenodd" d="M257.265 16.8769V16.2221H257.836V15.2739H258.638V16.2221H259.454V16.8769H258.638V18.398C258.638 18.5435 258.665 18.664 258.717 18.7595C258.769 18.855 258.885 18.9027 259.067 18.9027C259.121 18.9027 259.18 18.8971 259.243 18.8857C259.307 18.8744 259.364 18.8573 259.413 18.8345L259.441 19.4757C259.368 19.503 259.282 19.5245 259.182 19.5405C259.083 19.5564 258.987 19.5644 258.897 19.5644C258.679 19.5644 258.503 19.5337 258.367 19.4723C258.231 19.4109 258.123 19.3268 258.044 19.2199C257.964 19.1131 257.91 18.9903 257.881 18.8516C257.851 18.7129 257.836 18.564 257.836 18.4048V16.8769H257.265Z" fill="white"/>
<path fill-rule="evenodd" clip-rule="evenodd" d="M259.944 16.2221H260.725V16.7678H260.739C260.83 16.5768 260.957 16.4223 261.12 16.3039C261.283 16.1858 261.473 16.1266 261.691 16.1266C261.722 16.1266 261.756 16.1278 261.793 16.13C261.829 16.1324 261.861 16.138 261.888 16.1471V16.8974C261.834 16.8837 261.787 16.8747 261.749 16.8701C261.71 16.8656 261.673 16.8633 261.636 16.8633C261.451 16.8633 261.301 16.8974 261.188 16.9656C261.074 17.0338 260.986 17.1156 260.923 17.2111C260.859 17.3067 260.816 17.4045 260.793 17.5045C260.771 17.6045 260.759 17.6841 260.759 17.7432V19.4962H259.944V16.2221Z" fill="white"/>
<path fill-rule="evenodd" clip-rule="evenodd" d="M262.262 19.4962H263.077V16.2221H262.262V19.4962ZM262.146 15.1102C262.146 14.9784 262.195 14.8636 262.292 14.7658C262.39 14.668 262.513 14.6191 262.663 14.6191C262.812 14.6191 262.938 14.6658 263.04 14.759C263.142 14.8522 263.193 14.9694 263.193 15.1102C263.193 15.2512 263.142 15.3684 263.04 15.4615C262.938 15.5548 262.812 15.6014 262.663 15.6014C262.513 15.6014 262.39 15.5525 262.292 15.4547C262.195 15.357 262.146 15.2422 262.146 15.1102Z" fill="white"/>
<path fill-rule="evenodd" clip-rule="evenodd" d="M264.131 16.8768H263.513V16.222H264.131V15.9772C264.131 15.7817 264.153 15.5941 264.196 15.4144C264.239 15.2349 264.311 15.0768 264.413 14.9404C264.515 14.804 264.65 14.696 264.818 14.6164C264.985 14.5369 265.196 14.497 265.45 14.497C265.541 14.497 265.617 14.5004 265.678 14.5072C265.739 14.5141 265.801 14.5267 265.865 14.5448L265.81 15.2405C265.765 15.2269 265.716 15.2156 265.664 15.2064C265.612 15.1973 265.556 15.1928 265.498 15.1928C265.38 15.1928 265.285 15.2156 265.212 15.261C265.139 15.3065 265.084 15.3656 265.046 15.4383C265.007 15.5111 264.981 15.5907 264.967 15.6771C264.954 15.7635 264.947 15.8476 264.947 15.9294V16.222H265.701V16.8768H264.947V19.4961H264.131V16.8768Z" fill="white"/>
<path fill-rule="evenodd" clip-rule="evenodd" d="M269.114 19.4961H268.339V18.9709H268.326C268.253 19.1346 268.127 19.279 267.948 19.404C267.769 19.5291 267.557 19.5916 267.313 19.5916C267.1 19.5916 266.917 19.5541 266.765 19.4791C266.614 19.404 266.489 19.3051 266.392 19.1824C266.294 19.0596 266.223 18.9187 266.177 18.7595C266.132 18.6003 266.109 18.4366 266.109 18.2684V16.222H266.925V18.0364C266.925 18.1319 266.932 18.232 266.946 18.3366C266.959 18.4412 266.989 18.5356 267.034 18.6196C267.079 18.7039 267.142 18.7731 267.221 18.8277C267.3 18.8822 267.406 18.9095 267.537 18.9095C267.664 18.9095 267.776 18.8834 267.874 18.8311C267.971 18.7788 268.05 18.7117 268.111 18.6299C268.173 18.548 268.219 18.4537 268.251 18.3468C268.282 18.24 268.298 18.1319 268.298 18.0228V16.222H269.114V19.4961Z" fill="white"/>
<path fill-rule="evenodd" clip-rule="evenodd" d="M251.192 16.9622C251.362 16.8145 251.569 16.7405 251.814 16.7405C251.945 16.7405 252.06 16.7621 252.157 16.8053C252.255 16.8486 252.335 16.9065 252.399 16.9792C252.462 17.052 252.509 17.1361 252.538 17.2316C252.567 17.3271 252.582 17.4272 252.582 17.5317H250.91C250.928 17.2998 251.022 17.11 251.192 16.9622ZM252.705 18.5003C252.614 18.6323 252.498 18.7357 252.358 18.8106C252.217 18.8857 252.045 18.9232 251.841 18.9232C251.723 18.9232 251.61 18.9028 251.501 18.8618C251.393 18.8209 251.295 18.7652 251.209 18.6947C251.123 18.6243 251.054 18.5402 251.002 18.4423C250.95 18.3446 250.919 18.2366 250.91 18.1184H253.391C253.396 18.082 253.398 18.0457 253.398 18.0092V17.9001C253.398 17.6045 253.358 17.3465 253.279 17.1259C253.2 16.9054 253.09 16.7212 252.949 16.5734C252.809 16.4257 252.642 16.3142 252.45 16.2392C252.257 16.1641 252.047 16.1266 251.821 16.1266C251.576 16.1266 251.348 16.1687 251.138 16.2528C250.927 16.337 250.744 16.4552 250.59 16.6075C250.436 16.7599 250.315 16.9441 250.227 17.16C250.138 17.376 250.094 17.6159 250.094 17.8796C250.094 18.1479 250.138 18.3877 250.227 18.5992C250.315 18.8106 250.438 18.9892 250.594 19.1347C250.75 19.2803 250.935 19.3928 251.148 19.4723C251.361 19.5518 251.594 19.5917 251.848 19.5917C252.396 19.5917 252.827 19.4165 253.143 19.0665L252.705 18.5003Z" fill="white"/>
<path fill-rule="evenodd" clip-rule="evenodd" d="M274.703 16.9622C274.873 16.8145 275.08 16.7405 275.325 16.7405C275.457 16.7405 275.571 16.7621 275.669 16.8053C275.766 16.8486 275.846 16.9065 275.91 16.9792C275.973 17.052 276.02 17.1361 276.049 17.2316C276.079 17.3271 276.093 17.4272 276.093 17.5317H274.421C274.439 17.2998 274.533 17.11 274.703 16.9622ZM276.216 18.5003C276.125 18.6323 276.009 18.7357 275.869 18.8106C275.728 18.8857 275.556 18.9232 275.352 18.9232C275.234 18.9232 275.121 18.9028 275.012 18.8618C274.904 18.8209 274.806 18.7652 274.72 18.6947C274.634 18.6243 274.565 18.5402 274.513 18.4423C274.461 18.3446 274.43 18.2366 274.421 18.1184H276.902C276.907 18.082 276.909 18.0457 276.909 18.0092V17.9001C276.909 17.6045 276.869 17.3465 276.79 17.1259C276.711 16.9054 276.601 16.7212 276.46 16.5734C276.32 16.4257 276.153 16.3142 275.961 16.2392C275.768 16.1641 275.559 16.1266 275.332 16.1266C275.087 16.1266 274.86 16.1687 274.649 16.2528C274.438 16.337 274.256 16.4552 274.102 16.6075C273.947 16.7599 273.826 16.9441 273.738 17.16C273.649 17.376 273.605 17.6159 273.605 17.8796C273.605 18.1479 273.649 18.3877 273.738 18.5992C273.826 18.8106 273.949 18.9892 274.105 19.1347C274.261 19.2803 274.446 19.3928 274.659 19.4723C274.872 19.5518 275.105 19.5917 275.359 19.5917C275.907 19.5917 276.338 19.4165 276.654 19.0665L276.216 18.5003Z" fill="white"/>
<path fill-rule="evenodd" clip-rule="evenodd" d="M272.261 18.2262C272.216 18.3508 272.151 18.4607 272.067 18.5559C271.983 18.6511 271.881 18.727 271.761 18.7837C271.641 18.8404 271.506 18.8686 271.357 18.8686C271.212 18.8686 271.082 18.8392 270.966 18.7802C270.85 18.7213 270.753 18.6431 270.674 18.5457C270.594 18.4483 270.533 18.3383 270.49 18.2159C270.447 18.0936 270.426 17.9668 270.426 17.8352C270.426 17.6903 270.447 17.5543 270.49 17.4274C270.533 17.3004 270.594 17.1905 270.674 17.0976C270.753 17.0047 270.85 16.931 270.966 16.8766C271.082 16.8223 271.214 16.795 271.364 16.795C271.513 16.795 271.647 16.8223 271.765 16.8766C271.883 16.931 271.983 17.0058 272.067 17.101C272.151 17.1962 272.216 17.3072 272.261 17.434C272.306 17.561 272.329 17.6948 272.329 17.8352C272.329 17.9712 272.306 18.1016 272.261 18.2262ZM272.329 16.222V16.7131H272.315C272.197 16.5131 272.039 16.3653 271.839 16.2698C271.64 16.1743 271.425 16.1265 271.194 16.1265C270.949 16.1265 270.728 16.172 270.531 16.263C270.334 16.354 270.166 16.4767 270.028 16.6313C269.89 16.7859 269.783 16.9679 269.708 17.177C269.634 17.3862 269.596 17.609 269.596 17.8454C269.596 18.0773 269.635 18.2968 269.712 18.5037C269.789 18.7106 269.896 18.8914 270.035 19.0459C270.173 19.2006 270.342 19.3234 270.541 19.4142C270.74 19.5052 270.963 19.5507 271.207 19.5507C271.434 19.5507 271.639 19.5082 271.822 19.4232C272.006 19.3383 272.157 19.2154 272.275 19.0546H272.288V19.2942C272.288 19.4585 272.271 19.6091 272.237 19.746C272.203 19.8829 272.146 20.0016 272.067 20.102C271.988 20.2024 271.881 20.2811 271.748 20.3382C271.614 20.3952 271.45 20.4238 271.255 20.4238C271.051 20.4238 270.849 20.3839 270.65 20.3044C270.456 20.2269 270.281 20.1159 270.125 19.9716L269.644 20.5943C269.748 20.6806 269.866 20.758 269.997 20.8262C270.129 20.8944 270.266 20.9512 270.409 20.9967C270.551 21.0421 270.696 21.0763 270.844 21.099C270.991 21.1217 271.13 21.1332 271.262 21.1332C271.579 21.1332 271.853 21.0876 272.084 20.9967C272.315 20.9057 272.507 20.7773 272.659 20.6114C272.81 20.4453 272.923 20.243 272.995 20.0043C273.068 19.7656 273.104 19.4983 273.104 19.2028V16.222H272.329Z" fill="white"/>
<g clip-path="url(#clip0)">
<path d="M314.737 20.4437L311.637 12.8037C311.613 12.7341 311.6 12.6609 311.599 12.587C311.593 12.4309 311.647 12.2786 311.75 12.1626C311.803 12.1071 311.867 12.064 311.938 12.0359C312.009 12.0079 312.086 11.9956 312.162 12C312.277 12.0017 312.389 12.0395 312.482 12.1084C312.579 12.1821 312.654 12.2809 312.701 12.3944L315.65 19.8688L318.598 12.3944C318.646 12.2805 318.723 12.1817 318.821 12.1084C318.914 12.0395 319.026 12.0017 319.141 12C319.216 11.9961 319.292 12.0085 319.362 12.0366C319.433 12.0646 319.497 12.1075 319.55 12.1626C319.654 12.2781 319.709 12.4305 319.704 12.587C319.703 12.6609 319.69 12.7341 319.665 12.8037L316.565 20.4437C316.512 20.6115 316.409 20.7583 316.27 20.8636C316.131 20.9688 315.963 21.0273 315.789 21.0307H315.513C315.34 21.0273 315.172 20.9688 315.033 20.8636C314.893 20.7583 314.79 20.6115 314.737 20.4437Z" fill="white"/>
<path d="M321.023 20.7959C320.97 20.7422 320.929 20.6783 320.901 20.6079C320.874 20.5375 320.861 20.4622 320.863 20.3865V12.6502C320.861 12.5728 320.874 12.4957 320.901 12.4233C320.929 12.351 320.97 12.2849 321.023 12.2288C321.074 12.1733 321.137 12.1296 321.206 12.1005C321.276 12.0715 321.351 12.0577 321.426 12.0602H326.464C326.535 12.0585 326.605 12.0721 326.67 12.1001C326.736 12.1281 326.795 12.1699 326.843 12.2228C326.894 12.2723 326.935 12.3321 326.963 12.3984C326.99 12.4647 327.004 12.5361 327.003 12.6081C327.005 12.6793 326.992 12.7502 326.964 12.8157C326.936 12.8812 326.895 12.9398 326.843 12.9874C326.793 13.0379 326.733 13.0778 326.667 13.1047C326.602 13.1315 326.531 13.1449 326.461 13.1439H322.006V15.9615H326.013C326.084 15.9597 326.155 15.9733 326.22 16.0013C326.285 16.0294 326.344 16.0712 326.392 16.124C326.443 16.174 326.484 16.2339 326.511 16.3001C326.539 16.3663 326.553 16.4375 326.553 16.5094C326.555 16.5806 326.541 16.6514 326.514 16.7169C326.486 16.7824 326.445 16.841 326.392 16.8886C326.343 16.9388 326.283 16.9785 326.218 17.0054C326.153 17.0322 326.083 17.0458 326.013 17.0452H322.006V19.8748H326.461C326.532 19.8726 326.603 19.886 326.669 19.914C326.735 19.9421 326.794 19.9841 326.843 20.0374C326.895 20.0872 326.936 20.1475 326.963 20.2144C326.991 20.2812 327.004 20.3532 327.003 20.4257C327.005 20.4969 326.992 20.5677 326.964 20.6332C326.936 20.6987 326.895 20.7573 326.843 20.805C326.792 20.855 326.733 20.8943 326.667 20.9206C326.601 20.947 326.531 20.9599 326.461 20.9585H321.426C321.351 20.964 321.276 20.9523 321.206 20.9241C321.136 20.896 321.073 20.8522 321.023 20.7959Z" fill="white"/>
<path d="M312.339 20.227L309.237 12.587C309.184 12.4197 309.081 12.2732 308.942 12.168C308.804 12.0628 308.636 12.0041 308.463 12H308.191C308.017 12.0035 307.849 12.0619 307.71 12.1672C307.571 12.2724 307.467 12.4192 307.414 12.587L306.066 15.9163H305.043C304.896 15.9179 304.756 15.9781 304.652 16.084C304.548 16.1899 304.49 16.3329 304.489 16.4822V16.4883C304.49 16.6376 304.548 16.7806 304.652 16.8865C304.756 16.9924 304.896 17.0526 305.043 17.0542H305.592L304.305 20.227C304.281 20.2966 304.268 20.3698 304.267 20.4437C304.261 20.5998 304.315 20.7521 304.418 20.8682C304.471 20.9236 304.536 20.9668 304.607 20.9948C304.678 21.0228 304.754 21.0351 304.83 21.0307C304.945 21.0291 305.057 20.9912 305.15 20.9223C305.247 20.8486 305.323 20.7499 305.369 20.6364L306.789 17.0542H307.764C307.911 17.0526 308.051 16.9924 308.155 16.8865C308.259 16.7806 308.317 16.6376 308.318 16.4883V16.4732C308.317 16.3239 308.259 16.1808 308.155 16.075C308.051 15.9691 307.911 15.9089 307.764 15.9073H307.236L308.327 13.162L311.276 20.6364C311.322 20.7499 311.398 20.8486 311.495 20.9223C311.588 20.9912 311.7 21.0291 311.815 21.0307C311.892 21.0355 311.968 21.0235 312.04 20.9954C312.111 20.9674 312.176 20.924 312.23 20.8682C312.332 20.7516 312.385 20.5994 312.378 20.4437C312.382 20.3697 312.37 20.2958 312.342 20.227H312.339Z" fill="white"/>
<path d="M303.074 20.227L299.975 12.587C299.921 12.4187 299.818 12.2716 299.678 12.1663C299.538 12.061 299.369 12.0028 299.195 12H298.923C298.749 12.0035 298.581 12.0619 298.442 12.1672C298.303 12.2724 298.199 12.4192 298.146 12.587L296.798 15.9163H295.775C295.628 15.9179 295.488 15.9781 295.384 16.084C295.281 16.1899 295.222 16.3329 295.221 16.4822V16.4883C295.222 16.6376 295.281 16.7806 295.384 16.8865C295.488 16.9924 295.628 17.0526 295.775 17.0542H296.324L295.037 20.227C295.013 20.2966 295 20.3698 294.999 20.4437C294.993 20.5998 295.047 20.7521 295.15 20.8682C295.203 20.9236 295.268 20.9668 295.339 20.9948C295.41 21.0228 295.486 21.0351 295.562 21.0307C295.677 21.0291 295.789 20.9912 295.882 20.9223C295.979 20.8486 296.055 20.7499 296.101 20.6364L297.521 17.0542H298.502C298.649 17.0534 298.791 16.9935 298.895 16.8876C298.999 16.7816 299.058 16.6381 299.059 16.4883V16.4732C299.058 16.3234 298.999 16.1799 298.895 16.0739C298.791 15.968 298.649 15.9081 298.502 15.9073H297.977L299.059 13.162L302.008 20.6364C302.054 20.7499 302.13 20.8486 302.227 20.9223C302.32 20.9912 302.432 21.0291 302.547 21.0307C302.624 21.0355 302.7 21.0235 302.772 20.9954C302.844 20.9674 302.908 20.924 302.962 20.8682C303.064 20.7516 303.117 20.5994 303.11 20.4437C303.114 20.3697 303.102 20.2958 303.074 20.227Z" fill="white"/>
</g>
<defs>
<clipPath id="clip0">
<rect width="32" height="9.03071" fill="white" transform="translate(295 12)"/>
</clipPath>
</defs>
</svg>
