<svg width="180" height="79" viewBox="0 0 180 79" fill="none" xmlns="http://www.w3.org/2000/svg">
<path opacity="0.5" d="M148 29.4804C148 13.1988 134.569 0 118 0C101.431 0 88 13.1988 88 29.4804V30.5196C88 46.8012 101.431 60 118 60C134.569 60 148 46.8012 148 30.5196V29.4804Z" fill="#383D51"/>
<path d="M180 29.4804C180 13.1988 166.569 0 150 0C133.431 0 120 13.1988 120 29.4804V30.5196C120 46.8012 133.431 60 150 60C166.569 60 180 46.8012 180 30.5196V29.4804Z" fill="#383D51"/>
<path opacity="0.5" d="M92 30C92 13.4315 78.5685 0 62 0C45.4315 0 32 13.4315 32 30C32 46.5685 45.4315 60 62 60C78.5685 60 92 46.5685 92 30Z" fill="#383D51"/>
<path d="M60 30C60 13.4315 46.5685 0 30 0C13.4315 0 0 13.4315 0 30C0 46.5685 13.4315 60 30 60C46.5685 60 60 46.5685 60 30Z" fill="#383D51"/>
<path opacity="0.5" d="M120 30C120 13.4315 106.569 0 90 0C73.4315 0 60 13.4315 60 30C60 46.5685 73.4315 60 90 60C106.569 60 120 46.5685 120 30Z" fill="#383D51"/>
<path d="M117.246 78.468C117.144 78.5715 117.005 78.63 116.86 78.6306C116.715 78.6313 116.576 78.574 116.473 78.4715C116.371 78.369 116.312 78.2296 116.312 78.084C116.311 77.9384 116.368 77.7985 116.47 77.695L120.405 73.739H107.419C107.347 73.7396 107.276 73.7259 107.21 73.6987C107.143 73.6716 107.082 73.6315 107.031 73.5808C106.98 73.5301 106.939 73.4697 106.911 73.4032C106.883 73.3367 106.869 73.2653 106.868 73.193C106.869 73.0463 106.927 72.9057 107.03 72.8019C107.133 72.6981 107.273 72.6396 107.419 72.639H120.405L116.47 68.689C116.369 68.5845 116.313 68.4447 116.313 68.299C116.313 68.1534 116.369 68.0135 116.47 67.909C116.521 67.8573 116.581 67.8162 116.648 67.7881C116.714 67.76 116.786 67.7456 116.858 67.7456C116.93 67.7456 117.001 67.76 117.068 67.7881C117.135 67.8162 117.195 67.8573 117.246 67.909L122.113 72.802C122.213 72.9051 122.27 73.0439 122.27 73.1885C122.27 73.3332 122.213 73.472 122.113 73.575L117.246 78.468Z" fill="#383D51"/>
<path d="M51.832 73.2874H102.898" stroke="#383D51" stroke-width="1.5" stroke-linecap="round" stroke-dasharray="7 7"/>
<path d="M26 29V25C26 22.7909 27.7909 21 30 21C32.2091 21 34 22.7909 34 25M30 33V35M24 39H36C37.1046 39 38 38.1046 38 37V31C38 29.8954 37.1046 29 36 29H24C22.8954 29 22 29.8954 22 31V37C22 38.1046 22.8954 39 24 39Z" stroke="white" stroke-width="2" stroke-linecap="round"/>
<path d="M154 29V30H155V29H154ZM146 29H145V30H146V29ZM151 33C151 32.4477 150.552 32 150 32C149.448 32 149 32.4477 149 33H151ZM149 35C149 35.5523 149.448 36 150 36C150.552 36 151 35.5523 151 35H149ZM144 30H156V28H144V30ZM157 31V37H159V31H157ZM156 38H144V40H156V38ZM143 37V31H141V37H143ZM144 38C143.448 38 143 37.5523 143 37H141C141 38.6569 142.343 40 144 40V38ZM157 37C157 37.5523 156.552 38 156 38V40C157.657 40 159 38.6569 159 37H157ZM156 30C156.552 30 157 30.4477 157 31H159C159 29.3431 157.657 28 156 28V30ZM144 28C142.343 28 141 29.3431 141 31H143C143 30.4477 143.448 30 144 30V28ZM153 25V29H155V25H153ZM154 28H146V30H154V28ZM147 29V25H145V29H147ZM150 22C151.657 22 153 23.3431 153 25H155C155 22.2386 152.761 20 150 20V22ZM150 20C147.239 20 145 22.2386 145 25H147C147 23.3431 148.343 22 150 22V20ZM149 33V35H151V33H149Z" fill="white"/>
</svg>
