<svg xmlns="http://www.w3.org/2000/svg" width="30" height="30" viewBox="0 0 30 30">
  <g fill="none" stroke="#383d51" stroke-width="0.5px">
    <circle cx="15" cy="15" r="15" stroke="none"/>
    <circle cx="15" cy="15" r="14.75"/>
  </g>
  <path fill="#383d51" d="M12.1 5.483h1.512V7H12.1zM9.075 7h1.512V5.483H9.075zm-2.3-5.7A.757.757 0 0 0 5.7.222L.221 5.7a.757.757 0 0 0-.095.115c-.013.019-.021.04-.032.059a.756.756 0 0 0-.038.072.739.739 0 0 0-.025.078.484.484 0 0 1-.019.064.756.756 0 0 0-.012.151.756.756 0 0 0 .015.147.276.276 0 0 0 .019.064.737.737 0 0 0 .025.078A.741.741 0 0 0 .1 6.6a.55.55 0 0 0 .032.057.756.756 0 0 0 .095.115l5.483 5.483a.757.757 0 0 0 1.07-1.07L2.583 7h4.98V5.483h-4.98zm9.107 4.191h-.756V7h.756a.756.756 0 0 0 0-1.512z" transform="rotate(45 .818 19.132)"/>
</svg>
