<svg xmlns="http://www.w3.org/2000/svg" width="30" height="30" viewBox="0 0 30 30"><g fill="none" stroke="#f1f1f3" stroke-width=".5"><circle cx="15" cy="15" r="15" stroke="none"/><circle cx="15" cy="15" r="14.75"/></g><path fill="#f1f1f3" d="M18.447 17.458l1.069 1.07-1.073 1.072-1.069-1.069zm-3.212-1.066l1.07 1.07 1.072-1.074-1.07-1.069zm2.404-5.657a.761.761 0 00.002-1.522l-7.747-.001a.757.757 0 00-.149.014c-.022.004-.043.014-.064.02a.756.756 0 00-.078.023.739.739 0 00-.073.038.484.484 0 01-.058.032.756.756 0 00-.116.098.756.756 0 00-.093.114.276.276 0 00-.032.06.737.737 0 00-.037.072.741.741 0 00-.022.08.55.55 0 00-.018.063.756.756 0 00-.014.148v7.754a.757.757 0 001.513 0l-.008-5.927 3.521 3.522 1.073-1.073-3.522-3.521zm3.477 9.403l-.535-.534-1.067 1.067.534.534a.756.756 0 001.07-1.069z"/></svg>