<svg xmlns="http://www.w3.org/2000/svg" id="Group_32769" width="30" height="30" viewBox="0 0 30 30">
  <defs>
    <style>
      .cls-2{fill:#383d51}
    </style>
  </defs>
  <g id="Ellipse_1273" fill="none" stroke="#383d51" stroke-width="0.5px">
    <circle cx="15" cy="15" r="15" stroke="none"/>
    <circle cx="15" cy="15" r="14.75"/>
  </g>
  <g id="Group_20412" transform="translate(6 6)">
    <circle id="Ellipse_1243" cx=".632" cy=".632" r=".632" class="cls-2" transform="translate(12.632 6.947)"/>
    <path id="Path_7403" d="M3.855 10.748a1.775 1.775 0 0 1 1.023.325 6.5 6.5 0 0 1 3.871-4.312 3.473 3.473 0 1 1 6.446.011c.1.043.2.079.3.126l2.279-.76a.632.632 0 0 1 .8.8l-.632 1.9a6.1 6.1 0 0 1 .686 1.062h.927a.949.949 0 0 1 .947.947v2.526a.949.949 0 0 1-.947.947H18.9a6.292 6.292 0 0 1-2.189 2.88v1.221a.949.949 0 0 1-.947.947H14.5a.949.949 0 0 1-.934-.788 8.187 8.187 0 0 1-3.184 0 .948.948 0 0 1-.933.789H8.184a.949.949 0 0 1-.947-.947V17.21a5.988 5.988 0 0 1-2.526-4.789 5.272 5.272 0 0 1 .039-.617 1.129 1.129 0 0 0-.179-.181 1.151 1.151 0 0 0-.713-.243.725.725 0 0 0-.724.724.413.413 0 0 0 .412.412c.107 0 .195-.088.153-.236a.316.316 0 0 1 0-.632.673.673 0 0 1 .672.672.828.828 0 0 1-.827.827A1.045 1.045 0 0 1 2.5 12.1a1.357 1.357 0 0 1 1.355-1.352zm8.118-8.116a2.846 2.846 0 0 0-2.841 2.842 2.813 2.813 0 0 0 1.29 2.367c.261-.051.524-.09.788-.114h.022a5.868 5.868 0 0 1 .7-.041 7.635 7.635 0 0 1 .779.041h.022q.4.038.788.114a2.812 2.812 0 0 0 1.29-2.367 2.846 2.846 0 0 0-2.837-2.842zm-4.237 14.16a.317.317 0 0 1 .133.257v1.372a.317.317 0 0 0 .316.316h1.263a.317.317 0 0 0 .316-.316v-.232a.316.316 0 0 1 .391-.308 7.581 7.581 0 0 0 3.638 0 .315.315 0 0 1 .391.307v.231a.317.317 0 0 0 .316.316h1.264a.317.317 0 0 0 .316-.316v-1.38a.314.314 0 0 1 .132-.256 5.663 5.663 0 0 0 2.157-2.883.316.316 0 0 1 .3-.222h.882a.316.316 0 0 0 .316-.316v-2.521a.316.316 0 0 0-.316-.316h-1.123a.316.316 0 0 1-.287-.184 5.488 5.488 0 0 0-.8-1.241.319.319 0 0 1-.058-.3l.687-2.06-2.4.8a.314.314 0 0 1-.243-.018c-.139-.07-.288-.124-.433-.186a3.444 3.444 0 0 1-.592.693c.037.011.074.018.111.03a.316.316 0 0 1-.188.6c-.222-.069-.445-.124-.671-.172a.277.277 0 0 1-.04 0c-.266-.056-.515-.1-.759-.124l-.068-.008c-.184-.02-.363-.027-.541-.032h-.347c-.179 0-.357.011-.541.032l-.068.008c-.244.029-.493.069-.759.124a.312.312 0 0 1-.065.006c-.216.047-.431.1-.644.167a.325.325 0 0 1-.093.014.316.316 0 0 1-.095-.618l.111-.03a3.451 3.451 0 0 1-.6-.7 5.658 5.658 0 0 0-3.7 5.1 5.393 5.393 0 0 0 2.391 4.366z" class="cls-2" transform="translate(-2.5 -2)"/>
  </g>
</svg>
