<svg xmlns="http://www.w3.org/2000/svg" id="Group_32778" width="30" height="30" viewBox="0 0 30 30"><defs><style>.cls-2{fill:#f1f1f3}</style></defs><g id="Ellipse_1319" fill="none" stroke="#f1f1f3" stroke-width=".5"><circle cx="15" cy="15" r="15" stroke="none"/><circle cx="15" cy="15" r="14.75"/></g><g id="health" transform="translate(7 7)"><path id="Path_8966" d="M15.923 3.348a.432.432 0 00-.356-.379 22.443 22.443 0 01-1.366-.277.258.258 0 10-.118.5c.434.1.882.193 1.333.272a18.769 18.769 0 01-.556 6.416 11.153 11.153 0 01-2.2 4.281A9.175 9.175 0 018 17.045a9.176 9.176 0 01-4.663-2.883 11.153 11.153 0 01-2.2-4.281 18.768 18.768 0 01-.553-6.416A16.793 16.793 0 008 .539a14.992 14.992 0 004.9 2.341.258.258 0 00.146-.494A14.25 14.25 0 018.269.095a.427.427 0 00-.538 0C5.285 2.059 1.223 2.833.433 2.968a.431.431 0 00-.356.379 19.305 19.305 0 00.566 6.673 11.663 11.663 0 002.3 4.476 9.687 9.687 0 004.941 3.051.433.433 0 00.116.017.428.428 0 00.113-.015 9.686 9.686 0 004.941-3.049 11.664 11.664 0 002.3-4.476 19.312 19.312 0 00.569-6.676zm0 0" class="cls-2"/><path id="Path_8967" d="M55.38 69.493a7.939 7.939 0 002.427 1.1.394.394 0 00.2 0 7.525 7.525 0 003.838-2.371 9.046 9.046 0 001.787-3.473 14.946 14.946 0 00.438-5.166.392.392 0 00-.323-.345 12.535 12.535 0 01-5.6-2.2.388.388 0 00-.489 0 13.911 13.911 0 01-5.6 2.2.392.392 0 00-.323.345 15.123 15.123 0 00.119 3.691 9.4 9.4 0 002.564 5.435.258.258 0 00.36-.369 8.9 8.9 0 01-2.406-5.14 14.7 14.7 0 01-.124-3.464A13.076 13.076 0 0057.91 57.5a13.074 13.074 0 005.662 2.231 14.41 14.41 0 01-.431 4.879 8.539 8.539 0 01-1.682 3.277 7.011 7.011 0 01-3.549 2.2 7.409 7.409 0 01-2.238-1.02.258.258 0 00-.291.425zm0 0" class="cls-2" transform="translate(-49.91 -54.997)"/><path id="Path_8968" d="M140.869 159.254h-2.2a.457.457 0 00-.456.456v1.307h-1.307a.457.457 0 00-.456.456v2.2a.457.457 0 00.456.456h1.307v1.307a.457.457 0 00.456.456h2.2a.457.457 0 00.456-.456v-1.307h1.307a.457.457 0 00.456-.456v-2.2a.457.457 0 00-.456-.456h-1.307v-1.307a.457.457 0 00-.456-.456zm1.7 2.278v2.081h-1.307a.457.457 0 00-.456.456v1.307h-2.082v-1.306a.457.457 0 00-.456-.456h-1.307v-2.081h1.307a.457.457 0 00.456-.456v-1.307h2.082v1.307a.457.457 0 00.456.456zm0 0" class="cls-2" transform="translate(-131.768 -153.791)"/></g></svg>