<svg xmlns="http://www.w3.org/2000/svg" id="Group_32778" width="30" height="30" viewBox="0 0 30 30">
  <defs>
    <style>
      .cls-2{fill:#383d51}
    </style>
  </defs>
  <g id="Ellipse_1319" fill="none" stroke="#383d51" stroke-width="0.5px">
    <circle cx="15" cy="15" r="15" stroke="none"/>
    <circle cx="15" cy="15" r="14.75"/>
  </g>
  <g id="health" transform="translate(7 7)">
    <path id="Path_8966" d="M15.923 3.348a.432.432 0 0 0-.356-.379c-.462-.079-.921-.172-1.366-.277a.258.258 0 1 0-.118.5c.434.1.882.193 1.333.272a18.769 18.769 0 0 1-.556 6.416 11.153 11.153 0 0 1-2.2 4.281A9.175 9.175 0 0 1 8 17.045a9.176 9.176 0 0 1-4.663-2.883 11.153 11.153 0 0 1-2.2-4.281 18.768 18.768 0 0 1-.553-6.416A16.793 16.793 0 0 0 8 .539a14.992 14.992 0 0 0 4.9 2.341.258.258 0 0 0 .146-.494A14.25 14.25 0 0 1 8.269.095a.427.427 0 0 0-.538 0C5.285 2.059 1.223 2.833.433 2.968a.431.431 0 0 0-.356.379 19.305 19.305 0 0 0 .566 6.673 11.663 11.663 0 0 0 2.3 4.476 9.687 9.687 0 0 0 4.941 3.051.433.433 0 0 0 .116.017.428.428 0 0 0 .113-.015 9.686 9.686 0 0 0 4.941-3.049 11.664 11.664 0 0 0 2.3-4.476 19.312 19.312 0 0 0 .569-6.676zm0 0" class="cls-2"/>
    <path id="Path_8967" d="M55.38 69.493a7.939 7.939 0 0 0 2.427 1.1.394.394 0 0 0 .2 0 7.525 7.525 0 0 0 3.838-2.371 9.046 9.046 0 0 0 1.787-3.473 14.946 14.946 0 0 0 .438-5.166.392.392 0 0 0-.323-.345 12.535 12.535 0 0 1-5.6-2.2.388.388 0 0 0-.489 0 13.911 13.911 0 0 1-5.6 2.2.392.392 0 0 0-.323.345 15.123 15.123 0 0 0 .119 3.691 9.4 9.4 0 0 0 2.564 5.435.258.258 0 0 0 .36-.369 8.9 8.9 0 0 1-2.406-5.14 14.7 14.7 0 0 1-.124-3.464A13.076 13.076 0 0 0 57.91 57.5a13.074 13.074 0 0 0 5.662 2.231 14.41 14.41 0 0 1-.431 4.879 8.539 8.539 0 0 1-1.682 3.277 7.011 7.011 0 0 1-3.549 2.2 7.409 7.409 0 0 1-2.238-1.02.258.258 0 0 0-.291.425zm0 0" class="cls-2" transform="translate(-49.91 -54.997)"/>
    <path id="Path_8968" d="M140.869 159.254h-2.2a.457.457 0 0 0-.456.456v1.307h-1.307a.457.457 0 0 0-.456.456v2.2a.457.457 0 0 0 .456.456h1.307v1.307a.457.457 0 0 0 .456.456h2.2a.457.457 0 0 0 .456-.456v-1.307h1.307a.457.457 0 0 0 .456-.456v-2.2a.457.457 0 0 0-.456-.456h-1.307v-1.307a.457.457 0 0 0-.456-.456zm1.7 2.278v2.081h-1.307a.457.457 0 0 0-.456.456v1.307h-2.082v-1.306a.457.457 0 0 0-.456-.456h-1.307v-2.081h1.307a.457.457 0 0 0 .456-.456v-1.307h2.082v1.307a.457.457 0 0 0 .456.456zm0 0" class="cls-2" transform="translate(-131.768 -153.791)"/>
  </g>
</svg>
