<svg xmlns="http://www.w3.org/2000/svg" id="Group_32776" width="30" height="30" viewBox="0 0 30 30"><defs><style>.cls-2{fill:#f1f1f3}</style></defs><g id="Ellipse_1314" fill="none" stroke="#f1f1f3" stroke-width=".5"><circle cx="15" cy="15" r="15" stroke="none"/><circle cx="15" cy="15" r="14.75"/></g><g id="Group_20632" transform="translate(7 7)"><rect id="Rectangle_6094" width="1" height="16" class="cls-2" rx=".5" transform="rotate(90 .907 15.093)"/><path id="Subtraction_123" d="M14.985 12.686H1a1 1 0 01-.837-1.547L7.157.453a1 1 0 011.674 0l6.991 10.687a1 1 0 01-.837 1.547zM7.994 1.023a.5.5 0 00-.418.227l-6.51 9.984a.5.5 0 00.418.773H14.5a.5.5 0 00.418-.773L8.412 1.25a.5.5 0 00-.418-.227z" class="cls-2" transform="rotate(180 7.994 6.344)"/></g></svg>