<svg xmlns="http://www.w3.org/2000/svg" width="56.414" height="17" viewBox="0 0 56.414 17"><defs><style>.cls-4{fill:#002769}</style></defs><g id="Nash-logo_dark" transform="translate(-.003 -.023)"><path id="Path_13038" fill="#004dfd" d="M178.015 208.968l-.238 1.35a.367.367 0 00.362.432h3.069a.735.735 0 00.724-.608l.238-1.35a.368.368 0 00-.363-.432h-3.068a.735.735 0 00-.724.608z" transform="translate(-173.384 -203.606)"/><path id="Path_13039" fill="#478eff" d="M136.836 411.148l-.238 1.35a.368.368 0 00.362.432h4.5a.735.735 0 00.724-.608l.238-1.351a.367.367 0 00-.362-.431h-4.5a.735.735 0 00-.724.608z" transform="translate(-133.77 -398.106)"/><path id="Path_13040" fill="#1573ff" d="M62.606 310.058l-.238 1.35a.368.368 0 00.361.432h5.843a.735.735 0 00.724-.608l.238-1.35a.368.368 0 00-.362-.432h-5.841a.735.735 0 00-.724.608z" transform="translate(-62.36 -300.856)"/><path id="Path_13041" d="M677.886 214.232a.367.367 0 01-.361-.44l.1-.5a3.837 3.837 0 01-1.357.864 4.809 4.809 0 01-1.823.351 3.812 3.812 0 01-2.631-.947 3.229 3.229 0 01-1.064-2.537 3.946 3.946 0 011.461-3.227 5.935 5.935 0 013.871-1.193 4.829 4.829 0 012.572.7l.093-.468a3.746 3.746 0 00.094-.748q0-1.426-1.777-1.427a6.844 6.844 0 00-3.324.934.366.366 0 01-.535-.257l-.26-1.437a.725.725 0 01.347-.763 8.553 8.553 0 014.263-1.137 5.552 5.552 0 011.321.164 5.653 5.653 0 011.368.55 2.9 2.9 0 011.134 1.158 3.721 3.721 0 01.433 1.848 9.82 9.82 0 01-.164 1.4l-1.133 6.5a.735.735 0 01-.724.608zm-2.6-2.385a4.171 4.171 0 002.625-.893.377.377 0 00.137-.228l.152-.825a.363.363 0 00-.228-.41 5.667 5.667 0 00-1.938-.31 3.194 3.194 0 00-1.625.386 1.276 1.276 0 00-.667 1.181.936.936 0 00.421.795 1.884 1.884 0 001.122.3z" class="cls-4" transform="translate(-647.635 -197.488)"/><path id="Path_13042" d="M978.747 214.511a6.076 6.076 0 01-2.713-.608 3.95 3.95 0 01-1.57-1.284.372.372 0 01.078-.507l1.388-1.059a.748.748 0 01.958.057 3.13 3.13 0 002.161.829 2.524 2.524 0 001.2-.269.864.864 0 00.5-.807q0-.467-.8-.947a13.174 13.174 0 00-1.754-.877 5.03 5.03 0 01-1.754-1.251 2.842 2.842 0 01-.8-2 3.308 3.308 0 011.333-2.759 5.461 5.461 0 013.457-1.029 5.109 5.109 0 013.75 1.6.369.369 0 01-.06.542l-1.419 1.038a.73.73 0 01-.925-.049 2.379 2.379 0 00-1.674-.608 1.946 1.946 0 00-1.1.281.862.862 0 00-.421.748q0 .351.538.69a10.278 10.278 0 001.3.678 14.913 14.913 0 011.508.783 4.316 4.316 0 011.286 1.181 2.765 2.765 0 01.538 1.671 3.479 3.479 0 01-1.344 2.9 5.8 5.8 0 01-3.661 1.056z" class="cls-4" transform="translate(-939.749 -197.488)"/><path id="Path_13043" d="M363.6 202.064a3.227 3.227 0 00-2.608-1.064 3.571 3.571 0 00-2.947 1.473l.135-.76a.368.368 0 00-.362-.432h-3.275a.735.735 0 00-.724.608l-.238 1.35a.367.367 0 00.362.432h.876l-1.609 9.129a.368.368 0 00.362.431h1.937a.735.735 0 00.726-.606l1.109-6.268a3.034 3.034 0 01.947-1.871 2.384 2.384 0 011.579-.631q1.52 0 1.52 1.637a8.01 8.01 0 01-.117 1.146l-1.093 6.162a.367.367 0 00.362.432h1.937a.735.735 0 00.724-.608l1.108-6.222a9.672 9.672 0 00.187-1.637 4.025 4.025 0 00-.898-2.701z" class="cls-4" transform="translate(-342.153 -196.526)"/><path id="Path_13044" d="M1254.324 98.173h-.871l.791-4.439a9.672 9.672 0 00.187-1.637 4.037 4.037 0 00-.9-2.7 3.224 3.224 0 00-2.607-1.064 3.614 3.614 0 00-2.97 1.5l.993-5.553a.367.367 0 00-.472-.416l-2.2.69a.735.735 0 00-.5.575l-2.63 15.007a.368.368 0 00.362.431h2.248a.367.367 0 00.362-.3l1.162-6.572a3.037 3.037 0 01.947-1.871 2.382 2.382 0 011.579-.631q1.52 0 1.52 1.637a7.976 7.976 0 01-.117 1.146l-1.093 6.163a.368.368 0 00.362.432h3.252a.735.735 0 00.726-.607l.238-1.35a.368.368 0 00-.364-.433z" class="cls-4" transform="translate(-1198.276 -83.82)"/></g></svg>