<svg xmlns="http://www.w3.org/2000/svg" viewBox="0 0 120 21.158"><defs><style>.prefix__cls-2{fill:#282940}.prefix__cls-3{fill:#51bd89}</style></defs><g id="prefix__Group_26519" data-name="Group 26519" transform="translate(-5663 10001)"><path id="prefix__Path_9378" fill="#282940" fill-rule="evenodd" d="M73.291 18.269h-2.006l-2.617-2.883h-1.63v2.883h-1.69v-8.65h4.267a2.923 2.923 0 013.228 2.864 2.581 2.581 0 01-2.271 2.717l2.719 2.952zm-6.244-7.119v2.766h2.577a1.371 1.371 0 001.538-1.383 1.387 1.387 0 00-1.538-1.383zm13.339 1.04h-1.5l-.061.824a2.359 2.359 0 00-2.016-.991 3.024 3.024 0 00-3.289 3.187 3 3 0 003.259 3.236 2.408 2.408 0 002.047-1.069l.081.893h1.477zm-5.295 3.04a1.782 1.782 0 001.874 1.854 1.844 1.844 0 100-3.688 1.755 1.755 0 00-1.874 1.834zm10.827-.216v3.266h1.558v-3.257a1.411 1.411 0 011.375-1.51c.845 0 1.191.677 1.191 1.481v3.286h1.568v-3.286c0-1.824-.886-2.883-2.678-2.883a2.309 2.309 0 00-2.118 1.108 1.9 1.9 0 00-1.874-1.138 1.854 1.854 0 00-1.67.843l-.112-.745h-1.446v6.09h1.568v-3.255a1.4 1.4 0 011.344-1.53 1.36 1.36 0 011.294 1.53zm7.149 5.8v-8.627h1.456l.1.843a2.55 2.55 0 012.047-.971 3.1 3.1 0 013.238 3.187 3.027 3.027 0 01-3.187 3.187 2.587 2.587 0 01-2.1-.863v3.256h-1.554zm3.491-7.3a1.678 1.678 0 011.793 1.726 1.794 1.794 0 01-3.585 0 1.678 1.678 0 011.792-1.727z" data-name="Path 9378" transform="translate(5637.797 -10004.709)"/><path id="prefix__Path_9379" d="M128.188 10.353v8.515h-1.7v-8.515z" class="prefix__cls-2" data-name="Path 9379" transform="translate(5614.217 -10004.993)"/><path id="prefix__Path_9380" d="M135.741 13.18a2.365 2.365 0 011.845.76 3.07 3.07 0 01.687 2.135v3.883h-1.688v-3.69a1.722 1.722 0 00-.41-1.23 1.448 1.448 0 00-1.122-.446 1.5 1.5 0 00-1.158.47 1.921 1.921 0 00-.434 1.351v3.546h-1.7v-6.683h1.7v1.339a2.1 2.1 0 01.868-1.049 2.6 2.6 0 011.412-.386z" class="prefix__cls-2" data-name="Path 9380" transform="translate(5612.184 -10006.083)"/><path id="prefix__Path_9381" d="M146.942 13.2a2.947 2.947 0 011.954.615 2.664 2.664 0 01.917 1.64h-1.593a1.326 1.326 0 00-.434-.772 1.306 1.306 0 00-.88-.289 1.013 1.013 0 00-.676.205.692.692 0 00-.241.555.563.563 0 00.193.446 1.387 1.387 0 00.482.265q.289.1.832.229a7.771 7.771 0 011.23.362 1.922 1.922 0 01.82.591 1.589 1.589 0 01.35 1.085 1.68 1.68 0 01-.675 1.387 2.8 2.8 0 01-1.8.531 3.43 3.43 0 01-2.086-.579 2.48 2.48 0 01-.953-1.676h1.628a1.12 1.12 0 00.434.784 1.6 1.6 0 00.977.277.965.965 0 00.663-.205.732.732 0 00.229-.555.6.6 0 00-.205-.47 1.285 1.285 0 00-.495-.277q-.289-.1-.832-.229a10.658 10.658 0 01-1.218-.338 2.04 2.04 0 01-.8-.567 1.6 1.6 0 01-.326-1.061 1.737 1.737 0 01.663-1.411 2.814 2.814 0 011.842-.543z" class="prefix__cls-2" data-name="Path 9381" transform="translate(5607.315 -10006.091)"/><path id="prefix__Path_9382" d="M158.632 17.521v1.459h-.893a2.492 2.492 0 01-1.724-.543 2.362 2.362 0 01-.591-1.809v-2.894h-.929V12.3h.929v-1.653h1.7V12.3h1.5v1.435h-1.5v2.919a.943.943 0 00.193.675.9.9 0 00.651.193z" class="prefix__cls-2" data-name="Path 9382" transform="translate(5603.416 -10005.106)"/><path id="prefix__Path_9383" d="M165.626 13.2a2.566 2.566 0 011.447.4 2.166 2.166 0 01.856 1.073v-1.389h1.689v6.681h-1.689v-1.4a2.231 2.231 0 01-.856 1.085 2.566 2.566 0 01-1.447.4 2.87 2.87 0 01-1.52-.41 2.817 2.817 0 01-1.062-1.182 4.222 4.222 0 01-.374-1.833 4.142 4.142 0 01.374-1.821 2.8 2.8 0 011.062-1.194 2.87 2.87 0 011.52-.41zm.53 1.483a1.664 1.664 0 00-1.278.519 2.009 2.009 0 00-.482 1.423 2.009 2.009 0 00.482 1.423 1.836 1.836 0 002.545-.012 1.96 1.96 0 00.506-1.411 1.934 1.934 0 00-.506-1.411 1.655 1.655 0 00-1.267-.531z" class="prefix__cls-2" data-name="Path 9383" transform="translate(5600.263 -10006.091)"/><path id="prefix__Path_9384" d="M180.467 13.18a2.366 2.366 0 011.845.76 3.07 3.07 0 01.688 2.134v3.883h-1.688v-3.69a1.722 1.722 0 00-.41-1.23 1.447 1.447 0 00-1.122-.446 1.5 1.5 0 00-1.157.47 1.921 1.921 0 00-.434 1.351v3.546h-1.7v-6.682h1.7v1.339a2.105 2.105 0 01.869-1.049 2.6 2.6 0 011.409-.386z" class="prefix__cls-2" data-name="Path 9384" transform="translate(5594.935 -10006.083)"/><path id="prefix__Path_9385" d="M192.737 17.521v1.459h-.892a2.5 2.5 0 01-1.725-.543 2.365 2.365 0 01-.59-1.809v-2.894h-.93V12.3h.929v-1.653h1.7V12.3h1.5v1.435h-1.5v2.919a.94.94 0 00.193.675.9.9 0 00.651.193z" class="prefix__cls-2" data-name="Path 9385" transform="translate(5590.263 -10005.106)"/><path id="prefix__Path_9386" d="M10.993 12.451l4.8 4.626-3.836 3.694a1.416 1.416 0 01-1.944 0L.4 11.511a1.293 1.293 0 010-1.872L10.017.386a1.416 1.416 0 011.944 0L15.8 4.081 11 8.707a2.585 2.585 0 00-.007 3.744z" class="prefix__cls-3" data-name="Path 9386" transform="translate(5663 -10001)"/><path id="prefix__Path_9387" d="M28.837 14.654l-4.8 4.626-4.8-4.626a1.293 1.293 0 010-1.872l4.8-4.626 4.8 4.626a1.293 1.293 0 010 1.872z" class="prefix__cls-3" data-name="Path 9387" transform="translate(5655.738 -10004.146)"/><path id="prefix__Path_9388" fill="#30335d" d="M44.271 11.511l-9.616 9.261a1.416 1.416 0 01-1.944 0l-3.836-3.694 4.8-4.626a2.585 2.585 0 000-3.743l-4.8-4.626L32.712.386a1.416 1.416 0 011.944 0l9.616 9.261a1.283 1.283 0 01-.001 1.864z" data-name="Path 9388" transform="translate(5651.864 -10001)"/></g></svg>