<svg xmlns="http://www.w3.org/2000/svg" viewBox="0 0 100 26.418"><defs><linearGradient id="prefix__linear-gradient" x1="-.033" x2="1.038" y1="-.012" y2=".807" gradientUnits="objectBoundingBox"><stop offset=".13" stop-color="#3495f7"/><stop offset=".306" stop-color="#2b87f2"/><stop offset=".639" stop-color="#1461e5"/><stop offset=".723" stop-color="#0e57e1"/></linearGradient><linearGradient id="prefix__linear-gradient-2" x2="1" y1=".5" y2=".5" gradientUnits="objectBoundingBox"><stop offset="0" stop-color="#3495f7"/><stop offset=".494" stop-color="#1461e5"/><stop offset="1" stop-color="#0e57e1"/></linearGradient><style>.prefix__cls-3{fill:#d1d9e6}.prefix__cls-4{fill:#fff}</style></defs><g id="prefix__transparent_1_" transform="translate(-135.5 -161.7)"><g id="prefix__logo_4_" transform="translate(135.5 161.7)"><path id="prefix__Path_9389" fill="url(#prefix__linear-gradient)" d="M159.28 188.118H137.7a2.2 2.2 0 01-2.2-2.2V163.9a2.2 2.2 0 012.2-2.2h21.589a2.2 2.2 0 012.2 2.2v22.025a2.2 2.2 0 01-2.209 2.193z" data-name="Path 9389" transform="translate(-135.5 -161.7)"/><path id="prefix__Path_9390" fill="#2970e2" d="M428.014 451.6v8.217a2.2 2.2 0 01-2.2 2.2H417.6z" data-name="Path 9390" transform="translate(-402.032 -435.601)"/><g id="prefix__Group_26528" data-name="Group 26528" transform="translate(2.731 7.368)"><g id="prefix__Group_26523" data-name="Group 26523" transform="translate(4.465)"><g id="prefix__Group_26520" data-name="Group 26520" transform="translate(.368 .143)"><path id="prefix__Path_9391" d="M273.719 306.167l7.666-7.969a1.475 1.475 0 012.114.066l4.432 4.271a1.4 1.4 0 01.022 1.827c-.568.568-1.209.607-2.07.022l-3.212-3.477-8.074 7.677a1.463 1.463 0 01-1.943.226c-.292-.392.287-1.159.061-1.385z" class="prefix__cls-3" data-name="Path 9391" transform="translate(-272.57 -297.783)"/></g><g id="prefix__Group_26521" data-name="Group 26521"><path id="prefix__Path_9392" d="M267.07 306.4a1.1 1.1 0 01-1.17-.955l.039-9.111a1.19 1.19 0 012.379.094v9.04c.005.527-.564.952-1.248.932z" class="prefix__cls-3" data-name="Path 9392" transform="translate(-265.9 -295.2)"/></g><g id="prefix__Group_26522" data-name="Group 26522" transform="translate(8.957 .954)"><path id="prefix__Path_9393" d="M429.353 322.986a1.08 1.08 0 01-1.153-1.076v-8.355a1.207 1.207 0 012.4-.022v8.262a1.168 1.168 0 01-1.247 1.191z" class="prefix__cls-3" data-name="Path 9393" transform="translate(-428.2 -312.489)"/></g></g><g id="prefix__Group_26527" data-name="Group 26527" transform="translate(0 .099)"><g id="prefix__Group_26524" data-name="Group 26524" transform="translate(4.465)"><path id="prefix__Path_9394" d="M266.794 308.193a.947.947 0 01-.894-.955v-9.111a1.137 1.137 0 01.894-1.137c.524-.022.966.585.966 1.115v9.161a.928.928 0 01-.966.927z" class="prefix__cls-4" data-name="Path 9394" transform="translate(-265.9 -296.989)"/></g><g id="prefix__Group_26525" data-name="Group 26525" transform="translate(13.389 .277)"><path id="prefix__Path_9395" d="M428.533 313.021a1.1 1.1 0 01-.933-1.115v-8.974a.933.933 0 111.865 0v8.979a1.112 1.112 0 01-.932 1.11z" class="prefix__cls-4" data-name="Path 9395" transform="translate(-427.6 -302)"/></g><g id="prefix__Group_26526" data-name="Group 26526" transform="translate(0 .221)"><path id="prefix__Path_9396" d="M190.385 311.882a1.161 1.161 0 01-.833-.348l-4.222-4.234a1.182 1.182 0 011.678-1.667l3.4 3.422 8.135-7.743a1.178 1.178 0 011.634.006l4.426 4.272a1.183 1.183 0 01-1.639 1.705l-3.615-3.482-8.151 7.743a1.177 1.177 0 01-.813.326z" class="prefix__cls-4" data-name="Path 9396" transform="translate(-184.987 -300.987)"/></g></g><path id="prefix__Path_9397" d="M414.6 362.738l-.513.486s.143-.811-.27-.419.64-1 .64-1l.215.27z" class="prefix__cls-4" data-name="Path 9397" transform="translate(-401.097 -358.124)"/><path id="prefix__Path_9398" d="M461.017 366.018s.028-.5.568.353v-.671l-.585-.3z" class="prefix__cls-4" data-name="Path 9398" transform="translate(-445.768 -361.526)"/><path id="prefix__Path_9399" d="M299.322 416.46s.077.552.563-.16v.668l-.585.3z" class="prefix__cls-4" data-name="Path 9399" transform="translate(-292.991 -409.617)"/></g></g><path id="prefix__Path_9400" fill="url(#prefix__linear-gradient-2)" d="M717.653 334.182l.116.039c.017.315.028.905.028 1.772 0 .055-.083.077-.248.077h-1.142c-.1 0-.16.083-.16.248v6.777c0 .011-.022.028-.066.061a.168.168 0 01-.094.044h-2.064l-.094-.077q-.041-.041-.039-6.176v-.817q-1.589 0-1.589-.2v-1.683c0-.011.033-.033.1-.077h2.362c.121.017.2.033.221.039s.039-.011.039-.039h2.627zm3.245-.022h3.637a3.091 3.091 0 012.2.911 2.914 2.914 0 01.955 2.174 2.716 2.716 0 01-.557 1.705 3.555 3.555 0 01-1.507 1.115c-.028 0-.039.022-.039.066v.011a.03.03 0 01.011.028l2.246 2.743a1.227 1.227 0 01.077.144.6.6 0 00.061.11.3.3 0 01.022.044c0 .028-.143.05-.436.072s-.48.033-.579.033a.2.2 0 01-.144-.039h-1.405a.3.3 0 01-.221-.143l-1.827-2.152c-.011-.011-.028-.033-.055-.066a.5.5 0 00-.077-.077.165.165 0 00-.077-.028c-.017 0-.039.055-.066.171v2.13c0 .072-.028.1-.077.1h-1.788c-.16 0-.265-.033-.315-.1a.7.7 0 01-.1-.353c0-.778.005-1.766.022-2.964s.022-2.1.022-2.7c0-.094-.006-.447-.011-1.049l-.028-.905a7.629 7.629 0 01.058-.981zm4.426 3.057a1.2 1.2 0 00-.171-.646 1.518 1.518 0 00-1.369-.513c-.121 0-.309.011-.552.028l-.116.132c0 .116-.005.292-.011.53s-.016.447-.022.613-.005.287-.005.353c0 .585.055.916.16.988h.144a3.073 3.073 0 001.518-.3c.286-.186.424-.577.424-1.185zm8.526-3.162h1.562c.044 0 .171.243.375.723a5.743 5.743 0 01.309.8q.273.72 2.98 7.34a.219.219 0 01-.16.232 2.312 2.312 0 01-.579.044l-.668-.011c-.447-.011-.784-.011-1.01-.011-.017-.055-.055-.143-.1-.276s-.094-.232-.127-.3-.077-.16-.138-.265a2.2 2.2 0 00-.2-.287c-.061 0-.182-.011-.37-.033a4.157 4.157 0 00-.5-.033l-1.644.022c-.028 0-.1-.005-.237-.011s-.2-.011-.21-.011c-.16 0-.292.2-.408.618a1.628 1.628 0 01-.287.7 8.274 8.274 0 01-.872-.022 14.142 14.142 0 00-.872-.033c-.37 0-.552-.055-.552-.16a.318.318 0 01.005-.066.255.255 0 00.005-.055l.762-2.208a8.743 8.743 0 00.414-1.026c.16-.453.265-.734.309-.839.177-.453.475-1.214.9-2.274s.745-1.876.966-2.456c.017-.069.127-.102.348-.102zm.132 6.131h.342c.629-.017.944-.055.944-.1a4.763 4.763 0 00-.408-1.2 4.38 4.38 0 00-.182-.419l-.171-.408a3.306 3.306 0 00-.442.905 5.338 5.338 0 00-.375 1.065c.001.102.1.158.293.158zm15.618-1.093c0 .017-.005.055-.011.116s-.017.121-.028.182l-.011.077c0 .375.011.944.028 1.694s.028 1.313.028 1.683c0 .254-.055.381-.16.381h-1.705a.34.34 0 01-.3-.143l-1.617-2.417a.648.648 0 00-.116-.171.517.517 0 01-.1-.132l-1.324-1.915-.16-.171-.028.055a38.49 38.49 0 01-.116 4.873h-2.08l-.077-.039q0-1.01.028-3.477c.017-1.645.028-2.859.028-3.659 0-.6-.011-1.06-.028-1.369l.055-.381.265-.055 1.656.055c.044 0 .094.044.16.132a.938.938 0 01.116.21l1.236 1.788a1.125 1.125 0 00.1.149 1.131 1.131 0 01.1.149l1.694 2.323c.028.061.061.094.1.094.028 0 .039-.011.039-.039v-4.741l.077-.066a4.6 4.6 0 01.563-.011 8.041 8.041 0 011.551.055l.055.077v4.691zm6.9 1.225a3.193 3.193 0 00-.508-.4c-.2-.138-.441-.281-.712-.436s-.43-.254-.491-.3a3.078 3.078 0 01-1.694-2.6 2.173 2.173 0 01.894-1.9 3.934 3.934 0 012.312-.629 4.173 4.173 0 011.562.315 4.7 4.7 0 01.464.21c.215.1.32.182.32.221l-.011.066c0 .011-.011.022-.028.044a.116.116 0 00-.028.061 9.135 9.135 0 01-.789 1.369.062.062 0 01-.066.039 4.752 4.752 0 01-.6-.215 2.573 2.573 0 00-.855-.215 1.013 1.013 0 00-.541.16.489.489 0 00-.248.436.877.877 0 00.392.668c.177.132.524.364 1.049.7.116.077.265.182.447.309l.436.3c.1.072.221.166.353.276a2.244 2.244 0 01.326.32 2.149 2.149 0 01.535 1.534 2.546 2.546 0 01-.933 2.031 3.316 3.316 0 01-2.219.795 5.328 5.328 0 01-2.638-.684c-.37-.226-.552-.364-.552-.408v-.055c.386-.7.706-1.242.96-1.628a.745.745 0 01.425.182 2.46 2.46 0 00.281.2 3.438 3.438 0 001.589.353c.519 0 .773-.193.773-.579a.745.745 0 00-.2-.539zm8.709-6.264h1.562c.044 0 .171.243.375.723a5.743 5.743 0 01.309.8q.273.72 2.98 7.34a.219.219 0 01-.16.232 2.312 2.312 0 01-.579.044l-.668-.011c-.447-.011-.784-.011-1.01-.011-.017-.055-.055-.143-.1-.276s-.094-.232-.127-.3-.077-.16-.138-.265a2.192 2.192 0 00-.2-.287c-.061 0-.182-.011-.37-.033a4.152 4.152 0 00-.5-.033l-1.645.028c-.028 0-.1-.005-.237-.011s-.2-.011-.21-.011c-.16 0-.292.2-.408.618a1.628 1.628 0 01-.287.7 8.273 8.273 0 01-.872-.022 14.142 14.142 0 00-.872-.033c-.37 0-.552-.055-.552-.16a.311.311 0 01.006-.066.255.255 0 00.005-.055l.762-2.208a8.7 8.7 0 00.414-1.026c.16-.453.265-.734.309-.839.177-.453.475-1.214.9-2.274s.745-1.876.966-2.456q.029-.107.352-.107zm.132 6.131h.342c.629-.017.944-.055.944-.1a4.763 4.763 0 00-.408-1.2 4.38 4.38 0 00-.182-.419l-.171-.408a3.306 3.306 0 00-.442.905 5.338 5.338 0 00-.375 1.065c.01.103.104.159.297.159zm9.8-6.187c.27 0 .408.05.408.143v2.682c0 .088.011.132.027.132.061 0 .138-.055.232-.171a4.675 4.675 0 00.281-.386 1.534 1.534 0 01.221-.281l1.474-2a.216.216 0 01.182-.077h1.943l.315.055c.017 0 .028.017.028.055a.174.174 0 01-.028.116l-.563.894-.077.055-1.683 2.246a.137.137 0 00-.039.1.3.3 0 00.039.16l2.55 5.265v.039l.011.039c0 .149-.265.221-.789.221-.309 0-.662-.011-1.071-.039s-.635-.039-.679-.039l-.094-.066c-.055-.055-.541-1.065-1.474-3.035a1.791 1.791 0 00-.182-.419c-.028 0-.127.121-.309.37a4.061 4.061 0 00-.3.436c0 .16 0 .414.005.762s.005.679.005.982c0 .624-.072.944-.21.971-.177 0-.392.006-.657.022s-.441.022-.541.022a4.14 4.14 0 01-.6-.055c-.254-.033-.381-.066-.381-.094v-4.52c.055-.419.077-.662.077-.723 0-.392-.016-.982-.055-1.772s-.055-1.374-.055-1.76c0-.16.033-.254.1-.287a31.88 31.88 0 011.896-.041z" data-name="Path 9400" transform="translate(-544.968 -162.791)"/></g></svg>