<svg xmlns="http://www.w3.org/2000/svg" width="12" height="12" viewBox="0 0 12 12"><path fill="#2ebac6" d="M11.7 4.884l-1.071-.129a4.782 4.782 0 00-.474-1.155l.666-.846a.347.347 0 00-.027-.448L9.69 1.2a.348.348 0 00-.448-.027l-.848.667a4.716 4.716 0 00-1.15-.475L7.116.3A.348.348 0 006.78 0H5.219a.347.347 0 00-.336.3l-.128 1.068a4.754 4.754 0 00-1.155.476l-.847-.666a.348.348 0 00-.448.027L1.2 2.31a.348.348 0 00-.026.448l.665.847a4.742 4.742 0 00-.476 1.152L.3 4.885a.347.347 0 00-.3.336v1.561a.348.348 0 00.3.336l1.071.129A4.771 4.771 0 001.845 8.4l-.665.848a.348.348 0 00.027.448l1.1 1.1a.348.348 0 00.448.027l.848-.667a4.724 4.724 0 001.151.476l.129 1.07a.347.347 0 00.336.3H6.78a.346.346 0 00.336-.3l.129-1.07a4.765 4.765 0 001.155-.475l.848.666a.348.348 0 00.448-.027l1.1-1.1a.348.348 0 00.027-.449l-.668-.847a4.749 4.749 0 00.476-1.151l1.07-.129a.346.346 0 00.3-.336V5.22a.346.346 0 00-.301-.336zM6 9a3 3 0 113-3 3 3 0 01-3 3z"/></svg>